SplineFontDB: 3.0
FontName: Untitled1
FullName: Untitled1
FamilyName: Untitled1
Weight: Medium
Copyright: Created by Les Green,,, with FontForge 2.0 (http://fontforge.sf.net)
UComments: "2019-5-16: Created." 
Version: 001.000
ItalicAngle: 0
UnderlinePosition: -100
UnderlineWidth: 50
Ascent: 800
Descent: 200
LayerCount: 2
Layer: 0 0 "Back"  1
Layer: 1 0 "Fore"  0
XUID: [1021 860 1828800533 10435252]
OS2Version: 0
OS2_WeightWidthSlopeOnly: 0
OS2_UseTypoMetrics: 1
CreationTime: 1557997593
ModificationTime: 1557999450
OS2TypoAscent: 0
OS2TypoAOffset: 1
OS2TypoDescent: 0
OS2TypoDOffset: 1
OS2TypoLinegap: 0
OS2WinAscent: 0
OS2WinAOffset: 1
OS2WinDescent: 0
OS2WinDOffset: 1
HheadAscent: 0
HheadAOffset: 1
HheadDescent: 0
HheadDOffset: 1
OS2Vendor: 'PfEd'
DEI: 91125
Encoding: ISO8859-1
UnicodeInterp: none
NameList: Adobe Glyph List
DisplaySize: -24
AntiAlias: 1
FitToEm: 1
WinInfo: 0 39 12
BeginChars: 256 256

StartChar: U+00a4
Encoding: 164 164 0
Width: 512
VWidth: 0
Flags: HW
LayerCount: 2
Back
Fore
SplineSet
62.5 456.25 m 1
 62.5 487.5 l 1
 93.75 487.5 l 1
 125 487.5 l 1
 125 456.25 l 1
 125 425 l 1
 281.25 425 l 1
 437.5 425 l 1
 437.5 456.25 l 1
 437.5 487.5 l 1
 468.75 487.5 l 1
 500 487.5 l 1
 500 456.25 l 1
 500 425 l 1
 468.75 425 l 1
 437.5 425 l 1
 437.5 268.75 l 1
 437.5 112.5 l 1
 468.75 112.5 l 1
 500 112.5 l 1
 500 81.25 l 1
 500 50 l 1
 468.75 50 l 1
 437.5 50 l 1
 437.5 81.25 l 1
 437.5 112.5 l 1
 281.25 112.5 l 1
 125 112.5 l 1
 125 81.25 l 1
 125 50 l 1
 93.75 50 l 1
 62.5 50 l 1
 62.5 81.25 l 1
 62.5 112.5 l 1
 93.75 112.5 l 1
 125 112.5 l 1
 125 268.75 l 1
 125 425 l 1
 93.75 425 l 1
 62.5 425 l 1
 62.5 456.25 l 1
375 268.75 m 1
 375 362.5 l 1
 281.25 362.5 l 1
 187.5 362.5 l 1
 187.5 268.75 l 1
 187.5 175 l 1
 281.25 175 l 1
 375 175 l 1
 375 268.75 l 1
EndSplineSet
Validated: 524805
EndChar

StartChar: U+00a6
Encoding: 166 166 1
Width: 512
VWidth: 0
Flags: HW
LayerCount: 2
Back
Fore
SplineSet
187.5 143.75 m 1
 187.5 300 l 1
 218.75 300 l 1
 250 300 l 1
 250 143.75 l 1
 250 -12.5 l 1
 218.75 -12.5 l 1
 187.5 -12.5 l 1
 187.5 143.75 l 1
187.5 518.75 m 1
 187.5 675 l 1
 218.75 675 l 1
 250 675 l 1
 250 518.75 l 1
 250 362.5 l 1
 218.75 362.5 l 1
 187.5 362.5 l 1
 187.5 518.75 l 1
EndSplineSet
Validated: 524801
EndChar

StartChar: U+00a8
Encoding: 168 168 2
Width: 512
VWidth: 0
Flags: HW
LayerCount: 2
Back
Fore
SplineSet
312.5 612.5 m 1
 312.5 675 l 1
 343.75 675 l 1
 375 675 l 1
 375 612.5 l 1
 375 550 l 1
 343.75 550 l 1
 312.5 550 l 1
 312.5 612.5 l 1
125 612.5 m 1
 125 675 l 1
 156.25 675 l 1
 187.5 675 l 1
 187.5 612.5 l 1
 187.5 550 l 1
 156.25 550 l 1
 125 550 l 1
 125 612.5 l 1
EndSplineSet
Validated: 524801
EndChar

StartChar: U+00b4
Encoding: 180 180 3
Width: 512
VWidth: 0
Flags: HW
LayerCount: 2
Back
Fore
SplineSet
250 643.75 m 1
 250 675 l 1
 312.5 675 l 1
 375 675 l 1
 375 643.75 l 1
 375 612.5 l 1
 312.5 612.5 l 1
 250 612.5 l 1
 250 581.25 l 1
 250 550 l 1
 187.5 550 l 1
 125 550 l 1
 125 581.25 l 1
 125 612.5 l 1
 187.5 612.5 l 1
 250 612.5 l 1
 250 643.75 l 1
EndSplineSet
Validated: 524805
EndChar

StartChar: U+00b8
Encoding: 184 184 4
Width: 512
VWidth: 0
Flags: HW
LayerCount: 2
Back
Fore
SplineSet
187.5 81.25 m 1
 187.5 112.5 l 1
 218.75 112.5 l 1
 250 112.5 l 1
 250 81.25 l 1
 250 50 l 1
 281.25 50 l 1
 312.5 50 l 1
 312.5 18.75 l 1
 312.5 -12.5 l 1
 281.25 -12.5 l 1
 250 -12.5 l 1
 250 -43.75 l 1
 250 -75 l 1
 187.5 -75 l 1
 125 -75 l 1
 125 -43.75 l 1
 125 -12.5 l 1
 187.5 -12.5 l 1
 250 -12.5 l 1
 250 18.75 l 1
 250 50 l 1
 218.75 50 l 1
 187.5 50 l 1
 187.5 81.25 l 1
EndSplineSet
Validated: 524805
EndChar

StartChar: solid
Encoding: 0 0 5
Width: 480
VWidth: 0
Flags: HW
LayerCount: 2
Back
Fore
SplineSet
62.5 331.25 m 1
 62.5 737.5 l 1
 250 737.5 l 1
 437.5 737.5 l 1
 437.5 331.25 l 1
 437.5 -75 l 1
 250 -75 l 1
 62.5 -75 l 1
 62.5 331.25 l 1
EndSplineSet
Validated: 524289
EndChar

StartChar: diamond
Encoding: 1 9830 6
Width: 480
VWidth: 0
Flags: HW
LayerCount: 2
Back
Fore
SplineSet
250 518.75 m 1
 250 550 l 1
 281.25 550 l 1
 312.5 550 l 1
 312.5 518.75 l 1
 312.5 487.5 l 1
 343.75 487.5 l 1
 375 487.5 l 1
 375 456.25 l 1
 375 425 l 1
 406.25 425 l 1
 437.5 425 l 1
 437.5 393.75 l 1
 437.5 362.5 l 1
 468.75 362.5 l 1
 500 362.5 l 1
 500 331.25 l 1
 500 300 l 1
 468.75 300 l 1
 437.5 300 l 1
 437.5 268.75 l 1
 437.5 237.5 l 1
 406.25 237.5 l 1
 375 237.5 l 1
 375 206.25 l 1
 375 175 l 1
 343.75 175 l 1
 312.5 175 l 1
 312.5 143.75 l 1
 312.5 112.5 l 1
 281.25 112.5 l 1
 250 112.5 l 1
 250 143.75 l 1
 250 175 l 1
 218.75 175 l 1
 187.5 175 l 1
 187.5 206.25 l 1
 187.5 237.5 l 1
 156.25 237.5 l 1
 125 237.5 l 1
 125 268.75 l 1
 125 300 l 1
 93.75 300 l 1
 62.5 300 l 1
 62.5 331.25 l 1
 62.5 362.5 l 1
 93.75 362.5 l 1
 125 362.5 l 1
 125 393.75 l 1
 125 425 l 1
 156.25 425 l 1
 187.5 425 l 1
 187.5 456.25 l 1
 187.5 487.5 l 1
 218.75 487.5 l 1
 250 487.5 l 1
 250 518.75 l 1
EndSplineSet
Validated: 524289
EndChar

StartChar: dithered
Encoding: 2 2 7
Width: 480
VWidth: 0
Flags: HW
LayerCount: 2
Back
Fore
SplineSet
187.5 581.25 m 1
 187.5 612.5 l 1
 218.75 612.5 l 1
 250 612.5 l 1
 250 581.25 l 1
 250 550 l 1
 281.25 550 l 1
 312.5 550 l 1
 312.5 581.25 l 1
 312.5 612.5 l 1
 343.75 612.5 l 1
 375 612.5 l 1
 375 581.25 l 1
 375 550 l 1
 343.75 550 l 1
 312.5 550 l 1
 312.5 518.75 l 1
 312.5 487.5 l 1
 343.75 487.5 l 1
 375 487.5 l 1
 375 456.25 l 1
 375 425 l 1
 343.75 425 l 1
 312.5 425 l 1
 312.5 393.75 l 1
 312.5 362.5 l 1
 343.75 362.5 l 1
 375 362.5 l 1
 375 331.25 l 1
 375 300 l 1
 343.75 300 l 1
 312.5 300 l 1
 312.5 268.75 l 1
 312.5 237.5 l 1
 343.75 237.5 l 1
 375 237.5 l 1
 375 206.25 l 1
 375 175 l 1
 343.75 175 l 1
 312.5 175 l 1
 312.5 143.75 l 1
 312.5 112.5 l 1
 343.75 112.5 l 1
 375 112.5 l 1
 375 81.25 l 1
 375 50 l 1
 343.75 50 l 1
 312.5 50 l 1
 312.5 18.75 l 1
 312.5 -12.5 l 1
 281.25 -12.5 l 1
 250 -12.5 l 1
 250 18.75 l 1
 250 50 l 1
 218.75 50 l 1
 187.5 50 l 1
 187.5 18.75 l 1
 187.5 -12.5 l 1
 156.25 -12.5 l 1
 125 -12.5 l 1
 125 18.75 l 1
 125 50 l 1
 156.25 50 l 1
 187.5 50 l 1
 187.5 81.25 l 1
 187.5 112.5 l 1
 156.25 112.5 l 1
 125 112.5 l 1
 125 143.75 l 1
 125 175 l 1
 156.25 175 l 1
 187.5 175 l 1
 187.5 206.25 l 1
 187.5 237.5 l 1
 156.25 237.5 l 1
 125 237.5 l 1
 125 268.75 l 1
 125 300 l 1
 156.25 300 l 1
 187.5 300 l 1
 187.5 331.25 l 1
 187.5 362.5 l 1
 156.25 362.5 l 1
 125 362.5 l 1
 125 393.75 l 1
 125 425 l 1
 156.25 425 l 1
 187.5 425 l 1
 187.5 456.25 l 1
 187.5 487.5 l 1
 156.25 487.5 l 1
 125 487.5 l 1
 125 518.75 l 1
 125 550 l 1
 156.25 550 l 1
 187.5 550 l 1
 187.5 581.25 l 1
250 518.75 m 1
 250 550 l 1
 218.75 550 l 1
 187.5 550 l 1
 187.5 518.75 l 1
 187.5 487.5 l 1
 218.75 487.5 l 1
 250 487.5 l 1
 250 456.25 l 1
 250 425 l 1
 218.75 425 l 1
 187.5 425 l 1
 187.5 393.75 l 1
 187.5 362.5 l 1
 218.75 362.5 l 1
 250 362.5 l 1
 250 331.25 l 1
 250 300 l 1
 218.75 300 l 1
 187.5 300 l 1
 187.5 268.75 l 1
 187.5 237.5 l 1
 218.75 237.5 l 1
 250 237.5 l 1
 250 206.25 l 1
 250 175 l 1
 218.75 175 l 1
 187.5 175 l 1
 187.5 143.75 l 1
 187.5 112.5 l 1
 218.75 112.5 l 1
 250 112.5 l 1
 250 81.25 l 1
 250 50 l 1
 281.25 50 l 1
 312.5 50 l 1
 312.5 81.25 l 1
 312.5 112.5 l 1
 281.25 112.5 l 1
 250 112.5 l 1
 250 143.75 l 1
 250 175 l 1
 281.25 175 l 1
 312.5 175 l 1
 312.5 206.25 l 1
 312.5 237.5 l 1
 281.25 237.5 l 1
 250 237.5 l 1
 250 268.75 l 1
 250 300 l 1
 281.25 300 l 1
 312.5 300 l 1
 312.5 331.25 l 1
 312.5 362.5 l 1
 281.25 362.5 l 1
 250 362.5 l 1
 250 393.75 l 1
 250 425 l 1
 281.25 425 l 1
 312.5 425 l 1
 312.5 456.25 l 1
 312.5 487.5 l 1
 281.25 487.5 l 1
 250 487.5 l 1
 250 518.75 l 1
62.5 706.25 m 1
 62.5 737.5 l 1
 93.75 737.5 l 1
 125 737.5 l 1
 125 706.25 l 1
 125 675 l 1
 156.25 675 l 1
 187.5 675 l 1
 187.5 706.25 l 1
 187.5 737.5 l 1
 218.75 737.5 l 1
 250 737.5 l 1
 250 706.25 l 1
 250 675 l 1
 281.25 675 l 1
 312.5 675 l 1
 312.5 706.25 l 1
 312.5 737.5 l 1
 343.75 737.5 l 1
 375 737.5 l 1
 375 706.25 l 1
 375 675 l 1
 406.25 675 l 1
 437.5 675 l 1
 437.5 706.25 l 1
 437.5 737.5 l 1
 468.75 737.5 l 1
 500 737.5 l 1
 500 706.25 l 1
 500 675 l 1
 468.75 675 l 1
 437.5 675 l 1
 437.5 643.75 l 1
 437.5 612.5 l 1
 468.75 612.5 l 1
 500 612.5 l 1
 500 581.25 l 1
 500 550 l 1
 468.75 550 l 1
 437.5 550 l 1
 437.5 518.75 l 1
 437.5 487.5 l 1
 468.75 487.5 l 1
 500 487.5 l 1
 500 456.25 l 1
 500 425 l 1
 468.75 425 l 1
 437.5 425 l 1
 437.5 393.75 l 1
 437.5 362.5 l 1
 468.75 362.5 l 1
 500 362.5 l 1
 500 331.25 l 1
 500 300 l 1
 468.75 300 l 1
 437.5 300 l 1
 437.5 268.75 l 1
 437.5 237.5 l 1
 468.75 237.5 l 1
 500 237.5 l 1
 500 206.25 l 1
 500 175 l 1
 468.75 175 l 1
 437.5 175 l 1
 437.5 143.75 l 1
 437.5 112.5 l 1
 468.75 112.5 l 1
 500 112.5 l 1
 500 81.25 l 1
 500 50 l 1
 468.75 50 l 1
 437.5 50 l 1
 437.5 18.75 l 1
 437.5 -12.5 l 1
 468.75 -12.5 l 1
 500 -12.5 l 1
 500 -43.75 l 1
 500 -75 l 1
 468.75 -75 l 1
 437.5 -75 l 1
 437.5 -106.25 l 1
 437.5 -137.5 l 1
 406.25 -137.5 l 1
 375 -137.5 l 1
 375 -106.25 l 1
 375 -75 l 1
 343.75 -75 l 1
 312.5 -75 l 1
 312.5 -106.25 l 1
 312.5 -137.5 l 1
 281.25 -137.5 l 1
 250 -137.5 l 1
 250 -106.25 l 1
 250 -75 l 1
 218.75 -75 l 1
 187.5 -75 l 1
 187.5 -106.25 l 1
 187.5 -137.5 l 1
 156.25 -137.5 l 1
 125 -137.5 l 1
 125 -106.25 l 1
 125 -75 l 1
 93.75 -75 l 1
 62.5 -75 l 1
 62.5 -106.25 l 1
 62.5 -137.5 l 1
 31.25 -137.5 l 1
 0 -137.5 l 1
 0 -106.25 l 1
 0 -75 l 1
 31.25 -75 l 1
 62.5 -75 l 1
 62.5 -43.75 l 1
 62.5 -12.5 l 1
 31.25 -12.5 l 1
 0 -12.5 l 1
 0 18.75 l 1
 0 50 l 1
 31.25 50 l 1
 62.5 50 l 1
 62.5 81.25 l 1
 62.5 112.5 l 1
 31.25 112.5 l 1
 0 112.5 l 1
 0 143.75 l 1
 0 175 l 1
 31.25 175 l 1
 62.5 175 l 1
 62.5 206.25 l 1
 62.5 237.5 l 1
 31.25 237.5 l 1
 0 237.5 l 1
 0 268.75 l 1
 0 300 l 1
 31.25 300 l 1
 62.5 300 l 1
 62.5 331.25 l 1
 62.5 362.5 l 1
 31.25 362.5 l 1
 0 362.5 l 1
 0 393.75 l 1
 0 425 l 1
 31.25 425 l 1
 62.5 425 l 1
 62.5 456.25 l 1
 62.5 487.5 l 1
 31.25 487.5 l 1
 0 487.5 l 1
 0 518.75 l 1
 0 550 l 1
 31.25 550 l 1
 62.5 550 l 1
 62.5 581.25 l 1
 62.5 612.5 l 1
 31.25 612.5 l 1
 0 612.5 l 1
 0 643.75 l 1
 0 675 l 1
 31.25 675 l 1
 62.5 675 l 1
 62.5 706.25 l 1
125 643.75 m 1
 125 675 l 1
 93.75 675 l 1
 62.5 675 l 1
 62.5 643.75 l 1
 62.5 612.5 l 1
 93.75 612.5 l 1
 125 612.5 l 1
 125 581.25 l 1
 125 550 l 1
 93.75 550 l 1
 62.5 550 l 1
 62.5 518.75 l 1
 62.5 487.5 l 1
 93.75 487.5 l 1
 125 487.5 l 1
 125 456.25 l 1
 125 425 l 1
 93.75 425 l 1
 62.5 425 l 1
 62.5 393.75 l 1
 62.5 362.5 l 1
 93.75 362.5 l 1
 125 362.5 l 1
 125 331.25 l 1
 125 300 l 1
 93.75 300 l 1
 62.5 300 l 1
 62.5 268.75 l 1
 62.5 237.5 l 1
 93.75 237.5 l 1
 125 237.5 l 1
 125 206.25 l 1
 125 175 l 1
 93.75 175 l 1
 62.5 175 l 1
 62.5 143.75 l 1
 62.5 112.5 l 1
 93.75 112.5 l 1
 125 112.5 l 1
 125 81.25 l 1
 125 50 l 1
 93.75 50 l 1
 62.5 50 l 1
 62.5 18.75 l 1
 62.5 -12.5 l 1
 93.75 -12.5 l 1
 125 -12.5 l 1
 125 -43.75 l 1
 125 -75 l 1
 156.25 -75 l 1
 187.5 -75 l 1
 187.5 -43.75 l 1
 187.5 -12.5 l 1
 218.75 -12.5 l 1
 250 -12.5 l 1
 250 -43.75 l 1
 250 -75 l 1
 281.25 -75 l 1
 312.5 -75 l 1
 312.5 -43.75 l 1
 312.5 -12.5 l 1
 343.75 -12.5 l 1
 375 -12.5 l 1
 375 -43.75 l 1
 375 -75 l 1
 406.25 -75 l 1
 437.5 -75 l 1
 437.5 -43.75 l 1
 437.5 -12.5 l 1
 406.25 -12.5 l 1
 375 -12.5 l 1
 375 18.75 l 1
 375 50 l 1
 406.25 50 l 1
 437.5 50 l 1
 437.5 81.25 l 1
 437.5 112.5 l 1
 406.25 112.5 l 1
 375 112.5 l 1
 375 143.75 l 1
 375 175 l 1
 406.25 175 l 1
 437.5 175 l 1
 437.5 206.25 l 1
 437.5 237.5 l 1
 406.25 237.5 l 1
 375 237.5 l 1
 375 268.75 l 1
 375 300 l 1
 406.25 300 l 1
 437.5 300 l 1
 437.5 331.25 l 1
 437.5 362.5 l 1
 406.25 362.5 l 1
 375 362.5 l 1
 375 393.75 l 1
 375 425 l 1
 406.25 425 l 1
 437.5 425 l 1
 437.5 456.25 l 1
 437.5 487.5 l 1
 406.25 487.5 l 1
 375 487.5 l 1
 375 518.75 l 1
 375 550 l 1
 406.25 550 l 1
 437.5 550 l 1
 437.5 581.25 l 1
 437.5 612.5 l 1
 406.25 612.5 l 1
 375 612.5 l 1
 375 643.75 l 1
 375 675 l 1
 343.75 675 l 1
 312.5 675 l 1
 312.5 643.75 l 1
 312.5 612.5 l 1
 281.25 612.5 l 1
 250 612.5 l 1
 250 643.75 l 1
 250 675 l 1
 218.75 675 l 1
 187.5 675 l 1
 187.5 643.75 l 1
 187.5 612.5 l 1
 156.25 612.5 l 1
 125 612.5 l 1
 125 643.75 l 1
EndSplineSet
Validated: 524293
EndChar

StartChar: horizontal
Encoding: 3 3 8
Width: 480
VWidth: 0
Flags: HW
LayerCount: 2
Back
Fore
SplineSet
187.5 268.75 m 1
 187.5 300 l 1
 343.75 300 l 1
 500 300 l 1
 500 268.75 l 1
 500 237.5 l 1
 437.5 237.5 l 1
 375 237.5 l 1
 375 81.25 l 1
 375 -75 l 1
 343.75 -75 l 1
 312.5 -75 l 1
 312.5 81.25 l 1
 312.5 237.5 l 1
 250 237.5 l 1
 187.5 237.5 l 1
 187.5 268.75 l 1
62.5 550 m 1
 62.5 737.5 l 1
 93.75 737.5 l 1
 125 737.5 l 1
 125 675 l 1
 125 612.5 l 1
 218.75 612.5 l 1
 312.5 612.5 l 1
 312.5 675 l 1
 312.5 737.5 l 1
 343.75 737.5 l 1
 375 737.5 l 1
 375 550 l 1
 375 362.5 l 1
 343.75 362.5 l 1
 312.5 362.5 l 1
 312.5 456.25 l 1
 312.5 550 l 1
 218.75 550 l 1
 125 550 l 1
 125 456.25 l 1
 125 362.5 l 1
 93.75 362.5 l 1
 62.5 362.5 l 1
 62.5 550 l 1
EndSplineSet
Validated: 524289
EndChar

StartChar: form
Encoding: 4 4 9
Width: 480
VWidth: 0
Flags: HW
LayerCount: 2
Back
Fore
SplineSet
187.5 112.5 m 1
 187.5 300 l 1
 343.75 300 l 1
 500 300 l 1
 500 268.75 l 1
 500 237.5 l 1
 375 237.5 l 1
 250 237.5 l 1
 250 206.25 l 1
 250 175 l 1
 343.75 175 l 1
 437.5 175 l 1
 437.5 143.75 l 1
 437.5 112.5 l 1
 343.75 112.5 l 1
 250 112.5 l 1
 250 18.75 l 1
 250 -75 l 1
 218.75 -75 l 1
 187.5 -75 l 1
 187.5 112.5 l 1
62.5 550 m 1
 62.5 737.5 l 1
 218.75 737.5 l 1
 375 737.5 l 1
 375 706.25 l 1
 375 675 l 1
 250 675 l 1
 125 675 l 1
 125 643.75 l 1
 125 612.5 l 1
 218.75 612.5 l 1
 312.5 612.5 l 1
 312.5 581.25 l 1
 312.5 550 l 1
 218.75 550 l 1
 125 550 l 1
 125 456.25 l 1
 125 362.5 l 1
 93.75 362.5 l 1
 62.5 362.5 l 1
 62.5 550 l 1
EndSplineSet
Validated: 524289
EndChar

StartChar: carriage
Encoding: 5 5 10
Width: 480
VWidth: 0
Flags: HW
LayerCount: 2
Back
Fore
SplineSet
187.5 112.5 m 1
 187.5 300 l 1
 312.5 300 l 1
 437.5 300 l 1
 437.5 268.75 l 1
 437.5 237.5 l 1
 468.75 237.5 l 1
 500 237.5 l 1
 500 175 l 1
 500 112.5 l 1
 468.75 112.5 l 1
 437.5 112.5 l 1
 437.5 50 l 1
 437.5 -12.5 l 1
 468.75 -12.5 l 1
 500 -12.5 l 1
 500 -43.75 l 1
 500 -75 l 1
 468.75 -75 l 1
 437.5 -75 l 1
 437.5 -43.75 l 1
 437.5 -12.5 l 1
 406.25 -12.5 l 1
 375 -12.5 l 1
 375 18.75 l 1
 375 50 l 1
 312.5 50 l 1
 250 50 l 1
 250 -12.5 l 1
 250 -75 l 1
 218.75 -75 l 1
 187.5 -75 l 1
 187.5 112.5 l 1
437.5 175 m 1
 437.5 237.5 l 1
 343.75 237.5 l 1
 250 237.5 l 1
 250 175 l 1
 250 112.5 l 1
 343.75 112.5 l 1
 437.5 112.5 l 1
 437.5 175 l 1
125 706.25 m 1
 125 737.5 l 1
 218.75 737.5 l 1
 312.5 737.5 l 1
 312.5 706.25 l 1
 312.5 675 l 1
 343.75 675 l 1
 375 675 l 1
 375 643.75 l 1
 375 612.5 l 1
 343.75 612.5 l 1
 312.5 612.5 l 1
 312.5 643.75 l 1
 312.5 675 l 1
 218.75 675 l 1
 125 675 l 1
 125 550 l 1
 125 425 l 1
 218.75 425 l 1
 312.5 425 l 1
 312.5 456.25 l 1
 312.5 487.5 l 1
 343.75 487.5 l 1
 375 487.5 l 1
 375 456.25 l 1
 375 425 l 1
 343.75 425 l 1
 312.5 425 l 1
 312.5 393.75 l 1
 312.5 362.5 l 1
 218.75 362.5 l 1
 125 362.5 l 1
 125 393.75 l 1
 125 425 l 1
 93.75 425 l 1
 62.5 425 l 1
 62.5 550 l 1
 62.5 675 l 1
 93.75 675 l 1
 125 675 l 1
 125 706.25 l 1
EndSplineSet
Validated: 524293
EndChar

StartChar: line
Encoding: 6 6 11
Width: 480
VWidth: 0
Flags: HW
LayerCount: 2
Back
Fore
SplineSet
187.5 112.5 m 1
 187.5 300 l 1
 343.75 300 l 1
 500 300 l 1
 500 268.75 l 1
 500 237.5 l 1
 375 237.5 l 1
 250 237.5 l 1
 250 206.25 l 1
 250 175 l 1
 343.75 175 l 1
 437.5 175 l 1
 437.5 143.75 l 1
 437.5 112.5 l 1
 343.75 112.5 l 1
 250 112.5 l 1
 250 18.75 l 1
 250 -75 l 1
 218.75 -75 l 1
 187.5 -75 l 1
 187.5 112.5 l 1
62.5 550 m 1
 62.5 737.5 l 1
 93.75 737.5 l 1
 125 737.5 l 1
 125 581.25 l 1
 125 425 l 1
 250 425 l 1
 375 425 l 1
 375 393.75 l 1
 375 362.5 l 1
 218.75 362.5 l 1
 62.5 362.5 l 1
 62.5 550 l 1
EndSplineSet
Validated: 524289
EndChar

StartChar: degree
Encoding: 7 176 12
Width: 480
VWidth: 0
Flags: HW
LayerCount: 2
Back
Fore
SplineSet
125 643.75 m 1
 125 675 l 1
 218.75 675 l 1
 312.5 675 l 1
 312.5 643.75 l 1
 312.5 612.5 l 1
 343.75 612.5 l 1
 375 612.5 l 1
 375 518.75 l 1
 375 425 l 1
 343.75 425 l 1
 312.5 425 l 1
 312.5 393.75 l 1
 312.5 362.5 l 1
 218.75 362.5 l 1
 125 362.5 l 1
 125 393.75 l 1
 125 425 l 1
 93.75 425 l 1
 62.5 425 l 1
 62.5 518.75 l 1
 62.5 612.5 l 1
 93.75 612.5 l 1
 125 612.5 l 1
 125 643.75 l 1
312.5 518.75 m 1
 312.5 612.5 l 1
 218.75 612.5 l 1
 125 612.5 l 1
 125 518.75 l 1
 125 425 l 1
 218.75 425 l 1
 312.5 425 l 1
 312.5 518.75 l 1
EndSplineSet
Validated: 4718597
EndChar

StartChar: plus-minus-sign
Encoding: 8 8 13
Width: 480
VWidth: 0
Flags: HW
LayerCount: 2
Back
Fore
SplineSet
62.5 18.75 m 1
 62.5 50 l 1
 281.25 50 l 1
 500 50 l 1
 500 18.75 l 1
 500 -12.5 l 1
 281.25 -12.5 l 1
 62.5 -12.5 l 1
 62.5 18.75 l 1
250 456.25 m 1
 250 550 l 1
 281.25 550 l 1
 312.5 550 l 1
 312.5 456.25 l 1
 312.5 362.5 l 1
 406.25 362.5 l 1
 500 362.5 l 1
 500 331.25 l 1
 500 300 l 1
 406.25 300 l 1
 312.5 300 l 1
 312.5 206.25 l 1
 312.5 112.5 l 1
 281.25 112.5 l 1
 250 112.5 l 1
 250 206.25 l 1
 250 300 l 1
 156.25 300 l 1
 62.5 300 l 1
 62.5 331.25 l 1
 62.5 362.5 l 1
 156.25 362.5 l 1
 250 362.5 l 1
 250 456.25 l 1
EndSplineSet
Validated: 524801
EndChar

StartChar: null
Encoding: 9 9216 14
Width: 480
VWidth: 0
Flags: HW
LayerCount: 2
Back
Fore
SplineSet
187.5 112.5 m 1
 187.5 300 l 1
 218.75 300 l 1
 250 300 l 1
 250 143.75 l 1
 250 -12.5 l 1
 375 -12.5 l 1
 500 -12.5 l 1
 500 -43.75 l 1
 500 -75 l 1
 343.75 -75 l 1
 187.5 -75 l 1
 187.5 112.5 l 1
62.5 550 m 1
 62.5 737.5 l 1
 93.75 737.5 l 1
 125 737.5 l 1
 125 706.25 l 1
 125 675 l 1
 156.25 675 l 1
 187.5 675 l 1
 187.5 643.75 l 1
 187.5 612.5 l 1
 218.75 612.5 l 1
 250 612.5 l 1
 250 550 l 1
 250 487.5 l 1
 281.25 487.5 l 1
 312.5 487.5 l 1
 312.5 612.5 l 1
 312.5 737.5 l 1
 343.75 737.5 l 1
 375 737.5 l 1
 375 550 l 1
 375 362.5 l 1
 343.75 362.5 l 1
 312.5 362.5 l 1
 312.5 393.75 l 1
 312.5 425 l 1
 281.25 425 l 1
 250 425 l 1
 250 456.25 l 1
 250 487.5 l 1
 218.75 487.5 l 1
 187.5 487.5 l 1
 187.5 550 l 1
 187.5 612.5 l 1
 156.25 612.5 l 1
 125 612.5 l 1
 125 487.5 l 1
 125 362.5 l 1
 93.75 362.5 l 1
 62.5 362.5 l 1
 62.5 550 l 1
EndSplineSet
Validated: 524293
EndChar

StartChar: vertical
Encoding: 10 10 15
Width: 480
VWidth: 0
Flags: HW
LayerCount: 2
Back
Fore
SplineSet
187.5 268.75 m 1
 187.5 300 l 1
 343.75 300 l 1
 500 300 l 1
 500 268.75 l 1
 500 237.5 l 1
 437.5 237.5 l 1
 375 237.5 l 1
 375 81.25 l 1
 375 -75 l 1
 343.75 -75 l 1
 312.5 -75 l 1
 312.5 81.25 l 1
 312.5 237.5 l 1
 250 237.5 l 1
 187.5 237.5 l 1
 187.5 268.75 l 1
62.5 643.75 m 1
 62.5 737.5 l 1
 93.75 737.5 l 1
 125 737.5 l 1
 125 643.75 l 1
 125 550 l 1
 156.25 550 l 1
 187.5 550 l 1
 187.5 487.5 l 1
 187.5 425 l 1
 218.75 425 l 1
 250 425 l 1
 250 487.5 l 1
 250 550 l 1
 281.25 550 l 1
 312.5 550 l 1
 312.5 643.75 l 1
 312.5 737.5 l 1
 343.75 737.5 l 1
 375 737.5 l 1
 375 643.75 l 1
 375 550 l 1
 343.75 550 l 1
 312.5 550 l 1
 312.5 487.5 l 1
 312.5 425 l 1
 281.25 425 l 1
 250 425 l 1
 250 393.75 l 1
 250 362.5 l 1
 218.75 362.5 l 1
 187.5 362.5 l 1
 187.5 393.75 l 1
 187.5 425 l 1
 156.25 425 l 1
 125 425 l 1
 125 487.5 l 1
 125 550 l 1
 93.75 550 l 1
 62.5 550 l 1
 62.5 643.75 l 1
EndSplineSet
Validated: 524293
EndChar

StartChar: box
Encoding: 11 9633 16
Width: 480
VWidth: 0
Flags: HW
LayerCount: 2
Back
Fore
SplineSet
187.5 581.25 m 1
 187.5 800 l 1
 218.75 800 l 1
 250 800 l 1
 250 550 l 1
 250 300 l 1
 125 300 l 1
 0 300 l 1
 0 331.25 l 1
 0 362.5 l 1
 93.75 362.5 l 1
 187.5 362.5 l 1
 187.5 581.25 l 1
EndSplineSet
Validated: 6815745
EndChar

StartChar: box
Encoding: 12 9633 17
Width: 480
VWidth: 0
Flags: HW
LayerCount: 2
Back
Fore
SplineSet
0 331.25 m 1
 0 362.5 l 1
 125 362.5 l 1
 250 362.5 l 1
 250 112.5 l 1
 250 -137.5 l 1
 218.75 -137.5 l 1
 187.5 -137.5 l 1
 187.5 81.25 l 1
 187.5 300 l 1
 93.75 300 l 1
 0 300 l 1
 0 331.25 l 1
EndSplineSet
Validated: 6815745
EndChar

StartChar: box
Encoding: 13 9633 18
Width: 480
VWidth: 0
Flags: HW
LayerCount: 2
Back
Fore
SplineSet
187.5 112.5 m 1
 187.5 362.5 l 1
 343.75 362.5 l 1
 500 362.5 l 1
 500 331.25 l 1
 500 300 l 1
 375 300 l 1
 250 300 l 1
 250 81.25 l 1
 250 -137.5 l 1
 218.75 -137.5 l 1
 187.5 -137.5 l 1
 187.5 112.5 l 1
EndSplineSet
Validated: 6815745
EndChar

StartChar: box
Encoding: 14 9633 19
Width: 480
VWidth: 0
Flags: HW
LayerCount: 2
Back
Fore
SplineSet
187.5 550 m 1
 187.5 800 l 1
 218.75 800 l 1
 250 800 l 1
 250 581.25 l 1
 250 362.5 l 1
 375 362.5 l 1
 500 362.5 l 1
 500 331.25 l 1
 500 300 l 1
 343.75 300 l 1
 187.5 300 l 1
 187.5 550 l 1
EndSplineSet
Validated: 6815745
EndChar

StartChar: box
Encoding: 15 9633 20
Width: 480
VWidth: 0
Flags: HW
LayerCount: 2
Back
Fore
SplineSet
187.5 581.25 m 1
 187.5 800 l 1
 218.75 800 l 1
 250 800 l 1
 250 581.25 l 1
 250 362.5 l 1
 375 362.5 l 1
 500 362.5 l 1
 500 331.25 l 1
 500 300 l 1
 375 300 l 1
 250 300 l 1
 250 81.25 l 1
 250 -137.5 l 1
 218.75 -137.5 l 1
 187.5 -137.5 l 1
 187.5 81.25 l 1
 187.5 300 l 1
 93.75 300 l 1
 0 300 l 1
 0 331.25 l 1
 0 362.5 l 1
 93.75 362.5 l 1
 187.5 362.5 l 1
 187.5 581.25 l 1
EndSplineSet
Validated: 6815745
EndChar

StartChar: box
Encoding: 16 9633 21
Width: 480
VWidth: 0
Flags: HW
LayerCount: 2
Back
Fore
SplineSet
0 706.25 m 1
 0 737.5 l 1
 250 737.5 l 1
 500 737.5 l 1
 500 706.25 l 1
 500 675 l 1
 250 675 l 1
 0 675 l 1
 0 706.25 l 1
EndSplineSet
Validated: 6815745
EndChar

StartChar: box
Encoding: 17 9633 22
Width: 480
VWidth: 0
Flags: HW
LayerCount: 2
Back
Fore
SplineSet
0 518.75 m 1
 0 550 l 1
 250 550 l 1
 500 550 l 1
 500 518.75 l 1
 500 487.5 l 1
 250 487.5 l 1
 0 487.5 l 1
 0 518.75 l 1
EndSplineSet
Validated: 6815745
EndChar

StartChar: box
Encoding: 18 9633 23
Width: 480
VWidth: 0
Flags: HW
LayerCount: 2
Back
Fore
SplineSet
0 331.25 m 1
 0 362.5 l 1
 250 362.5 l 1
 500 362.5 l 1
 500 331.25 l 1
 500 300 l 1
 250 300 l 1
 0 300 l 1
 0 331.25 l 1
EndSplineSet
Validated: 6815745
EndChar

StartChar: box
Encoding: 19 9633 24
Width: 480
VWidth: 0
Flags: HW
LayerCount: 2
Back
Fore
SplineSet
0 143.75 m 1
 0 175 l 1
 250 175 l 1
 500 175 l 1
 500 143.75 l 1
 500 112.5 l 1
 250 112.5 l 1
 0 112.5 l 1
 0 143.75 l 1
EndSplineSet
Validated: 6815745
EndChar

StartChar: box
Encoding: 20 9633 25
Width: 480
VWidth: 0
Flags: HW
LayerCount: 2
Back
Fore
SplineSet
0 -43.75 m 1
 0 -12.5 l 1
 250 -12.5 l 1
 500 -12.5 l 1
 500 -43.75 l 1
 500 -75 l 1
 250 -75 l 1
 0 -75 l 1
 0 -43.75 l 1
EndSplineSet
Validated: 6815745
EndChar

StartChar: box
Encoding: 21 9633 26
Width: 480
VWidth: 0
Flags: HW
LayerCount: 2
Back
Fore
SplineSet
187.5 331.25 m 1
 187.5 800 l 1
 218.75 800 l 1
 250 800 l 1
 250 581.25 l 1
 250 362.5 l 1
 375 362.5 l 1
 500 362.5 l 1
 500 331.25 l 1
 500 300 l 1
 375 300 l 1
 250 300 l 1
 250 81.25 l 1
 250 -137.5 l 1
 218.75 -137.5 l 1
 187.5 -137.5 l 1
 187.5 331.25 l 1
EndSplineSet
Validated: 6815745
EndChar

StartChar: box
Encoding: 22 9633 27
Width: 480
VWidth: 0
Flags: HW
LayerCount: 2
Back
Fore
SplineSet
187.5 581.25 m 1
 187.5 800 l 1
 218.75 800 l 1
 250 800 l 1
 250 331.25 l 1
 250 -137.5 l 1
 218.75 -137.5 l 1
 187.5 -137.5 l 1
 187.5 81.25 l 1
 187.5 300 l 1
 93.75 300 l 1
 0 300 l 1
 0 331.25 l 1
 0 362.5 l 1
 93.75 362.5 l 1
 187.5 362.5 l 1
 187.5 581.25 l 1
EndSplineSet
Validated: 6815745
EndChar

StartChar: box
Encoding: 23 9633 28
Width: 480
VWidth: 0
Flags: HW
LayerCount: 2
Back
Fore
SplineSet
187.5 581.25 m 1
 187.5 800 l 1
 218.75 800 l 1
 250 800 l 1
 250 581.25 l 1
 250 362.5 l 1
 375 362.5 l 1
 500 362.5 l 1
 500 331.25 l 1
 500 300 l 1
 250 300 l 1
 0 300 l 1
 0 331.25 l 1
 0 362.5 l 1
 93.75 362.5 l 1
 187.5 362.5 l 1
 187.5 581.25 l 1
EndSplineSet
Validated: 6815745
EndChar

StartChar: box
Encoding: 24 9633 29
Width: 480
VWidth: 0
Flags: HW
LayerCount: 2
Back
Fore
SplineSet
0 331.25 m 1
 0 362.5 l 1
 250 362.5 l 1
 500 362.5 l 1
 500 331.25 l 1
 500 300 l 1
 375 300 l 1
 250 300 l 1
 250 81.25 l 1
 250 -137.5 l 1
 218.75 -137.5 l 1
 187.5 -137.5 l 1
 187.5 81.25 l 1
 187.5 300 l 1
 93.75 300 l 1
 0 300 l 1
 0 331.25 l 1
EndSplineSet
Validated: 6815745
EndChar

StartChar: box
Encoding: 25 9633 30
Width: 480
VWidth: 0
Flags: HW
LayerCount: 2
Back
Fore
SplineSet
187.5 331.25 m 1
 187.5 800 l 1
 218.75 800 l 1
 250 800 l 1
 250 331.25 l 1
 250 -137.5 l 1
 218.75 -137.5 l 1
 187.5 -137.5 l 1
 187.5 331.25 l 1
EndSplineSet
Validated: 6815745
EndChar

StartChar: less-than-or-equal
Encoding: 26 26 31
Width: 480
VWidth: 0
Flags: HW
LayerCount: 2
Back
Fore
SplineSet
62.5 18.75 m 1
 62.5 50 l 1
 250 50 l 1
 437.5 50 l 1
 437.5 18.75 l 1
 437.5 -12.5 l 1
 250 -12.5 l 1
 62.5 -12.5 l 1
 62.5 18.75 l 1
312.5 643.75 m 1
 312.5 675 l 1
 343.75 675 l 1
 375 675 l 1
 375 643.75 l 1
 375 612.5 l 1
 343.75 612.5 l 1
 312.5 612.5 l 1
 312.5 581.25 l 1
 312.5 550 l 1
 281.25 550 l 1
 250 550 l 1
 250 518.75 l 1
 250 487.5 l 1
 218.75 487.5 l 1
 187.5 487.5 l 1
 187.5 456.25 l 1
 187.5 425 l 1
 156.25 425 l 1
 125 425 l 1
 125 393.75 l 1
 125 362.5 l 1
 156.25 362.5 l 1
 187.5 362.5 l 1
 187.5 331.25 l 1
 187.5 300 l 1
 218.75 300 l 1
 250 300 l 1
 250 268.75 l 1
 250 237.5 l 1
 281.25 237.5 l 1
 312.5 237.5 l 1
 312.5 206.25 l 1
 312.5 175 l 1
 343.75 175 l 1
 375 175 l 1
 375 143.75 l 1
 375 112.5 l 1
 343.75 112.5 l 1
 312.5 112.5 l 1
 312.5 143.75 l 1
 312.5 175 l 1
 281.25 175 l 1
 250 175 l 1
 250 206.25 l 1
 250 237.5 l 1
 218.75 237.5 l 1
 187.5 237.5 l 1
 187.5 268.75 l 1
 187.5 300 l 1
 156.25 300 l 1
 125 300 l 1
 125 331.25 l 1
 125 362.5 l 1
 93.75 362.5 l 1
 62.5 362.5 l 1
 62.5 393.75 l 1
 62.5 425 l 1
 93.75 425 l 1
 125 425 l 1
 125 456.25 l 1
 125 487.5 l 1
 156.25 487.5 l 1
 187.5 487.5 l 1
 187.5 518.75 l 1
 187.5 550 l 1
 218.75 550 l 1
 250 550 l 1
 250 581.25 l 1
 250 612.5 l 1
 281.25 612.5 l 1
 312.5 612.5 l 1
 312.5 643.75 l 1
EndSplineSet
Validated: 524805
EndChar

StartChar: greater-than-or-equal
Encoding: 27 27 32
Width: 480
VWidth: 0
Flags: HW
LayerCount: 2
Back
Fore
SplineSet
62.5 18.75 m 1
 62.5 50 l 1
 250 50 l 1
 437.5 50 l 1
 437.5 18.75 l 1
 437.5 -12.5 l 1
 250 -12.5 l 1
 62.5 -12.5 l 1
 62.5 18.75 l 1
125 643.75 m 1
 125 675 l 1
 156.25 675 l 1
 187.5 675 l 1
 187.5 643.75 l 1
 187.5 612.5 l 1
 218.75 612.5 l 1
 250 612.5 l 1
 250 581.25 l 1
 250 550 l 1
 281.25 550 l 1
 312.5 550 l 1
 312.5 518.75 l 1
 312.5 487.5 l 1
 343.75 487.5 l 1
 375 487.5 l 1
 375 456.25 l 1
 375 425 l 1
 406.25 425 l 1
 437.5 425 l 1
 437.5 393.75 l 1
 437.5 362.5 l 1
 406.25 362.5 l 1
 375 362.5 l 1
 375 331.25 l 1
 375 300 l 1
 343.75 300 l 1
 312.5 300 l 1
 312.5 268.75 l 1
 312.5 237.5 l 1
 281.25 237.5 l 1
 250 237.5 l 1
 250 206.25 l 1
 250 175 l 1
 218.75 175 l 1
 187.5 175 l 1
 187.5 143.75 l 1
 187.5 112.5 l 1
 156.25 112.5 l 1
 125 112.5 l 1
 125 143.75 l 1
 125 175 l 1
 156.25 175 l 1
 187.5 175 l 1
 187.5 206.25 l 1
 187.5 237.5 l 1
 218.75 237.5 l 1
 250 237.5 l 1
 250 268.75 l 1
 250 300 l 1
 281.25 300 l 1
 312.5 300 l 1
 312.5 331.25 l 1
 312.5 362.5 l 1
 343.75 362.5 l 1
 375 362.5 l 1
 375 393.75 l 1
 375 425 l 1
 343.75 425 l 1
 312.5 425 l 1
 312.5 456.25 l 1
 312.5 487.5 l 1
 281.25 487.5 l 1
 250 487.5 l 1
 250 518.75 l 1
 250 550 l 1
 218.75 550 l 1
 187.5 550 l 1
 187.5 581.25 l 1
 187.5 612.5 l 1
 156.25 612.5 l 1
 125 612.5 l 1
 125 643.75 l 1
EndSplineSet
Validated: 524805
EndChar

StartChar: greek
Encoding: 28 28 33
Width: 480
VWidth: 0
Flags: HW
LayerCount: 2
Back
Fore
SplineSet
62.5 456.25 m 1
 62.5 487.5 l 1
 250 487.5 l 1
 437.5 487.5 l 1
 437.5 456.25 l 1
 437.5 425 l 1
 406.25 425 l 1
 375 425 l 1
 375 268.75 l 1
 375 112.5 l 1
 406.25 112.5 l 1
 437.5 112.5 l 1
 437.5 81.25 l 1
 437.5 50 l 1
 406.25 50 l 1
 375 50 l 1
 375 81.25 l 1
 375 112.5 l 1
 343.75 112.5 l 1
 312.5 112.5 l 1
 312.5 268.75 l 1
 312.5 425 l 1
 250 425 l 1
 187.5 425 l 1
 187.5 237.5 l 1
 187.5 50 l 1
 156.25 50 l 1
 125 50 l 1
 125 237.5 l 1
 125 425 l 1
 93.75 425 l 1
 62.5 425 l 1
 62.5 456.25 l 1
EndSplineSet
Validated: 524293
EndChar

StartChar: not-equal
Encoding: 29 29 34
Width: 480
VWidth: 0
Flags: HW
LayerCount: 2
Back
Fore
SplineSet
375 518.75 m 1
 375 550 l 1
 406.25 550 l 1
 437.5 550 l 1
 437.5 518.75 l 1
 437.5 487.5 l 1
 406.25 487.5 l 1
 375 487.5 l 1
 375 456.25 l 1
 375 425 l 1
 406.25 425 l 1
 437.5 425 l 1
 437.5 393.75 l 1
 437.5 362.5 l 1
 375 362.5 l 1
 312.5 362.5 l 1
 312.5 331.25 l 1
 312.5 300 l 1
 281.25 300 l 1
 250 300 l 1
 250 268.75 l 1
 250 237.5 l 1
 343.75 237.5 l 1
 437.5 237.5 l 1
 437.5 206.25 l 1
 437.5 175 l 1
 312.5 175 l 1
 187.5 175 l 1
 187.5 143.75 l 1
 187.5 112.5 l 1
 156.25 112.5 l 1
 125 112.5 l 1
 125 81.25 l 1
 125 50 l 1
 93.75 50 l 1
 62.5 50 l 1
 62.5 81.25 l 1
 62.5 112.5 l 1
 93.75 112.5 l 1
 125 112.5 l 1
 125 143.75 l 1
 125 175 l 1
 93.75 175 l 1
 62.5 175 l 1
 62.5 206.25 l 1
 62.5 237.5 l 1
 125 237.5 l 1
 187.5 237.5 l 1
 187.5 268.75 l 1
 187.5 300 l 1
 218.75 300 l 1
 250 300 l 1
 250 331.25 l 1
 250 362.5 l 1
 156.25 362.5 l 1
 62.5 362.5 l 1
 62.5 393.75 l 1
 62.5 425 l 1
 187.5 425 l 1
 312.5 425 l 1
 312.5 456.25 l 1
 312.5 487.5 l 1
 343.75 487.5 l 1
 375 487.5 l 1
 375 518.75 l 1
EndSplineSet
Validated: 524805
EndChar

StartChar: pound
Encoding: 30 30 35
Width: 480
VWidth: 0
Flags: HW
LayerCount: 2
Back
Fore
SplineSet
187.5 643.75 m 1
 187.5 675 l 1
 281.25 675 l 1
 375 675 l 1
 375 643.75 l 1
 375 612.5 l 1
 406.25 612.5 l 1
 437.5 612.5 l 1
 437.5 581.25 l 1
 437.5 550 l 1
 406.25 550 l 1
 375 550 l 1
 375 581.25 l 1
 375 612.5 l 1
 281.25 612.5 l 1
 187.5 612.5 l 1
 187.5 487.5 l 1
 187.5 362.5 l 1
 250 362.5 l 1
 312.5 362.5 l 1
 312.5 331.25 l 1
 312.5 300 l 1
 250 300 l 1
 187.5 300 l 1
 187.5 206.25 l 1
 187.5 112.5 l 1
 312.5 112.5 l 1
 437.5 112.5 l 1
 437.5 81.25 l 1
 437.5 50 l 1
 250 50 l 1
 62.5 50 l 1
 62.5 81.25 l 1
 62.5 112.5 l 1
 93.75 112.5 l 1
 125 112.5 l 1
 125 206.25 l 1
 125 300 l 1
 93.75 300 l 1
 62.5 300 l 1
 62.5 331.25 l 1
 62.5 362.5 l 1
 93.75 362.5 l 1
 125 362.5 l 1
 125 487.5 l 1
 125 612.5 l 1
 156.25 612.5 l 1
 187.5 612.5 l 1
 187.5 643.75 l 1
EndSplineSet
Validated: 524293
EndChar

StartChar: middle
Encoding: 31 31 36
Width: 480
VWidth: 0
Flags: HW
LayerCount: 2
Back
Fore
SplineSet
187.5 393.75 m 1
 187.5 425 l 1
 218.75 425 l 1
 250 425 l 1
 250 393.75 l 1
 250 362.5 l 1
 281.25 362.5 l 1
 312.5 362.5 l 1
 312.5 331.25 l 1
 312.5 300 l 1
 281.25 300 l 1
 250 300 l 1
 250 268.75 l 1
 250 237.5 l 1
 218.75 237.5 l 1
 187.5 237.5 l 1
 187.5 268.75 l 1
 187.5 300 l 1
 156.25 300 l 1
 125 300 l 1
 125 331.25 l 1
 125 362.5 l 1
 156.25 362.5 l 1
 187.5 362.5 l 1
 187.5 393.75 l 1
EndSplineSet
Validated: 524289
EndChar

StartChar: U+0021
Encoding: 33 33 38
Width: 480
VWidth: 0
Flags: HW
LayerCount: 2
Back
Fore
SplineSet
187.5 112.5 m 1
 187.5 175 l 1
 218.75 175 l 1
 250 175 l 1
 250 112.5 l 1
 250 50 l 1
 218.75 50 l 1
 187.5 50 l 1
 187.5 112.5 l 1
187.5 456.25 m 1
 187.5 675 l 1
 218.75 675 l 1
 250 675 l 1
 250 456.25 l 1
 250 237.5 l 1
 218.75 237.5 l 1
 187.5 237.5 l 1
 187.5 456.25 l 1
EndSplineSet
Validated: 524801
EndChar

StartChar: U+0022
Encoding: 34 34 39
Width: 480
VWidth: 0
Flags: HW
LayerCount: 2
Back
Fore
SplineSet
250 550 m 1
 250 675 l 1
 281.25 675 l 1
 312.5 675 l 1
 312.5 550 l 1
 312.5 425 l 1
 281.25 425 l 1
 250 425 l 1
 250 550 l 1
125 550 m 1
 125 675 l 1
 156.25 675 l 1
 187.5 675 l 1
 187.5 550 l 1
 187.5 425 l 1
 156.25 425 l 1
 125 425 l 1
 125 550 l 1
EndSplineSet
Validated: 524801
EndChar

StartChar: U+0023
Encoding: 35 35 40
Width: 480
VWidth: 0
Flags: HW
LayerCount: 2
Back
Fore
SplineSet
125 550 m 1
 125 612.5 l 1
 156.25 612.5 l 1
 187.5 612.5 l 1
 187.5 550 l 1
 187.5 487.5 l 1
 250 487.5 l 1
 312.5 487.5 l 1
 312.5 550 l 1
 312.5 612.5 l 1
 343.75 612.5 l 1
 375 612.5 l 1
 375 550 l 1
 375 487.5 l 1
 406.25 487.5 l 1
 437.5 487.5 l 1
 437.5 456.25 l 1
 437.5 425 l 1
 406.25 425 l 1
 375 425 l 1
 375 362.5 l 1
 375 300 l 1
 406.25 300 l 1
 437.5 300 l 1
 437.5 268.75 l 1
 437.5 237.5 l 1
 406.25 237.5 l 1
 375 237.5 l 1
 375 175 l 1
 375 112.5 l 1
 343.75 112.5 l 1
 312.5 112.5 l 1
 312.5 175 l 1
 312.5 237.5 l 1
 250 237.5 l 1
 187.5 237.5 l 1
 187.5 175 l 1
 187.5 112.5 l 1
 156.25 112.5 l 1
 125 112.5 l 1
 125 175 l 1
 125 237.5 l 1
 93.75 237.5 l 1
 62.5 237.5 l 1
 62.5 268.75 l 1
 62.5 300 l 1
 93.75 300 l 1
 125 300 l 1
 125 362.5 l 1
 125 425 l 1
 93.75 425 l 1
 62.5 425 l 1
 62.5 456.25 l 1
 62.5 487.5 l 1
 93.75 487.5 l 1
 125 487.5 l 1
 125 550 l 1
312.5 362.5 m 1
 312.5 425 l 1
 250 425 l 1
 187.5 425 l 1
 187.5 362.5 l 1
 187.5 300 l 1
 250 300 l 1
 312.5 300 l 1
 312.5 362.5 l 1
EndSplineSet
Validated: 524801
EndChar

StartChar: U+0024
Encoding: 36 36 41
Width: 480
VWidth: 0
Flags: HW
LayerCount: 2
Back
Fore
SplineSet
187.5 581.25 m 1
 187.5 612.5 l 1
 218.75 612.5 l 1
 250 612.5 l 1
 250 581.25 l 1
 250 550 l 1
 312.5 550 l 1
 375 550 l 1
 375 518.75 l 1
 375 487.5 l 1
 312.5 487.5 l 1
 250 487.5 l 1
 250 425 l 1
 250 362.5 l 1
 281.25 362.5 l 1
 312.5 362.5 l 1
 312.5 331.25 l 1
 312.5 300 l 1
 343.75 300 l 1
 375 300 l 1
 375 237.5 l 1
 375 175 l 1
 343.75 175 l 1
 312.5 175 l 1
 312.5 143.75 l 1
 312.5 112.5 l 1
 281.25 112.5 l 1
 250 112.5 l 1
 250 81.25 l 1
 250 50 l 1
 218.75 50 l 1
 187.5 50 l 1
 187.5 81.25 l 1
 187.5 112.5 l 1
 125 112.5 l 1
 62.5 112.5 l 1
 62.5 143.75 l 1
 62.5 175 l 1
 125 175 l 1
 187.5 175 l 1
 187.5 237.5 l 1
 187.5 300 l 1
 156.25 300 l 1
 125 300 l 1
 125 331.25 l 1
 125 362.5 l 1
 93.75 362.5 l 1
 62.5 362.5 l 1
 62.5 425 l 1
 62.5 487.5 l 1
 93.75 487.5 l 1
 125 487.5 l 1
 125 518.75 l 1
 125 550 l 1
 156.25 550 l 1
 187.5 550 l 1
 187.5 581.25 l 1
187.5 425 m 1
 187.5 487.5 l 1
 156.25 487.5 l 1
 125 487.5 l 1
 125 425 l 1
 125 362.5 l 1
 156.25 362.5 l 1
 187.5 362.5 l 1
 187.5 425 l 1
312.5 237.5 m 1
 312.5 300 l 1
 281.25 300 l 1
 250 300 l 1
 250 237.5 l 1
 250 175 l 1
 281.25 175 l 1
 312.5 175 l 1
 312.5 237.5 l 1
EndSplineSet
Validated: 524805
EndChar

StartChar: U+0025
Encoding: 37 37 42
Width: 480
VWidth: 0
Flags: HW
LayerCount: 2
Back
Fore
SplineSet
125 643.75 m 1
 125 675 l 1
 156.25 675 l 1
 187.5 675 l 1
 187.5 643.75 l 1
 187.5 612.5 l 1
 218.75 612.5 l 1
 250 612.5 l 1
 250 550 l 1
 250 487.5 l 1
 281.25 487.5 l 1
 312.5 487.5 l 1
 312.5 518.75 l 1
 312.5 550 l 1
 343.75 550 l 1
 375 550 l 1
 375 612.5 l 1
 375 675 l 1
 406.25 675 l 1
 437.5 675 l 1
 437.5 612.5 l 1
 437.5 550 l 1
 406.25 550 l 1
 375 550 l 1
 375 518.75 l 1
 375 487.5 l 1
 343.75 487.5 l 1
 312.5 487.5 l 1
 312.5 425 l 1
 312.5 362.5 l 1
 281.25 362.5 l 1
 250 362.5 l 1
 250 300 l 1
 250 237.5 l 1
 281.25 237.5 l 1
 312.5 237.5 l 1
 312.5 268.75 l 1
 312.5 300 l 1
 343.75 300 l 1
 375 300 l 1
 375 268.75 l 1
 375 237.5 l 1
 406.25 237.5 l 1
 437.5 237.5 l 1
 437.5 175 l 1
 437.5 112.5 l 1
 406.25 112.5 l 1
 375 112.5 l 1
 375 81.25 l 1
 375 50 l 1
 343.75 50 l 1
 312.5 50 l 1
 312.5 81.25 l 1
 312.5 112.5 l 1
 281.25 112.5 l 1
 250 112.5 l 1
 250 175 l 1
 250 237.5 l 1
 218.75 237.5 l 1
 187.5 237.5 l 1
 187.5 206.25 l 1
 187.5 175 l 1
 156.25 175 l 1
 125 175 l 1
 125 112.5 l 1
 125 50 l 1
 93.75 50 l 1
 62.5 50 l 1
 62.5 112.5 l 1
 62.5 175 l 1
 93.75 175 l 1
 125 175 l 1
 125 206.25 l 1
 125 237.5 l 1
 156.25 237.5 l 1
 187.5 237.5 l 1
 187.5 300 l 1
 187.5 362.5 l 1
 218.75 362.5 l 1
 250 362.5 l 1
 250 425 l 1
 250 487.5 l 1
 218.75 487.5 l 1
 187.5 487.5 l 1
 187.5 456.25 l 1
 187.5 425 l 1
 156.25 425 l 1
 125 425 l 1
 125 456.25 l 1
 125 487.5 l 1
 93.75 487.5 l 1
 62.5 487.5 l 1
 62.5 550 l 1
 62.5 612.5 l 1
 93.75 612.5 l 1
 125 612.5 l 1
 125 643.75 l 1
187.5 550 m 1
 187.5 612.5 l 1
 156.25 612.5 l 1
 125 612.5 l 1
 125 550 l 1
 125 487.5 l 1
 156.25 487.5 l 1
 187.5 487.5 l 1
 187.5 550 l 1
375 175 m 1
 375 237.5 l 1
 343.75 237.5 l 1
 312.5 237.5 l 1
 312.5 175 l 1
 312.5 112.5 l 1
 343.75 112.5 l 1
 375 112.5 l 1
 375 175 l 1
EndSplineSet
Validated: 524805
EndChar

StartChar: U+0026
Encoding: 38 38 43
Width: 480
VWidth: 0
Flags: HW
LayerCount: 2
Back
Fore
SplineSet
125 581.25 m 1
 125 612.5 l 1
 187.5 612.5 l 1
 250 612.5 l 1
 250 581.25 l 1
 250 550 l 1
 281.25 550 l 1
 312.5 550 l 1
 312.5 487.5 l 1
 312.5 425 l 1
 281.25 425 l 1
 250 425 l 1
 250 362.5 l 1
 250 300 l 1
 281.25 300 l 1
 312.5 300 l 1
 312.5 268.75 l 1
 312.5 237.5 l 1
 343.75 237.5 l 1
 375 237.5 l 1
 375 268.75 l 1
 375 300 l 1
 406.25 300 l 1
 437.5 300 l 1
 437.5 268.75 l 1
 437.5 237.5 l 1
 406.25 237.5 l 1
 375 237.5 l 1
 375 175 l 1
 375 112.5 l 1
 406.25 112.5 l 1
 437.5 112.5 l 1
 437.5 81.25 l 1
 437.5 50 l 1
 406.25 50 l 1
 375 50 l 1
 375 81.25 l 1
 375 112.5 l 1
 343.75 112.5 l 1
 312.5 112.5 l 1
 312.5 81.25 l 1
 312.5 50 l 1
 218.75 50 l 1
 125 50 l 1
 125 81.25 l 1
 125 112.5 l 1
 93.75 112.5 l 1
 62.5 112.5 l 1
 62.5 206.25 l 1
 62.5 300 l 1
 93.75 300 l 1
 125 300 l 1
 125 362.5 l 1
 125 425 l 1
 93.75 425 l 1
 62.5 425 l 1
 62.5 487.5 l 1
 62.5 550 l 1
 93.75 550 l 1
 125 550 l 1
 125 581.25 l 1
250 487.5 m 1
 250 550 l 1
 187.5 550 l 1
 125 550 l 1
 125 487.5 l 1
 125 425 l 1
 187.5 425 l 1
 250 425 l 1
 250 487.5 l 1
250 268.75 m 1
 250 300 l 1
 187.5 300 l 1
 125 300 l 1
 125 206.25 l 1
 125 112.5 l 1
 218.75 112.5 l 1
 312.5 112.5 l 1
 312.5 175 l 1
 312.5 237.5 l 1
 281.25 237.5 l 1
 250 237.5 l 1
 250 268.75 l 1
EndSplineSet
Validated: 524805
EndChar

StartChar: U+0027
Encoding: 39 39 44
Width: 480
VWidth: 0
Flags: HW
LayerCount: 2
Back
Fore
SplineSet
187.5 550 m 1
 187.5 675 l 1
 218.75 675 l 1
 250 675 l 1
 250 550 l 1
 250 425 l 1
 218.75 425 l 1
 187.5 425 l 1
 187.5 550 l 1
EndSplineSet
Validated: 524801
EndChar

StartChar: U+0028
Encoding: 40 40 45
Width: 480
VWidth: 0
Flags: HW
LayerCount: 2
Back
Fore
SplineSet
375 706.25 m 1
 375 737.5 l 1
 406.25 737.5 l 1
 437.5 737.5 l 1
 437.5 706.25 l 1
 437.5 675 l 1
 406.25 675 l 1
 375 675 l 1
 375 643.75 l 1
 375 612.5 l 1
 343.75 612.5 l 1
 312.5 612.5 l 1
 312.5 550 l 1
 312.5 487.5 l 1
 281.25 487.5 l 1
 250 487.5 l 1
 250 331.25 l 1
 250 175 l 1
 281.25 175 l 1
 312.5 175 l 1
 312.5 112.5 l 1
 312.5 50 l 1
 343.75 50 l 1
 375 50 l 1
 375 18.75 l 1
 375 -12.5 l 1
 406.25 -12.5 l 1
 437.5 -12.5 l 1
 437.5 -43.75 l 1
 437.5 -75 l 1
 406.25 -75 l 1
 375 -75 l 1
 375 -43.75 l 1
 375 -12.5 l 1
 343.75 -12.5 l 1
 312.5 -12.5 l 1
 312.5 18.75 l 1
 312.5 50 l 1
 281.25 50 l 1
 250 50 l 1
 250 112.5 l 1
 250 175 l 1
 218.75 175 l 1
 187.5 175 l 1
 187.5 331.25 l 1
 187.5 487.5 l 1
 218.75 487.5 l 1
 250 487.5 l 1
 250 550 l 1
 250 612.5 l 1
 281.25 612.5 l 1
 312.5 612.5 l 1
 312.5 643.75 l 1
 312.5 675 l 1
 343.75 675 l 1
 375 675 l 1
 375 706.25 l 1
EndSplineSet
Validated: 524805
EndChar

StartChar: U+0029
Encoding: 41 41 46
Width: 480
VWidth: 0
Flags: HW
LayerCount: 2
Back
Fore
SplineSet
62.5 706.25 m 1
 62.5 737.5 l 1
 93.75 737.5 l 1
 125 737.5 l 1
 125 706.25 l 1
 125 675 l 1
 156.25 675 l 1
 187.5 675 l 1
 187.5 643.75 l 1
 187.5 612.5 l 1
 218.75 612.5 l 1
 250 612.5 l 1
 250 550 l 1
 250 487.5 l 1
 281.25 487.5 l 1
 312.5 487.5 l 1
 312.5 331.25 l 1
 312.5 175 l 1
 281.25 175 l 1
 250 175 l 1
 250 112.5 l 1
 250 50 l 1
 218.75 50 l 1
 187.5 50 l 1
 187.5 18.75 l 1
 187.5 -12.5 l 1
 156.25 -12.5 l 1
 125 -12.5 l 1
 125 -43.75 l 1
 125 -75 l 1
 93.75 -75 l 1
 62.5 -75 l 1
 62.5 -43.75 l 1
 62.5 -12.5 l 1
 93.75 -12.5 l 1
 125 -12.5 l 1
 125 18.75 l 1
 125 50 l 1
 156.25 50 l 1
 187.5 50 l 1
 187.5 112.5 l 1
 187.5 175 l 1
 218.75 175 l 1
 250 175 l 1
 250 331.25 l 1
 250 487.5 l 1
 218.75 487.5 l 1
 187.5 487.5 l 1
 187.5 550 l 1
 187.5 612.5 l 1
 156.25 612.5 l 1
 125 612.5 l 1
 125 643.75 l 1
 125 675 l 1
 93.75 675 l 1
 62.5 675 l 1
 62.5 706.25 l 1
EndSplineSet
Validated: 524805
EndChar

StartChar: U+002a
Encoding: 42 42 47
Width: 480
VWidth: 0
Flags: HW
LayerCount: 2
Back
Fore
SplineSet
125 456.25 m 1
 125 487.5 l 1
 156.25 487.5 l 1
 187.5 487.5 l 1
 187.5 456.25 l 1
 187.5 425 l 1
 250 425 l 1
 312.5 425 l 1
 312.5 456.25 l 1
 312.5 487.5 l 1
 343.75 487.5 l 1
 375 487.5 l 1
 375 456.25 l 1
 375 425 l 1
 343.75 425 l 1
 312.5 425 l 1
 312.5 393.75 l 1
 312.5 362.5 l 1
 375 362.5 l 1
 437.5 362.5 l 1
 437.5 331.25 l 1
 437.5 300 l 1
 375 300 l 1
 312.5 300 l 1
 312.5 268.75 l 1
 312.5 237.5 l 1
 343.75 237.5 l 1
 375 237.5 l 1
 375 206.25 l 1
 375 175 l 1
 343.75 175 l 1
 312.5 175 l 1
 312.5 206.25 l 1
 312.5 237.5 l 1
 250 237.5 l 1
 187.5 237.5 l 1
 187.5 206.25 l 1
 187.5 175 l 1
 156.25 175 l 1
 125 175 l 1
 125 206.25 l 1
 125 237.5 l 1
 156.25 237.5 l 1
 187.5 237.5 l 1
 187.5 268.75 l 1
 187.5 300 l 1
 125 300 l 1
 62.5 300 l 1
 62.5 331.25 l 1
 62.5 362.5 l 1
 125 362.5 l 1
 187.5 362.5 l 1
 187.5 393.75 l 1
 187.5 425 l 1
 156.25 425 l 1
 125 425 l 1
 125 456.25 l 1
EndSplineSet
Validated: 524805
EndChar

StartChar: U+002b
Encoding: 43 43 48
Width: 480
VWidth: 0
Flags: HW
LayerCount: 2
Back
Fore
SplineSet
250 456.25 m 1
 250 550 l 1
 281.25 550 l 1
 312.5 550 l 1
 312.5 456.25 l 1
 312.5 362.5 l 1
 406.25 362.5 l 1
 500 362.5 l 1
 500 331.25 l 1
 500 300 l 1
 406.25 300 l 1
 312.5 300 l 1
 312.5 206.25 l 1
 312.5 112.5 l 1
 281.25 112.5 l 1
 250 112.5 l 1
 250 206.25 l 1
 250 300 l 1
 156.25 300 l 1
 62.5 300 l 1
 62.5 331.25 l 1
 62.5 362.5 l 1
 156.25 362.5 l 1
 250 362.5 l 1
 250 456.25 l 1
EndSplineSet
Validated: 524801
EndChar

StartChar: U+002c
Encoding: 44 44 49
Width: 480
VWidth: 0
Flags: HW
LayerCount: 2
Back
Fore
SplineSet
187.5 143.75 m 1
 187.5 175 l 1
 250 175 l 1
 312.5 175 l 1
 312.5 143.75 l 1
 312.5 112.5 l 1
 281.25 112.5 l 1
 250 112.5 l 1
 250 81.25 l 1
 250 50 l 1
 218.75 50 l 1
 187.5 50 l 1
 187.5 18.75 l 1
 187.5 -12.5 l 1
 156.25 -12.5 l 1
 125 -12.5 l 1
 125 -43.75 l 1
 125 -75 l 1
 93.75 -75 l 1
 62.5 -75 l 1
 62.5 -43.75 l 1
 62.5 -12.5 l 1
 93.75 -12.5 l 1
 125 -12.5 l 1
 125 50 l 1
 125 112.5 l 1
 156.25 112.5 l 1
 187.5 112.5 l 1
 187.5 143.75 l 1
EndSplineSet
Validated: 524805
EndChar

StartChar: U+002d
Encoding: 45 45 50
Width: 480
VWidth: 0
Flags: HW
LayerCount: 2
Back
Fore
SplineSet
62.5 331.25 m 1
 62.5 362.5 l 1
 250 362.5 l 1
 437.5 362.5 l 1
 437.5 331.25 l 1
 437.5 300 l 1
 250 300 l 1
 62.5 300 l 1
 62.5 331.25 l 1
EndSplineSet
Validated: 524801
EndChar

StartChar: U+002e
Encoding: 46 46 51
Width: 480
VWidth: 0
Flags: HW
LayerCount: 2
Back
Fore
SplineSet
187.5 143.75 m 1
 187.5 175 l 1
 218.75 175 l 1
 250 175 l 1
 250 143.75 l 1
 250 112.5 l 1
 281.25 112.5 l 1
 312.5 112.5 l 1
 312.5 81.25 l 1
 312.5 50 l 1
 281.25 50 l 1
 250 50 l 1
 250 18.75 l 1
 250 -12.5 l 1
 218.75 -12.5 l 1
 187.5 -12.5 l 1
 187.5 18.75 l 1
 187.5 50 l 1
 156.25 50 l 1
 125 50 l 1
 125 81.25 l 1
 125 112.5 l 1
 156.25 112.5 l 1
 187.5 112.5 l 1
 187.5 143.75 l 1
EndSplineSet
Validated: 524801
EndChar

StartChar: U+002f
Encoding: 47 47 52
Width: 480
VWidth: 0
Flags: HW
LayerCount: 2
Back
Fore
SplineSet
375 675 m 1
 375 737.5 l 1
 406.25 737.5 l 1
 437.5 737.5 l 1
 437.5 675 l 1
 437.5 612.5 l 1
 406.25 612.5 l 1
 375 612.5 l 1
 375 550 l 1
 375 487.5 l 1
 343.75 487.5 l 1
 312.5 487.5 l 1
 312.5 425 l 1
 312.5 362.5 l 1
 281.25 362.5 l 1
 250 362.5 l 1
 250 300 l 1
 250 237.5 l 1
 218.75 237.5 l 1
 187.5 237.5 l 1
 187.5 175 l 1
 187.5 112.5 l 1
 156.25 112.5 l 1
 125 112.5 l 1
 125 50 l 1
 125 -12.5 l 1
 93.75 -12.5 l 1
 62.5 -12.5 l 1
 62.5 50 l 1
 62.5 112.5 l 1
 93.75 112.5 l 1
 125 112.5 l 1
 125 175 l 1
 125 237.5 l 1
 156.25 237.5 l 1
 187.5 237.5 l 1
 187.5 300 l 1
 187.5 362.5 l 1
 218.75 362.5 l 1
 250 362.5 l 1
 250 425 l 1
 250 487.5 l 1
 281.25 487.5 l 1
 312.5 487.5 l 1
 312.5 550 l 1
 312.5 612.5 l 1
 343.75 612.5 l 1
 375 612.5 l 1
 375 675 l 1
EndSplineSet
Validated: 524805
EndChar

StartChar: U+0030
Encoding: 48 48 53
Width: 480
VWidth: 0
Flags: HW
LayerCount: 2
Back
Fore
SplineSet
250 393.75 m 1
 250 425 l 1
 281.25 425 l 1
 312.5 425 l 1
 312.5 393.75 l 1
 312.5 362.5 l 1
 281.25 362.5 l 1
 250 362.5 l 1
 250 331.25 l 1
 250 300 l 1
 218.75 300 l 1
 187.5 300 l 1
 187.5 331.25 l 1
 187.5 362.5 l 1
 218.75 362.5 l 1
 250 362.5 l 1
 250 393.75 l 1
187.5 643.75 m 1
 187.5 675 l 1
 250 675 l 1
 312.5 675 l 1
 312.5 643.75 l 1
 312.5 612.5 l 1
 343.75 612.5 l 1
 375 612.5 l 1
 375 581.25 l 1
 375 550 l 1
 406.25 550 l 1
 437.5 550 l 1
 437.5 362.5 l 1
 437.5 175 l 1
 406.25 175 l 1
 375 175 l 1
 375 143.75 l 1
 375 112.5 l 1
 343.75 112.5 l 1
 312.5 112.5 l 1
 312.5 81.25 l 1
 312.5 50 l 1
 250 50 l 1
 187.5 50 l 1
 187.5 81.25 l 1
 187.5 112.5 l 1
 156.25 112.5 l 1
 125 112.5 l 1
 125 143.75 l 1
 125 175 l 1
 93.75 175 l 1
 62.5 175 l 1
 62.5 362.5 l 1
 62.5 550 l 1
 93.75 550 l 1
 125 550 l 1
 125 581.25 l 1
 125 612.5 l 1
 156.25 612.5 l 1
 187.5 612.5 l 1
 187.5 643.75 l 1
312.5 581.25 m 1
 312.5 612.5 l 1
 250 612.5 l 1
 187.5 612.5 l 1
 187.5 581.25 l 1
 187.5 550 l 1
 156.25 550 l 1
 125 550 l 1
 125 362.5 l 1
 125 175 l 1
 156.25 175 l 1
 187.5 175 l 1
 187.5 143.75 l 1
 187.5 112.5 l 1
 250 112.5 l 1
 312.5 112.5 l 1
 312.5 143.75 l 1
 312.5 175 l 1
 343.75 175 l 1
 375 175 l 1
 375 362.5 l 1
 375 550 l 1
 343.75 550 l 1
 312.5 550 l 1
 312.5 581.25 l 1
EndSplineSet
Validated: 524805
EndChar

StartChar: U+0031
Encoding: 49 49 54
Width: 480
VWidth: 0
Flags: HW
LayerCount: 2
Back
Fore
SplineSet
250 643.75 m 1
 250 675 l 1
 281.25 675 l 1
 312.5 675 l 1
 312.5 362.5 l 1
 312.5 50 l 1
 281.25 50 l 1
 250 50 l 1
 250 300 l 1
 250 550 l 1
 218.75 550 l 1
 187.5 550 l 1
 187.5 518.75 l 1
 187.5 487.5 l 1
 156.25 487.5 l 1
 125 487.5 l 1
 125 456.25 l 1
 125 425 l 1
 93.75 425 l 1
 62.5 425 l 1
 62.5 456.25 l 1
 62.5 487.5 l 1
 93.75 487.5 l 1
 125 487.5 l 1
 125 518.75 l 1
 125 550 l 1
 156.25 550 l 1
 187.5 550 l 1
 187.5 581.25 l 1
 187.5 612.5 l 1
 218.75 612.5 l 1
 250 612.5 l 1
 250 643.75 l 1
EndSplineSet
Validated: 524805
EndChar

StartChar: U+0032
Encoding: 50 50 55
Width: 480
VWidth: 0
Flags: HW
LayerCount: 2
Back
Fore
SplineSet
125 643.75 m 1
 125 675 l 1
 250 675 l 1
 375 675 l 1
 375 643.75 l 1
 375 612.5 l 1
 406.25 612.5 l 1
 437.5 612.5 l 1
 437.5 518.75 l 1
 437.5 425 l 1
 406.25 425 l 1
 375 425 l 1
 375 393.75 l 1
 375 362.5 l 1
 343.75 362.5 l 1
 312.5 362.5 l 1
 312.5 331.25 l 1
 312.5 300 l 1
 281.25 300 l 1
 250 300 l 1
 250 268.75 l 1
 250 237.5 l 1
 218.75 237.5 l 1
 187.5 237.5 l 1
 187.5 206.25 l 1
 187.5 175 l 1
 156.25 175 l 1
 125 175 l 1
 125 143.75 l 1
 125 112.5 l 1
 281.25 112.5 l 1
 437.5 112.5 l 1
 437.5 81.25 l 1
 437.5 50 l 1
 250 50 l 1
 62.5 50 l 1
 62.5 112.5 l 1
 62.5 175 l 1
 93.75 175 l 1
 125 175 l 1
 125 206.25 l 1
 125 237.5 l 1
 156.25 237.5 l 1
 187.5 237.5 l 1
 187.5 268.75 l 1
 187.5 300 l 1
 218.75 300 l 1
 250 300 l 1
 250 331.25 l 1
 250 362.5 l 1
 281.25 362.5 l 1
 312.5 362.5 l 1
 312.5 393.75 l 1
 312.5 425 l 1
 343.75 425 l 1
 375 425 l 1
 375 518.75 l 1
 375 612.5 l 1
 250 612.5 l 1
 125 612.5 l 1
 125 550 l 1
 125 487.5 l 1
 93.75 487.5 l 1
 62.5 487.5 l 1
 62.5 550 l 1
 62.5 612.5 l 1
 93.75 612.5 l 1
 125 612.5 l 1
 125 643.75 l 1
EndSplineSet
Validated: 524805
EndChar

StartChar: U+0033
Encoding: 51 51 56
Width: 480
VWidth: 0
Flags: HW
LayerCount: 2
Back
Fore
SplineSet
125 643.75 m 1
 125 675 l 1
 250 675 l 1
 375 675 l 1
 375 643.75 l 1
 375 612.5 l 1
 406.25 612.5 l 1
 437.5 612.5 l 1
 437.5 518.75 l 1
 437.5 425 l 1
 406.25 425 l 1
 375 425 l 1
 375 393.75 l 1
 375 362.5 l 1
 406.25 362.5 l 1
 437.5 362.5 l 1
 437.5 237.5 l 1
 437.5 112.5 l 1
 406.25 112.5 l 1
 375 112.5 l 1
 375 81.25 l 1
 375 50 l 1
 250 50 l 1
 125 50 l 1
 125 81.25 l 1
 125 112.5 l 1
 93.75 112.5 l 1
 62.5 112.5 l 1
 62.5 175 l 1
 62.5 237.5 l 1
 93.75 237.5 l 1
 125 237.5 l 1
 125 175 l 1
 125 112.5 l 1
 250 112.5 l 1
 375 112.5 l 1
 375 237.5 l 1
 375 362.5 l 1
 281.25 362.5 l 1
 187.5 362.5 l 1
 187.5 393.75 l 1
 187.5 425 l 1
 281.25 425 l 1
 375 425 l 1
 375 518.75 l 1
 375 612.5 l 1
 250 612.5 l 1
 125 612.5 l 1
 125 581.25 l 1
 125 550 l 1
 93.75 550 l 1
 62.5 550 l 1
 62.5 581.25 l 1
 62.5 612.5 l 1
 93.75 612.5 l 1
 125 612.5 l 1
 125 643.75 l 1
EndSplineSet
Validated: 524805
EndChar

StartChar: U+0034
Encoding: 52 52 57
Width: 480
VWidth: 0
Flags: HW
LayerCount: 2
Back
Fore
SplineSet
250 643.75 m 1
 250 675 l 1
 312.5 675 l 1
 375 675 l 1
 375 487.5 l 1
 375 300 l 1
 406.25 300 l 1
 437.5 300 l 1
 437.5 268.75 l 1
 437.5 237.5 l 1
 406.25 237.5 l 1
 375 237.5 l 1
 375 143.75 l 1
 375 50 l 1
 343.75 50 l 1
 312.5 50 l 1
 312.5 143.75 l 1
 312.5 237.5 l 1
 187.5 237.5 l 1
 62.5 237.5 l 1
 62.5 300 l 1
 62.5 362.5 l 1
 93.75 362.5 l 1
 125 362.5 l 1
 125 425 l 1
 125 487.5 l 1
 156.25 487.5 l 1
 187.5 487.5 l 1
 187.5 550 l 1
 187.5 612.5 l 1
 218.75 612.5 l 1
 250 612.5 l 1
 250 643.75 l 1
312.5 456.25 m 1
 312.5 612.5 l 1
 281.25 612.5 l 1
 250 612.5 l 1
 250 550 l 1
 250 487.5 l 1
 218.75 487.5 l 1
 187.5 487.5 l 1
 187.5 425 l 1
 187.5 362.5 l 1
 156.25 362.5 l 1
 125 362.5 l 1
 125 331.25 l 1
 125 300 l 1
 218.75 300 l 1
 312.5 300 l 1
 312.5 456.25 l 1
EndSplineSet
Validated: 524805
EndChar

StartChar: U+0035
Encoding: 53 53 58
Width: 480
VWidth: 0
Flags: HW
LayerCount: 2
Back
Fore
SplineSet
62.5 518.75 m 1
 62.5 675 l 1
 250 675 l 1
 437.5 675 l 1
 437.5 643.75 l 1
 437.5 612.5 l 1
 281.25 612.5 l 1
 125 612.5 l 1
 125 550 l 1
 125 487.5 l 1
 250 487.5 l 1
 375 487.5 l 1
 375 456.25 l 1
 375 425 l 1
 406.25 425 l 1
 437.5 425 l 1
 437.5 268.75 l 1
 437.5 112.5 l 1
 406.25 112.5 l 1
 375 112.5 l 1
 375 81.25 l 1
 375 50 l 1
 250 50 l 1
 125 50 l 1
 125 81.25 l 1
 125 112.5 l 1
 93.75 112.5 l 1
 62.5 112.5 l 1
 62.5 175 l 1
 62.5 237.5 l 1
 93.75 237.5 l 1
 125 237.5 l 1
 125 175 l 1
 125 112.5 l 1
 250 112.5 l 1
 375 112.5 l 1
 375 268.75 l 1
 375 425 l 1
 250 425 l 1
 125 425 l 1
 125 393.75 l 1
 125 362.5 l 1
 93.75 362.5 l 1
 62.5 362.5 l 1
 62.5 518.75 l 1
EndSplineSet
Validated: 524805
EndChar

StartChar: U+0036
Encoding: 54 54 59
Width: 480
VWidth: 0
Flags: HW
LayerCount: 2
Back
Fore
SplineSet
125 643.75 m 1
 125 675 l 1
 250 675 l 1
 375 675 l 1
 375 643.75 l 1
 375 612.5 l 1
 406.25 612.5 l 1
 437.5 612.5 l 1
 437.5 581.25 l 1
 437.5 550 l 1
 406.25 550 l 1
 375 550 l 1
 375 581.25 l 1
 375 612.5 l 1
 250 612.5 l 1
 125 612.5 l 1
 125 487.5 l 1
 125 362.5 l 1
 156.25 362.5 l 1
 187.5 362.5 l 1
 187.5 393.75 l 1
 187.5 425 l 1
 281.25 425 l 1
 375 425 l 1
 375 393.75 l 1
 375 362.5 l 1
 406.25 362.5 l 1
 437.5 362.5 l 1
 437.5 237.5 l 1
 437.5 112.5 l 1
 406.25 112.5 l 1
 375 112.5 l 1
 375 81.25 l 1
 375 50 l 1
 250 50 l 1
 125 50 l 1
 125 81.25 l 1
 125 112.5 l 1
 93.75 112.5 l 1
 62.5 112.5 l 1
 62.5 362.5 l 1
 62.5 612.5 l 1
 93.75 612.5 l 1
 125 612.5 l 1
 125 643.75 l 1
375 237.5 m 1
 375 362.5 l 1
 281.25 362.5 l 1
 187.5 362.5 l 1
 187.5 331.25 l 1
 187.5 300 l 1
 156.25 300 l 1
 125 300 l 1
 125 206.25 l 1
 125 112.5 l 1
 250 112.5 l 1
 375 112.5 l 1
 375 237.5 l 1
EndSplineSet
Validated: 524805
EndChar

StartChar: U+0037
Encoding: 55 55 60
Width: 480
VWidth: 0
Flags: HW
LayerCount: 2
Back
Fore
SplineSet
62.5 643.75 m 1
 62.5 675 l 1
 250 675 l 1
 437.5 675 l 1
 437.5 612.5 l 1
 437.5 550 l 1
 406.25 550 l 1
 375 550 l 1
 375 487.5 l 1
 375 425 l 1
 343.75 425 l 1
 312.5 425 l 1
 312.5 362.5 l 1
 312.5 300 l 1
 281.25 300 l 1
 250 300 l 1
 250 237.5 l 1
 250 175 l 1
 218.75 175 l 1
 187.5 175 l 1
 187.5 112.5 l 1
 187.5 50 l 1
 156.25 50 l 1
 125 50 l 1
 125 112.5 l 1
 125 175 l 1
 156.25 175 l 1
 187.5 175 l 1
 187.5 237.5 l 1
 187.5 300 l 1
 218.75 300 l 1
 250 300 l 1
 250 362.5 l 1
 250 425 l 1
 281.25 425 l 1
 312.5 425 l 1
 312.5 487.5 l 1
 312.5 550 l 1
 343.75 550 l 1
 375 550 l 1
 375 581.25 l 1
 375 612.5 l 1
 218.75 612.5 l 1
 62.5 612.5 l 1
 62.5 643.75 l 1
EndSplineSet
Validated: 524805
EndChar

StartChar: U+0038
Encoding: 56 56 61
Width: 480
VWidth: 0
Flags: HW
LayerCount: 2
Back
Fore
SplineSet
125 643.75 m 1
 125 675 l 1
 250 675 l 1
 375 675 l 1
 375 643.75 l 1
 375 612.5 l 1
 406.25 612.5 l 1
 437.5 612.5 l 1
 437.5 518.75 l 1
 437.5 425 l 1
 406.25 425 l 1
 375 425 l 1
 375 393.75 l 1
 375 362.5 l 1
 406.25 362.5 l 1
 437.5 362.5 l 1
 437.5 237.5 l 1
 437.5 112.5 l 1
 406.25 112.5 l 1
 375 112.5 l 1
 375 81.25 l 1
 375 50 l 1
 250 50 l 1
 125 50 l 1
 125 81.25 l 1
 125 112.5 l 1
 93.75 112.5 l 1
 62.5 112.5 l 1
 62.5 237.5 l 1
 62.5 362.5 l 1
 93.75 362.5 l 1
 125 362.5 l 1
 125 393.75 l 1
 125 425 l 1
 93.75 425 l 1
 62.5 425 l 1
 62.5 518.75 l 1
 62.5 612.5 l 1
 93.75 612.5 l 1
 125 612.5 l 1
 125 643.75 l 1
375 518.75 m 1
 375 612.5 l 1
 250 612.5 l 1
 125 612.5 l 1
 125 518.75 l 1
 125 425 l 1
 250 425 l 1
 375 425 l 1
 375 518.75 l 1
375 237.5 m 1
 375 362.5 l 1
 250 362.5 l 1
 125 362.5 l 1
 125 237.5 l 1
 125 112.5 l 1
 250 112.5 l 1
 375 112.5 l 1
 375 237.5 l 1
EndSplineSet
Validated: 524805
EndChar

StartChar: U+0039
Encoding: 57 57 62
Width: 480
VWidth: 0
Flags: HW
LayerCount: 2
Back
Fore
SplineSet
125 643.75 m 1
 125 675 l 1
 250 675 l 1
 375 675 l 1
 375 643.75 l 1
 375 612.5 l 1
 406.25 612.5 l 1
 437.5 612.5 l 1
 437.5 362.5 l 1
 437.5 112.5 l 1
 406.25 112.5 l 1
 375 112.5 l 1
 375 81.25 l 1
 375 50 l 1
 250 50 l 1
 125 50 l 1
 125 81.25 l 1
 125 112.5 l 1
 93.75 112.5 l 1
 62.5 112.5 l 1
 62.5 143.75 l 1
 62.5 175 l 1
 93.75 175 l 1
 125 175 l 1
 125 143.75 l 1
 125 112.5 l 1
 250 112.5 l 1
 375 112.5 l 1
 375 237.5 l 1
 375 362.5 l 1
 343.75 362.5 l 1
 312.5 362.5 l 1
 312.5 331.25 l 1
 312.5 300 l 1
 218.75 300 l 1
 125 300 l 1
 125 331.25 l 1
 125 362.5 l 1
 93.75 362.5 l 1
 62.5 362.5 l 1
 62.5 487.5 l 1
 62.5 612.5 l 1
 93.75 612.5 l 1
 125 612.5 l 1
 125 643.75 l 1
375 518.75 m 1
 375 612.5 l 1
 250 612.5 l 1
 125 612.5 l 1
 125 487.5 l 1
 125 362.5 l 1
 218.75 362.5 l 1
 312.5 362.5 l 1
 312.5 393.75 l 1
 312.5 425 l 1
 343.75 425 l 1
 375 425 l 1
 375 518.75 l 1
EndSplineSet
Validated: 524805
EndChar

StartChar: U+003a
Encoding: 58 58 63
Width: 480
VWidth: 0
Flags: HW
LayerCount: 2
Back
Fore
SplineSet
187.5 143.75 m 1
 187.5 175 l 1
 218.75 175 l 1
 250 175 l 1
 250 143.75 l 1
 250 112.5 l 1
 281.25 112.5 l 1
 312.5 112.5 l 1
 312.5 81.25 l 1
 312.5 50 l 1
 281.25 50 l 1
 250 50 l 1
 250 18.75 l 1
 250 -12.5 l 1
 218.75 -12.5 l 1
 187.5 -12.5 l 1
 187.5 18.75 l 1
 187.5 50 l 1
 156.25 50 l 1
 125 50 l 1
 125 81.25 l 1
 125 112.5 l 1
 156.25 112.5 l 1
 187.5 112.5 l 1
 187.5 143.75 l 1
187.5 518.75 m 1
 187.5 550 l 1
 218.75 550 l 1
 250 550 l 1
 250 518.75 l 1
 250 487.5 l 1
 281.25 487.5 l 1
 312.5 487.5 l 1
 312.5 456.25 l 1
 312.5 425 l 1
 281.25 425 l 1
 250 425 l 1
 250 393.75 l 1
 250 362.5 l 1
 218.75 362.5 l 1
 187.5 362.5 l 1
 187.5 393.75 l 1
 187.5 425 l 1
 156.25 425 l 1
 125 425 l 1
 125 456.25 l 1
 125 487.5 l 1
 156.25 487.5 l 1
 187.5 487.5 l 1
 187.5 518.75 l 1
EndSplineSet
Validated: 524801
EndChar

StartChar: U+003b
Encoding: 59 59 64
Width: 480
VWidth: 0
Flags: HW
LayerCount: 2
Back
Fore
SplineSet
187.5 143.75 m 1
 187.5 175 l 1
 250 175 l 1
 312.5 175 l 1
 312.5 143.75 l 1
 312.5 112.5 l 1
 281.25 112.5 l 1
 250 112.5 l 1
 250 81.25 l 1
 250 50 l 1
 218.75 50 l 1
 187.5 50 l 1
 187.5 18.75 l 1
 187.5 -12.5 l 1
 156.25 -12.5 l 1
 125 -12.5 l 1
 125 -43.75 l 1
 125 -75 l 1
 93.75 -75 l 1
 62.5 -75 l 1
 62.5 -43.75 l 1
 62.5 -12.5 l 1
 93.75 -12.5 l 1
 125 -12.5 l 1
 125 50 l 1
 125 112.5 l 1
 156.25 112.5 l 1
 187.5 112.5 l 1
 187.5 143.75 l 1
187.5 518.75 m 1
 187.5 550 l 1
 218.75 550 l 1
 250 550 l 1
 250 518.75 l 1
 250 487.5 l 1
 281.25 487.5 l 1
 312.5 487.5 l 1
 312.5 456.25 l 1
 312.5 425 l 1
 281.25 425 l 1
 250 425 l 1
 250 393.75 l 1
 250 362.5 l 1
 218.75 362.5 l 1
 187.5 362.5 l 1
 187.5 393.75 l 1
 187.5 425 l 1
 156.25 425 l 1
 125 425 l 1
 125 456.25 l 1
 125 487.5 l 1
 156.25 487.5 l 1
 187.5 487.5 l 1
 187.5 518.75 l 1
EndSplineSet
Validated: 524805
EndChar

StartChar: U+003c
Encoding: 60 60 65
Width: 480
VWidth: 0
Flags: HW
LayerCount: 2
Back
Fore
SplineSet
312.5 581.25 m 1
 312.5 612.5 l 1
 343.75 612.5 l 1
 375 612.5 l 1
 375 581.25 l 1
 375 550 l 1
 343.75 550 l 1
 312.5 550 l 1
 312.5 518.75 l 1
 312.5 487.5 l 1
 281.25 487.5 l 1
 250 487.5 l 1
 250 456.25 l 1
 250 425 l 1
 218.75 425 l 1
 187.5 425 l 1
 187.5 393.75 l 1
 187.5 362.5 l 1
 156.25 362.5 l 1
 125 362.5 l 1
 125 331.25 l 1
 125 300 l 1
 156.25 300 l 1
 187.5 300 l 1
 187.5 268.75 l 1
 187.5 237.5 l 1
 218.75 237.5 l 1
 250 237.5 l 1
 250 206.25 l 1
 250 175 l 1
 281.25 175 l 1
 312.5 175 l 1
 312.5 143.75 l 1
 312.5 112.5 l 1
 343.75 112.5 l 1
 375 112.5 l 1
 375 81.25 l 1
 375 50 l 1
 343.75 50 l 1
 312.5 50 l 1
 312.5 81.25 l 1
 312.5 112.5 l 1
 281.25 112.5 l 1
 250 112.5 l 1
 250 143.75 l 1
 250 175 l 1
 218.75 175 l 1
 187.5 175 l 1
 187.5 206.25 l 1
 187.5 237.5 l 1
 156.25 237.5 l 1
 125 237.5 l 1
 125 268.75 l 1
 125 300 l 1
 93.75 300 l 1
 62.5 300 l 1
 62.5 331.25 l 1
 62.5 362.5 l 1
 93.75 362.5 l 1
 125 362.5 l 1
 125 393.75 l 1
 125 425 l 1
 156.25 425 l 1
 187.5 425 l 1
 187.5 456.25 l 1
 187.5 487.5 l 1
 218.75 487.5 l 1
 250 487.5 l 1
 250 518.75 l 1
 250 550 l 1
 281.25 550 l 1
 312.5 550 l 1
 312.5 581.25 l 1
EndSplineSet
Validated: 524805
EndChar

StartChar: U+003d
Encoding: 61 61 66
Width: 480
VWidth: 0
Flags: HW
LayerCount: 2
Back
Fore
SplineSet
62.5 206.25 m 1
 62.5 237.5 l 1
 250 237.5 l 1
 437.5 237.5 l 1
 437.5 206.25 l 1
 437.5 175 l 1
 250 175 l 1
 62.5 175 l 1
 62.5 206.25 l 1
62.5 393.75 m 1
 62.5 425 l 1
 250 425 l 1
 437.5 425 l 1
 437.5 393.75 l 1
 437.5 362.5 l 1
 250 362.5 l 1
 62.5 362.5 l 1
 62.5 393.75 l 1
EndSplineSet
Validated: 524801
EndChar

StartChar: U+003e
Encoding: 62 62 67
Width: 480
VWidth: 0
Flags: HW
LayerCount: 2
Back
Fore
SplineSet
125 581.25 m 1
 125 612.5 l 1
 156.25 612.5 l 1
 187.5 612.5 l 1
 187.5 581.25 l 1
 187.5 550 l 1
 218.75 550 l 1
 250 550 l 1
 250 518.75 l 1
 250 487.5 l 1
 281.25 487.5 l 1
 312.5 487.5 l 1
 312.5 456.25 l 1
 312.5 425 l 1
 343.75 425 l 1
 375 425 l 1
 375 393.75 l 1
 375 362.5 l 1
 406.25 362.5 l 1
 437.5 362.5 l 1
 437.5 331.25 l 1
 437.5 300 l 1
 406.25 300 l 1
 375 300 l 1
 375 268.75 l 1
 375 237.5 l 1
 343.75 237.5 l 1
 312.5 237.5 l 1
 312.5 206.25 l 1
 312.5 175 l 1
 281.25 175 l 1
 250 175 l 1
 250 143.75 l 1
 250 112.5 l 1
 218.75 112.5 l 1
 187.5 112.5 l 1
 187.5 81.25 l 1
 187.5 50 l 1
 156.25 50 l 1
 125 50 l 1
 125 81.25 l 1
 125 112.5 l 1
 156.25 112.5 l 1
 187.5 112.5 l 1
 187.5 143.75 l 1
 187.5 175 l 1
 218.75 175 l 1
 250 175 l 1
 250 206.25 l 1
 250 237.5 l 1
 281.25 237.5 l 1
 312.5 237.5 l 1
 312.5 268.75 l 1
 312.5 300 l 1
 343.75 300 l 1
 375 300 l 1
 375 331.25 l 1
 375 362.5 l 1
 343.75 362.5 l 1
 312.5 362.5 l 1
 312.5 393.75 l 1
 312.5 425 l 1
 281.25 425 l 1
 250 425 l 1
 250 456.25 l 1
 250 487.5 l 1
 218.75 487.5 l 1
 187.5 487.5 l 1
 187.5 518.75 l 1
 187.5 550 l 1
 156.25 550 l 1
 125 550 l 1
 125 581.25 l 1
EndSplineSet
Validated: 524805
EndChar

StartChar: U+003f
Encoding: 63 63 68
Width: 480
VWidth: 0
Flags: HW
LayerCount: 2
Back
Fore
SplineSet
125 112.5 m 1
 125 175 l 1
 156.25 175 l 1
 187.5 175 l 1
 187.5 112.5 l 1
 187.5 50 l 1
 156.25 50 l 1
 125 50 l 1
 125 112.5 l 1
62.5 643.75 m 1
 62.5 675 l 1
 187.5 675 l 1
 312.5 675 l 1
 312.5 643.75 l 1
 312.5 612.5 l 1
 343.75 612.5 l 1
 375 612.5 l 1
 375 550 l 1
 375 487.5 l 1
 343.75 487.5 l 1
 312.5 487.5 l 1
 312.5 456.25 l 1
 312.5 425 l 1
 281.25 425 l 1
 250 425 l 1
 250 393.75 l 1
 250 362.5 l 1
 218.75 362.5 l 1
 187.5 362.5 l 1
 187.5 300 l 1
 187.5 237.5 l 1
 156.25 237.5 l 1
 125 237.5 l 1
 125 300 l 1
 125 362.5 l 1
 156.25 362.5 l 1
 187.5 362.5 l 1
 187.5 393.75 l 1
 187.5 425 l 1
 218.75 425 l 1
 250 425 l 1
 250 456.25 l 1
 250 487.5 l 1
 281.25 487.5 l 1
 312.5 487.5 l 1
 312.5 550 l 1
 312.5 612.5 l 1
 187.5 612.5 l 1
 62.5 612.5 l 1
 62.5 643.75 l 1
EndSplineSet
Validated: 524805
EndChar

StartChar: U+0040
Encoding: 64 64 69
Width: 480
VWidth: 0
Flags: HW
LayerCount: 2
Back
Fore
SplineSet
187.5 643.75 m 1
 187.5 675 l 1
 281.25 675 l 1
 375 675 l 1
 375 643.75 l 1
 375 612.5 l 1
 406.25 612.5 l 1
 437.5 612.5 l 1
 437.5 393.75 l 1
 437.5 175 l 1
 343.75 175 l 1
 250 175 l 1
 250 206.25 l 1
 250 237.5 l 1
 218.75 237.5 l 1
 187.5 237.5 l 1
 187.5 331.25 l 1
 187.5 425 l 1
 218.75 425 l 1
 250 425 l 1
 250 456.25 l 1
 250 487.5 l 1
 312.5 487.5 l 1
 375 487.5 l 1
 375 550 l 1
 375 612.5 l 1
 281.25 612.5 l 1
 187.5 612.5 l 1
 187.5 581.25 l 1
 187.5 550 l 1
 156.25 550 l 1
 125 550 l 1
 125 362.5 l 1
 125 175 l 1
 156.25 175 l 1
 187.5 175 l 1
 187.5 143.75 l 1
 187.5 112.5 l 1
 281.25 112.5 l 1
 375 112.5 l 1
 375 81.25 l 1
 375 50 l 1
 281.25 50 l 1
 187.5 50 l 1
 187.5 81.25 l 1
 187.5 112.5 l 1
 156.25 112.5 l 1
 125 112.5 l 1
 125 143.75 l 1
 125 175 l 1
 93.75 175 l 1
 62.5 175 l 1
 62.5 362.5 l 1
 62.5 550 l 1
 93.75 550 l 1
 125 550 l 1
 125 581.25 l 1
 125 612.5 l 1
 156.25 612.5 l 1
 187.5 612.5 l 1
 187.5 643.75 l 1
375 331.25 m 1
 375 425 l 1
 312.5 425 l 1
 250 425 l 1
 250 331.25 l 1
 250 237.5 l 1
 312.5 237.5 l 1
 375 237.5 l 1
 375 331.25 l 1
EndSplineSet
Validated: 524805
EndChar

StartChar: U+0041
Encoding: 65 65 70
Width: 480
VWidth: 0
Flags: HW
LayerCount: 2
Back
Fore
SplineSet
125 643.75 m 1
 125 675 l 1
 250 675 l 1
 375 675 l 1
 375 643.75 l 1
 375 612.5 l 1
 406.25 612.5 l 1
 437.5 612.5 l 1
 437.5 331.25 l 1
 437.5 50 l 1
 406.25 50 l 1
 375 50 l 1
 375 175 l 1
 375 300 l 1
 250 300 l 1
 125 300 l 1
 125 175 l 1
 125 50 l 1
 93.75 50 l 1
 62.5 50 l 1
 62.5 331.25 l 1
 62.5 612.5 l 1
 93.75 612.5 l 1
 125 612.5 l 1
 125 643.75 l 1
375 487.5 m 1
 375 612.5 l 1
 250 612.5 l 1
 125 612.5 l 1
 125 487.5 l 1
 125 362.5 l 1
 250 362.5 l 1
 375 362.5 l 1
 375 487.5 l 1
EndSplineSet
Validated: 524805
EndChar

StartChar: U+0042
Encoding: 66 66 71
Width: 480
VWidth: 0
Flags: HW
LayerCount: 2
Back
Fore
SplineSet
62.5 362.5 m 1
 62.5 675 l 1
 187.5 675 l 1
 312.5 675 l 1
 312.5 643.75 l 1
 312.5 612.5 l 1
 343.75 612.5 l 1
 375 612.5 l 1
 375 487.5 l 1
 375 362.5 l 1
 406.25 362.5 l 1
 437.5 362.5 l 1
 437.5 237.5 l 1
 437.5 112.5 l 1
 406.25 112.5 l 1
 375 112.5 l 1
 375 81.25 l 1
 375 50 l 1
 218.75 50 l 1
 62.5 50 l 1
 62.5 362.5 l 1
312.5 518.75 m 1
 312.5 612.5 l 1
 218.75 612.5 l 1
 125 612.5 l 1
 125 518.75 l 1
 125 425 l 1
 218.75 425 l 1
 312.5 425 l 1
 312.5 518.75 l 1
375 237.5 m 1
 375 362.5 l 1
 250 362.5 l 1
 125 362.5 l 1
 125 237.5 l 1
 125 112.5 l 1
 250 112.5 l 1
 375 112.5 l 1
 375 237.5 l 1
EndSplineSet
Validated: 524805
EndChar

StartChar: U+0043
Encoding: 67 67 72
Width: 480
VWidth: 0
Flags: HW
LayerCount: 2
Back
Fore
SplineSet
125 643.75 m 1
 125 675 l 1
 250 675 l 1
 375 675 l 1
 375 643.75 l 1
 375 612.5 l 1
 406.25 612.5 l 1
 437.5 612.5 l 1
 437.5 550 l 1
 437.5 487.5 l 1
 406.25 487.5 l 1
 375 487.5 l 1
 375 550 l 1
 375 612.5 l 1
 250 612.5 l 1
 125 612.5 l 1
 125 362.5 l 1
 125 112.5 l 1
 250 112.5 l 1
 375 112.5 l 1
 375 175 l 1
 375 237.5 l 1
 406.25 237.5 l 1
 437.5 237.5 l 1
 437.5 175 l 1
 437.5 112.5 l 1
 406.25 112.5 l 1
 375 112.5 l 1
 375 81.25 l 1
 375 50 l 1
 250 50 l 1
 125 50 l 1
 125 81.25 l 1
 125 112.5 l 1
 93.75 112.5 l 1
 62.5 112.5 l 1
 62.5 362.5 l 1
 62.5 612.5 l 1
 93.75 612.5 l 1
 125 612.5 l 1
 125 643.75 l 1
EndSplineSet
Validated: 524805
EndChar

StartChar: U+0044
Encoding: 68 68 73
Width: 480
VWidth: 0
Flags: HW
LayerCount: 2
Back
Fore
SplineSet
62.5 362.5 m 1
 62.5 675 l 1
 187.5 675 l 1
 312.5 675 l 1
 312.5 643.75 l 1
 312.5 612.5 l 1
 343.75 612.5 l 1
 375 612.5 l 1
 375 581.25 l 1
 375 550 l 1
 406.25 550 l 1
 437.5 550 l 1
 437.5 362.5 l 1
 437.5 175 l 1
 406.25 175 l 1
 375 175 l 1
 375 143.75 l 1
 375 112.5 l 1
 343.75 112.5 l 1
 312.5 112.5 l 1
 312.5 81.25 l 1
 312.5 50 l 1
 187.5 50 l 1
 62.5 50 l 1
 62.5 362.5 l 1
312.5 581.25 m 1
 312.5 612.5 l 1
 218.75 612.5 l 1
 125 612.5 l 1
 125 362.5 l 1
 125 112.5 l 1
 218.75 112.5 l 1
 312.5 112.5 l 1
 312.5 143.75 l 1
 312.5 175 l 1
 343.75 175 l 1
 375 175 l 1
 375 362.5 l 1
 375 550 l 1
 343.75 550 l 1
 312.5 550 l 1
 312.5 581.25 l 1
EndSplineSet
Validated: 524805
EndChar

StartChar: U+0045
Encoding: 69 69 74
Width: 480
VWidth: 0
Flags: HW
LayerCount: 2
Back
Fore
SplineSet
62.5 362.5 m 1
 62.5 675 l 1
 250 675 l 1
 437.5 675 l 1
 437.5 643.75 l 1
 437.5 612.5 l 1
 281.25 612.5 l 1
 125 612.5 l 1
 125 518.75 l 1
 125 425 l 1
 250 425 l 1
 375 425 l 1
 375 393.75 l 1
 375 362.5 l 1
 250 362.5 l 1
 125 362.5 l 1
 125 237.5 l 1
 125 112.5 l 1
 281.25 112.5 l 1
 437.5 112.5 l 1
 437.5 81.25 l 1
 437.5 50 l 1
 250 50 l 1
 62.5 50 l 1
 62.5 362.5 l 1
EndSplineSet
Validated: 524801
EndChar

StartChar: U+0046
Encoding: 70 70 75
Width: 480
VWidth: 0
Flags: HW
LayerCount: 2
Back
Fore
SplineSet
62.5 362.5 m 1
 62.5 675 l 1
 250 675 l 1
 437.5 675 l 1
 437.5 643.75 l 1
 437.5 612.5 l 1
 281.25 612.5 l 1
 125 612.5 l 1
 125 518.75 l 1
 125 425 l 1
 250 425 l 1
 375 425 l 1
 375 393.75 l 1
 375 362.5 l 1
 250 362.5 l 1
 125 362.5 l 1
 125 206.25 l 1
 125 50 l 1
 93.75 50 l 1
 62.5 50 l 1
 62.5 362.5 l 1
EndSplineSet
Validated: 524801
EndChar

StartChar: U+0047
Encoding: 71 71 76
Width: 480
VWidth: 0
Flags: HW
LayerCount: 2
Back
Fore
SplineSet
125 643.75 m 1
 125 675 l 1
 250 675 l 1
 375 675 l 1
 375 643.75 l 1
 375 612.5 l 1
 406.25 612.5 l 1
 437.5 612.5 l 1
 437.5 550 l 1
 437.5 487.5 l 1
 406.25 487.5 l 1
 375 487.5 l 1
 375 550 l 1
 375 612.5 l 1
 250 612.5 l 1
 125 612.5 l 1
 125 362.5 l 1
 125 112.5 l 1
 250 112.5 l 1
 375 112.5 l 1
 375 206.25 l 1
 375 300 l 1
 312.5 300 l 1
 250 300 l 1
 250 331.25 l 1
 250 362.5 l 1
 343.75 362.5 l 1
 437.5 362.5 l 1
 437.5 237.5 l 1
 437.5 112.5 l 1
 406.25 112.5 l 1
 375 112.5 l 1
 375 81.25 l 1
 375 50 l 1
 250 50 l 1
 125 50 l 1
 125 81.25 l 1
 125 112.5 l 1
 93.75 112.5 l 1
 62.5 112.5 l 1
 62.5 362.5 l 1
 62.5 612.5 l 1
 93.75 612.5 l 1
 125 612.5 l 1
 125 643.75 l 1
EndSplineSet
Validated: 524805
EndChar

StartChar: U+0048
Encoding: 72 72 77
Width: 480
VWidth: 0
Flags: HW
LayerCount: 2
Back
Fore
SplineSet
62.5 362.5 m 1
 62.5 675 l 1
 93.75 675 l 1
 125 675 l 1
 125 550 l 1
 125 425 l 1
 250 425 l 1
 375 425 l 1
 375 550 l 1
 375 675 l 1
 406.25 675 l 1
 437.5 675 l 1
 437.5 362.5 l 1
 437.5 50 l 1
 406.25 50 l 1
 375 50 l 1
 375 206.25 l 1
 375 362.5 l 1
 250 362.5 l 1
 125 362.5 l 1
 125 206.25 l 1
 125 50 l 1
 93.75 50 l 1
 62.5 50 l 1
 62.5 362.5 l 1
EndSplineSet
Validated: 524801
EndChar

StartChar: U+0049
Encoding: 73 73 78
Width: 480
VWidth: 0
Flags: HW
LayerCount: 2
Back
Fore
SplineSet
62.5 643.75 m 1
 62.5 675 l 1
 218.75 675 l 1
 375 675 l 1
 375 643.75 l 1
 375 612.5 l 1
 312.5 612.5 l 1
 250 612.5 l 1
 250 362.5 l 1
 250 112.5 l 1
 312.5 112.5 l 1
 375 112.5 l 1
 375 81.25 l 1
 375 50 l 1
 218.75 50 l 1
 62.5 50 l 1
 62.5 81.25 l 1
 62.5 112.5 l 1
 125 112.5 l 1
 187.5 112.5 l 1
 187.5 362.5 l 1
 187.5 612.5 l 1
 125 612.5 l 1
 62.5 612.5 l 1
 62.5 643.75 l 1
EndSplineSet
Validated: 524801
EndChar

StartChar: U+004a
Encoding: 74 74 79
Width: 480
VWidth: 0
Flags: HW
LayerCount: 2
Back
Fore
SplineSet
187.5 643.75 m 1
 187.5 675 l 1
 312.5 675 l 1
 437.5 675 l 1
 437.5 393.75 l 1
 437.5 112.5 l 1
 406.25 112.5 l 1
 375 112.5 l 1
 375 81.25 l 1
 375 50 l 1
 250 50 l 1
 125 50 l 1
 125 81.25 l 1
 125 112.5 l 1
 93.75 112.5 l 1
 62.5 112.5 l 1
 62.5 175 l 1
 62.5 237.5 l 1
 93.75 237.5 l 1
 125 237.5 l 1
 125 175 l 1
 125 112.5 l 1
 250 112.5 l 1
 375 112.5 l 1
 375 362.5 l 1
 375 612.5 l 1
 281.25 612.5 l 1
 187.5 612.5 l 1
 187.5 643.75 l 1
EndSplineSet
Validated: 524805
EndChar

StartChar: U+004b
Encoding: 75 75 80
Width: 480
VWidth: 0
Flags: HW
LayerCount: 2
Back
Fore
SplineSet
62.5 362.5 m 1
 62.5 675 l 1
 93.75 675 l 1
 125 675 l 1
 125 550 l 1
 125 425 l 1
 156.25 425 l 1
 187.5 425 l 1
 187.5 456.25 l 1
 187.5 487.5 l 1
 218.75 487.5 l 1
 250 487.5 l 1
 250 518.75 l 1
 250 550 l 1
 281.25 550 l 1
 312.5 550 l 1
 312.5 581.25 l 1
 312.5 612.5 l 1
 343.75 612.5 l 1
 375 612.5 l 1
 375 643.75 l 1
 375 675 l 1
 406.25 675 l 1
 437.5 675 l 1
 437.5 643.75 l 1
 437.5 612.5 l 1
 406.25 612.5 l 1
 375 612.5 l 1
 375 581.25 l 1
 375 550 l 1
 343.75 550 l 1
 312.5 550 l 1
 312.5 518.75 l 1
 312.5 487.5 l 1
 281.25 487.5 l 1
 250 487.5 l 1
 250 456.25 l 1
 250 425 l 1
 281.25 425 l 1
 312.5 425 l 1
 312.5 362.5 l 1
 312.5 300 l 1
 343.75 300 l 1
 375 300 l 1
 375 237.5 l 1
 375 175 l 1
 406.25 175 l 1
 437.5 175 l 1
 437.5 112.5 l 1
 437.5 50 l 1
 406.25 50 l 1
 375 50 l 1
 375 112.5 l 1
 375 175 l 1
 343.75 175 l 1
 312.5 175 l 1
 312.5 237.5 l 1
 312.5 300 l 1
 281.25 300 l 1
 250 300 l 1
 250 362.5 l 1
 250 425 l 1
 218.75 425 l 1
 187.5 425 l 1
 187.5 393.75 l 1
 187.5 362.5 l 1
 156.25 362.5 l 1
 125 362.5 l 1
 125 206.25 l 1
 125 50 l 1
 93.75 50 l 1
 62.5 50 l 1
 62.5 362.5 l 1
EndSplineSet
Validated: 524805
EndChar

StartChar: U+004c
Encoding: 76 76 81
Width: 480
VWidth: 0
Flags: HW
LayerCount: 2
Back
Fore
SplineSet
62.5 362.5 m 1
 62.5 675 l 1
 93.75 675 l 1
 125 675 l 1
 125 393.75 l 1
 125 112.5 l 1
 281.25 112.5 l 1
 437.5 112.5 l 1
 437.5 81.25 l 1
 437.5 50 l 1
 250 50 l 1
 62.5 50 l 1
 62.5 362.5 l 1
EndSplineSet
Validated: 524801
EndChar

StartChar: U+004d
Encoding: 77 77 82
Width: 480
VWidth: 0
Flags: HW
LayerCount: 2
Back
Fore
SplineSet
62.5 362.5 m 1
 62.5 675 l 1
 93.75 675 l 1
 125 675 l 1
 125 643.75 l 1
 125 612.5 l 1
 156.25 612.5 l 1
 187.5 612.5 l 1
 187.5 550 l 1
 187.5 487.5 l 1
 218.75 487.5 l 1
 250 487.5 l 1
 250 425 l 1
 250 362.5 l 1
 281.25 362.5 l 1
 312.5 362.5 l 1
 312.5 425 l 1
 312.5 487.5 l 1
 343.75 487.5 l 1
 375 487.5 l 1
 375 550 l 1
 375 612.5 l 1
 406.25 612.5 l 1
 437.5 612.5 l 1
 437.5 643.75 l 1
 437.5 675 l 1
 468.75 675 l 1
 500 675 l 1
 500 362.5 l 1
 500 50 l 1
 468.75 50 l 1
 437.5 50 l 1
 437.5 268.75 l 1
 437.5 487.5 l 1
 406.25 487.5 l 1
 375 487.5 l 1
 375 425 l 1
 375 362.5 l 1
 343.75 362.5 l 1
 312.5 362.5 l 1
 312.5 300 l 1
 312.5 237.5 l 1
 281.25 237.5 l 1
 250 237.5 l 1
 250 300 l 1
 250 362.5 l 1
 218.75 362.5 l 1
 187.5 362.5 l 1
 187.5 425 l 1
 187.5 487.5 l 1
 156.25 487.5 l 1
 125 487.5 l 1
 125 268.75 l 1
 125 50 l 1
 93.75 50 l 1
 62.5 50 l 1
 62.5 362.5 l 1
EndSplineSet
Validated: 524805
EndChar

StartChar: U+004e
Encoding: 78 78 83
Width: 480
VWidth: 0
Flags: HW
LayerCount: 2
Back
Fore
SplineSet
62.5 362.5 m 1
 62.5 675 l 1
 93.75 675 l 1
 125 675 l 1
 125 643.75 l 1
 125 612.5 l 1
 156.25 612.5 l 1
 187.5 612.5 l 1
 187.5 550 l 1
 187.5 487.5 l 1
 218.75 487.5 l 1
 250 487.5 l 1
 250 425 l 1
 250 362.5 l 1
 281.25 362.5 l 1
 312.5 362.5 l 1
 312.5 300 l 1
 312.5 237.5 l 1
 343.75 237.5 l 1
 375 237.5 l 1
 375 456.25 l 1
 375 675 l 1
 406.25 675 l 1
 437.5 675 l 1
 437.5 362.5 l 1
 437.5 50 l 1
 406.25 50 l 1
 375 50 l 1
 375 81.25 l 1
 375 112.5 l 1
 343.75 112.5 l 1
 312.5 112.5 l 1
 312.5 175 l 1
 312.5 237.5 l 1
 281.25 237.5 l 1
 250 237.5 l 1
 250 300 l 1
 250 362.5 l 1
 218.75 362.5 l 1
 187.5 362.5 l 1
 187.5 425 l 1
 187.5 487.5 l 1
 156.25 487.5 l 1
 125 487.5 l 1
 125 268.75 l 1
 125 50 l 1
 93.75 50 l 1
 62.5 50 l 1
 62.5 362.5 l 1
EndSplineSet
Validated: 524805
EndChar

StartChar: U+004f
Encoding: 79 79 84
Width: 480
VWidth: 0
Flags: HW
LayerCount: 2
Back
Fore
SplineSet
125 643.75 m 1
 125 675 l 1
 250 675 l 1
 375 675 l 1
 375 643.75 l 1
 375 612.5 l 1
 406.25 612.5 l 1
 437.5 612.5 l 1
 437.5 362.5 l 1
 437.5 112.5 l 1
 406.25 112.5 l 1
 375 112.5 l 1
 375 81.25 l 1
 375 50 l 1
 250 50 l 1
 125 50 l 1
 125 81.25 l 1
 125 112.5 l 1
 93.75 112.5 l 1
 62.5 112.5 l 1
 62.5 362.5 l 1
 62.5 612.5 l 1
 93.75 612.5 l 1
 125 612.5 l 1
 125 643.75 l 1
375 362.5 m 1
 375 612.5 l 1
 250 612.5 l 1
 125 612.5 l 1
 125 362.5 l 1
 125 112.5 l 1
 250 112.5 l 1
 375 112.5 l 1
 375 362.5 l 1
EndSplineSet
Validated: 524805
EndChar

StartChar: U+0050
Encoding: 80 80 85
Width: 480
VWidth: 0
Flags: HW
LayerCount: 2
Back
Fore
SplineSet
62.5 362.5 m 1
 62.5 675 l 1
 218.75 675 l 1
 375 675 l 1
 375 643.75 l 1
 375 612.5 l 1
 406.25 612.5 l 1
 437.5 612.5 l 1
 437.5 487.5 l 1
 437.5 362.5 l 1
 406.25 362.5 l 1
 375 362.5 l 1
 375 331.25 l 1
 375 300 l 1
 250 300 l 1
 125 300 l 1
 125 175 l 1
 125 50 l 1
 93.75 50 l 1
 62.5 50 l 1
 62.5 362.5 l 1
375 487.5 m 1
 375 612.5 l 1
 250 612.5 l 1
 125 612.5 l 1
 125 487.5 l 1
 125 362.5 l 1
 250 362.5 l 1
 375 362.5 l 1
 375 487.5 l 1
EndSplineSet
Validated: 524805
EndChar

StartChar: U+0051
Encoding: 81 81 86
Width: 480
VWidth: 0
Flags: HW
LayerCount: 2
Back
Fore
SplineSet
125 643.75 m 1
 125 675 l 1
 250 675 l 1
 375 675 l 1
 375 643.75 l 1
 375 612.5 l 1
 406.25 612.5 l 1
 437.5 612.5 l 1
 437.5 362.5 l 1
 437.5 112.5 l 1
 406.25 112.5 l 1
 375 112.5 l 1
 375 81.25 l 1
 375 50 l 1
 406.25 50 l 1
 437.5 50 l 1
 437.5 18.75 l 1
 437.5 -12.5 l 1
 375 -12.5 l 1
 312.5 -12.5 l 1
 312.5 18.75 l 1
 312.5 50 l 1
 218.75 50 l 1
 125 50 l 1
 125 81.25 l 1
 125 112.5 l 1
 93.75 112.5 l 1
 62.5 112.5 l 1
 62.5 362.5 l 1
 62.5 612.5 l 1
 93.75 612.5 l 1
 125 612.5 l 1
 125 643.75 l 1
375 362.5 m 1
 375 612.5 l 1
 250 612.5 l 1
 125 612.5 l 1
 125 362.5 l 1
 125 112.5 l 1
 187.5 112.5 l 1
 250 112.5 l 1
 250 175 l 1
 250 237.5 l 1
 281.25 237.5 l 1
 312.5 237.5 l 1
 312.5 175 l 1
 312.5 112.5 l 1
 343.75 112.5 l 1
 375 112.5 l 1
 375 362.5 l 1
EndSplineSet
Validated: 524805
EndChar

StartChar: U+0052
Encoding: 82 82 87
Width: 480
VWidth: 0
Flags: HW
LayerCount: 2
Back
Fore
SplineSet
62.5 362.5 m 1
 62.5 675 l 1
 218.75 675 l 1
 375 675 l 1
 375 643.75 l 1
 375 612.5 l 1
 406.25 612.5 l 1
 437.5 612.5 l 1
 437.5 487.5 l 1
 437.5 362.5 l 1
 406.25 362.5 l 1
 375 362.5 l 1
 375 331.25 l 1
 375 300 l 1
 312.5 300 l 1
 250 300 l 1
 250 268.75 l 1
 250 237.5 l 1
 281.25 237.5 l 1
 312.5 237.5 l 1
 312.5 206.25 l 1
 312.5 175 l 1
 343.75 175 l 1
 375 175 l 1
 375 143.75 l 1
 375 112.5 l 1
 406.25 112.5 l 1
 437.5 112.5 l 1
 437.5 81.25 l 1
 437.5 50 l 1
 406.25 50 l 1
 375 50 l 1
 375 81.25 l 1
 375 112.5 l 1
 343.75 112.5 l 1
 312.5 112.5 l 1
 312.5 143.75 l 1
 312.5 175 l 1
 281.25 175 l 1
 250 175 l 1
 250 206.25 l 1
 250 237.5 l 1
 218.75 237.5 l 1
 187.5 237.5 l 1
 187.5 268.75 l 1
 187.5 300 l 1
 156.25 300 l 1
 125 300 l 1
 125 175 l 1
 125 50 l 1
 93.75 50 l 1
 62.5 50 l 1
 62.5 362.5 l 1
375 487.5 m 1
 375 612.5 l 1
 250 612.5 l 1
 125 612.5 l 1
 125 487.5 l 1
 125 362.5 l 1
 250 362.5 l 1
 375 362.5 l 1
 375 487.5 l 1
EndSplineSet
Validated: 524805
EndChar

StartChar: U+0053
Encoding: 83 83 88
Width: 480
VWidth: 0
Flags: HW
LayerCount: 2
Back
Fore
SplineSet
125 643.75 m 1
 125 675 l 1
 250 675 l 1
 375 675 l 1
 375 643.75 l 1
 375 612.5 l 1
 406.25 612.5 l 1
 437.5 612.5 l 1
 437.5 581.25 l 1
 437.5 550 l 1
 406.25 550 l 1
 375 550 l 1
 375 581.25 l 1
 375 612.5 l 1
 250 612.5 l 1
 125 612.5 l 1
 125 518.75 l 1
 125 425 l 1
 187.5 425 l 1
 250 425 l 1
 250 393.75 l 1
 250 362.5 l 1
 312.5 362.5 l 1
 375 362.5 l 1
 375 331.25 l 1
 375 300 l 1
 406.25 300 l 1
 437.5 300 l 1
 437.5 206.25 l 1
 437.5 112.5 l 1
 406.25 112.5 l 1
 375 112.5 l 1
 375 81.25 l 1
 375 50 l 1
 250 50 l 1
 125 50 l 1
 125 81.25 l 1
 125 112.5 l 1
 93.75 112.5 l 1
 62.5 112.5 l 1
 62.5 143.75 l 1
 62.5 175 l 1
 93.75 175 l 1
 125 175 l 1
 125 143.75 l 1
 125 112.5 l 1
 250 112.5 l 1
 375 112.5 l 1
 375 206.25 l 1
 375 300 l 1
 312.5 300 l 1
 250 300 l 1
 250 331.25 l 1
 250 362.5 l 1
 187.5 362.5 l 1
 125 362.5 l 1
 125 393.75 l 1
 125 425 l 1
 93.75 425 l 1
 62.5 425 l 1
 62.5 518.75 l 1
 62.5 612.5 l 1
 93.75 612.5 l 1
 125 612.5 l 1
 125 643.75 l 1
EndSplineSet
Validated: 524805
EndChar

StartChar: U+0054
Encoding: 84 84 89
Width: 480
VWidth: 0
Flags: HW
LayerCount: 2
Back
Fore
SplineSet
62.5 643.75 m 1
 62.5 675 l 1
 281.25 675 l 1
 500 675 l 1
 500 643.75 l 1
 500 612.5 l 1
 406.25 612.5 l 1
 312.5 612.5 l 1
 312.5 331.25 l 1
 312.5 50 l 1
 281.25 50 l 1
 250 50 l 1
 250 331.25 l 1
 250 612.5 l 1
 156.25 612.5 l 1
 62.5 612.5 l 1
 62.5 643.75 l 1
EndSplineSet
Validated: 524801
EndChar

StartChar: U+0055
Encoding: 85 85 90
Width: 480
VWidth: 0
Flags: HW
LayerCount: 2
Back
Fore
SplineSet
62.5 393.75 m 1
 62.5 675 l 1
 93.75 675 l 1
 125 675 l 1
 125 393.75 l 1
 125 112.5 l 1
 250 112.5 l 1
 375 112.5 l 1
 375 393.75 l 1
 375 675 l 1
 406.25 675 l 1
 437.5 675 l 1
 437.5 393.75 l 1
 437.5 112.5 l 1
 406.25 112.5 l 1
 375 112.5 l 1
 375 81.25 l 1
 375 50 l 1
 250 50 l 1
 125 50 l 1
 125 81.25 l 1
 125 112.5 l 1
 93.75 112.5 l 1
 62.5 112.5 l 1
 62.5 393.75 l 1
EndSplineSet
Validated: 524805
EndChar

StartChar: U+0056
Encoding: 86 86 91
Width: 480
VWidth: 0
Flags: HW
LayerCount: 2
Back
Fore
SplineSet
62.5 487.5 m 1
 62.5 675 l 1
 93.75 675 l 1
 125 675 l 1
 125 487.5 l 1
 125 300 l 1
 156.25 300 l 1
 187.5 300 l 1
 187.5 237.5 l 1
 187.5 175 l 1
 250 175 l 1
 312.5 175 l 1
 312.5 237.5 l 1
 312.5 300 l 1
 343.75 300 l 1
 375 300 l 1
 375 487.5 l 1
 375 675 l 1
 406.25 675 l 1
 437.5 675 l 1
 437.5 487.5 l 1
 437.5 300 l 1
 406.25 300 l 1
 375 300 l 1
 375 237.5 l 1
 375 175 l 1
 343.75 175 l 1
 312.5 175 l 1
 312.5 112.5 l 1
 312.5 50 l 1
 250 50 l 1
 187.5 50 l 1
 187.5 112.5 l 1
 187.5 175 l 1
 156.25 175 l 1
 125 175 l 1
 125 237.5 l 1
 125 300 l 1
 93.75 300 l 1
 62.5 300 l 1
 62.5 487.5 l 1
EndSplineSet
Validated: 524805
EndChar

StartChar: U+0057
Encoding: 87 87 92
Width: 480
VWidth: 0
Flags: HW
LayerCount: 2
Back
Fore
SplineSet
62.5 425 m 1
 62.5 675 l 1
 93.75 675 l 1
 125 675 l 1
 125 425 l 1
 125 175 l 1
 156.25 175 l 1
 187.5 175 l 1
 187.5 237.5 l 1
 187.5 300 l 1
 218.75 300 l 1
 250 300 l 1
 250 362.5 l 1
 250 425 l 1
 281.25 425 l 1
 312.5 425 l 1
 312.5 362.5 l 1
 312.5 300 l 1
 343.75 300 l 1
 375 300 l 1
 375 237.5 l 1
 375 175 l 1
 406.25 175 l 1
 437.5 175 l 1
 437.5 425 l 1
 437.5 675 l 1
 468.75 675 l 1
 500 675 l 1
 500 425 l 1
 500 175 l 1
 468.75 175 l 1
 437.5 175 l 1
 437.5 112.5 l 1
 437.5 50 l 1
 406.25 50 l 1
 375 50 l 1
 375 112.5 l 1
 375 175 l 1
 343.75 175 l 1
 312.5 175 l 1
 312.5 237.5 l 1
 312.5 300 l 1
 281.25 300 l 1
 250 300 l 1
 250 237.5 l 1
 250 175 l 1
 218.75 175 l 1
 187.5 175 l 1
 187.5 112.5 l 1
 187.5 50 l 1
 156.25 50 l 1
 125 50 l 1
 125 112.5 l 1
 125 175 l 1
 93.75 175 l 1
 62.5 175 l 1
 62.5 425 l 1
EndSplineSet
Validated: 524805
EndChar

StartChar: U+0058
Encoding: 88 88 93
Width: 480
VWidth: 0
Flags: HW
LayerCount: 2
Back
Fore
SplineSet
62.5 612.5 m 1
 62.5 675 l 1
 93.75 675 l 1
 125 675 l 1
 125 612.5 l 1
 125 550 l 1
 156.25 550 l 1
 187.5 550 l 1
 187.5 487.5 l 1
 187.5 425 l 1
 250 425 l 1
 312.5 425 l 1
 312.5 487.5 l 1
 312.5 550 l 1
 343.75 550 l 1
 375 550 l 1
 375 612.5 l 1
 375 675 l 1
 406.25 675 l 1
 437.5 675 l 1
 437.5 612.5 l 1
 437.5 550 l 1
 406.25 550 l 1
 375 550 l 1
 375 487.5 l 1
 375 425 l 1
 343.75 425 l 1
 312.5 425 l 1
 312.5 362.5 l 1
 312.5 300 l 1
 343.75 300 l 1
 375 300 l 1
 375 237.5 l 1
 375 175 l 1
 406.25 175 l 1
 437.5 175 l 1
 437.5 112.5 l 1
 437.5 50 l 1
 406.25 50 l 1
 375 50 l 1
 375 112.5 l 1
 375 175 l 1
 343.75 175 l 1
 312.5 175 l 1
 312.5 237.5 l 1
 312.5 300 l 1
 250 300 l 1
 187.5 300 l 1
 187.5 237.5 l 1
 187.5 175 l 1
 156.25 175 l 1
 125 175 l 1
 125 112.5 l 1
 125 50 l 1
 93.75 50 l 1
 62.5 50 l 1
 62.5 112.5 l 1
 62.5 175 l 1
 93.75 175 l 1
 125 175 l 1
 125 237.5 l 1
 125 300 l 1
 156.25 300 l 1
 187.5 300 l 1
 187.5 362.5 l 1
 187.5 425 l 1
 156.25 425 l 1
 125 425 l 1
 125 487.5 l 1
 125 550 l 1
 93.75 550 l 1
 62.5 550 l 1
 62.5 612.5 l 1
EndSplineSet
Validated: 524805
EndChar

StartChar: U+0059
Encoding: 89 89 94
Width: 480
VWidth: 0
Flags: HW
LayerCount: 2
Back
Fore
SplineSet
62.5 550 m 1
 62.5 675 l 1
 93.75 675 l 1
 125 675 l 1
 125 550 l 1
 125 425 l 1
 156.25 425 l 1
 187.5 425 l 1
 187.5 393.75 l 1
 187.5 362.5 l 1
 250 362.5 l 1
 312.5 362.5 l 1
 312.5 393.75 l 1
 312.5 425 l 1
 343.75 425 l 1
 375 425 l 1
 375 550 l 1
 375 675 l 1
 406.25 675 l 1
 437.5 675 l 1
 437.5 550 l 1
 437.5 425 l 1
 406.25 425 l 1
 375 425 l 1
 375 393.75 l 1
 375 362.5 l 1
 343.75 362.5 l 1
 312.5 362.5 l 1
 312.5 206.25 l 1
 312.5 50 l 1
 281.25 50 l 1
 250 50 l 1
 250 175 l 1
 250 300 l 1
 218.75 300 l 1
 187.5 300 l 1
 187.5 331.25 l 1
 187.5 362.5 l 1
 156.25 362.5 l 1
 125 362.5 l 1
 125 393.75 l 1
 125 425 l 1
 93.75 425 l 1
 62.5 425 l 1
 62.5 550 l 1
EndSplineSet
Validated: 524805
EndChar

StartChar: U+005a
Encoding: 90 90 95
Width: 480
VWidth: 0
Flags: HW
LayerCount: 2
Back
Fore
SplineSet
62.5 643.75 m 1
 62.5 675 l 1
 250 675 l 1
 437.5 675 l 1
 437.5 612.5 l 1
 437.5 550 l 1
 406.25 550 l 1
 375 550 l 1
 375 487.5 l 1
 375 425 l 1
 343.75 425 l 1
 312.5 425 l 1
 312.5 393.75 l 1
 312.5 362.5 l 1
 281.25 362.5 l 1
 250 362.5 l 1
 250 300 l 1
 250 237.5 l 1
 218.75 237.5 l 1
 187.5 237.5 l 1
 187.5 206.25 l 1
 187.5 175 l 1
 156.25 175 l 1
 125 175 l 1
 125 143.75 l 1
 125 112.5 l 1
 281.25 112.5 l 1
 437.5 112.5 l 1
 437.5 81.25 l 1
 437.5 50 l 1
 250 50 l 1
 62.5 50 l 1
 62.5 112.5 l 1
 62.5 175 l 1
 93.75 175 l 1
 125 175 l 1
 125 206.25 l 1
 125 237.5 l 1
 156.25 237.5 l 1
 187.5 237.5 l 1
 187.5 300 l 1
 187.5 362.5 l 1
 218.75 362.5 l 1
 250 362.5 l 1
 250 393.75 l 1
 250 425 l 1
 281.25 425 l 1
 312.5 425 l 1
 312.5 487.5 l 1
 312.5 550 l 1
 343.75 550 l 1
 375 550 l 1
 375 581.25 l 1
 375 612.5 l 1
 218.75 612.5 l 1
 62.5 612.5 l 1
 62.5 643.75 l 1
EndSplineSet
Validated: 524805
EndChar

StartChar: U+005b
Encoding: 91 91 96
Width: 480
VWidth: 0
Flags: HW
LayerCount: 2
Back
Fore
SplineSet
187.5 331.25 m 1
 187.5 737.5 l 1
 312.5 737.5 l 1
 437.5 737.5 l 1
 437.5 706.25 l 1
 437.5 675 l 1
 343.75 675 l 1
 250 675 l 1
 250 331.25 l 1
 250 -12.5 l 1
 343.75 -12.5 l 1
 437.5 -12.5 l 1
 437.5 -43.75 l 1
 437.5 -75 l 1
 312.5 -75 l 1
 187.5 -75 l 1
 187.5 331.25 l 1
EndSplineSet
Validated: 524801
EndChar

StartChar: U+005c
Encoding: 92 92 97
Width: 480
VWidth: 0
Flags: HW
LayerCount: 2
Back
Fore
SplineSet
62.5 675 m 1
 62.5 737.5 l 1
 93.75 737.5 l 1
 125 737.5 l 1
 125 675 l 1
 125 612.5 l 1
 156.25 612.5 l 1
 187.5 612.5 l 1
 187.5 550 l 1
 187.5 487.5 l 1
 218.75 487.5 l 1
 250 487.5 l 1
 250 425 l 1
 250 362.5 l 1
 281.25 362.5 l 1
 312.5 362.5 l 1
 312.5 300 l 1
 312.5 237.5 l 1
 343.75 237.5 l 1
 375 237.5 l 1
 375 175 l 1
 375 112.5 l 1
 406.25 112.5 l 1
 437.5 112.5 l 1
 437.5 50 l 1
 437.5 -12.5 l 1
 406.25 -12.5 l 1
 375 -12.5 l 1
 375 50 l 1
 375 112.5 l 1
 343.75 112.5 l 1
 312.5 112.5 l 1
 312.5 175 l 1
 312.5 237.5 l 1
 281.25 237.5 l 1
 250 237.5 l 1
 250 300 l 1
 250 362.5 l 1
 218.75 362.5 l 1
 187.5 362.5 l 1
 187.5 425 l 1
 187.5 487.5 l 1
 156.25 487.5 l 1
 125 487.5 l 1
 125 550 l 1
 125 612.5 l 1
 93.75 612.5 l 1
 62.5 612.5 l 1
 62.5 675 l 1
EndSplineSet
Validated: 524805
EndChar

StartChar: U+005d
Encoding: 93 93 98
Width: 480
VWidth: 0
Flags: HW
LayerCount: 2
Back
Fore
SplineSet
62.5 706.25 m 1
 62.5 737.5 l 1
 187.5 737.5 l 1
 312.5 737.5 l 1
 312.5 331.25 l 1
 312.5 -75 l 1
 187.5 -75 l 1
 62.5 -75 l 1
 62.5 -43.75 l 1
 62.5 -12.5 l 1
 156.25 -12.5 l 1
 250 -12.5 l 1
 250 331.25 l 1
 250 675 l 1
 156.25 675 l 1
 62.5 675 l 1
 62.5 706.25 l 1
EndSplineSet
Validated: 524801
EndChar

StartChar: U+005e
Encoding: 94 94 99
Width: 480
VWidth: 0
Flags: HW
LayerCount: 2
Back
Fore
SplineSet
187.5 643.75 m 1
 187.5 675 l 1
 250 675 l 1
 312.5 675 l 1
 312.5 643.75 l 1
 312.5 612.5 l 1
 343.75 612.5 l 1
 375 612.5 l 1
 375 581.25 l 1
 375 550 l 1
 406.25 550 l 1
 437.5 550 l 1
 437.5 518.75 l 1
 437.5 487.5 l 1
 406.25 487.5 l 1
 375 487.5 l 1
 375 518.75 l 1
 375 550 l 1
 343.75 550 l 1
 312.5 550 l 1
 312.5 581.25 l 1
 312.5 612.5 l 1
 250 612.5 l 1
 187.5 612.5 l 1
 187.5 581.25 l 1
 187.5 550 l 1
 156.25 550 l 1
 125 550 l 1
 125 518.75 l 1
 125 487.5 l 1
 93.75 487.5 l 1
 62.5 487.5 l 1
 62.5 518.75 l 1
 62.5 550 l 1
 93.75 550 l 1
 125 550 l 1
 125 581.25 l 1
 125 612.5 l 1
 156.25 612.5 l 1
 187.5 612.5 l 1
 187.5 643.75 l 1
EndSplineSet
Validated: 524805
EndChar

StartChar: U+005f
Encoding: 95 95 100
Width: 480
VWidth: 0
Flags: HW
LayerCount: 2
Back
Fore
SplineSet
62.5 -43.75 m 1
 62.5 -12.5 l 1
 250 -12.5 l 1
 437.5 -12.5 l 1
 437.5 -43.75 l 1
 437.5 -75 l 1
 250 -75 l 1
 62.5 -75 l 1
 62.5 -43.75 l 1
EndSplineSet
Validated: 524801
EndChar

StartChar: U+0060
Encoding: 96 96 101
Width: 480
VWidth: 0
Flags: HW
LayerCount: 2
Back
Fore
SplineSet
125 643.75 m 1
 125 675 l 1
 187.5 675 l 1
 250 675 l 1
 250 643.75 l 1
 250 612.5 l 1
 281.25 612.5 l 1
 312.5 612.5 l 1
 312.5 550 l 1
 312.5 487.5 l 1
 343.75 487.5 l 1
 375 487.5 l 1
 375 456.25 l 1
 375 425 l 1
 343.75 425 l 1
 312.5 425 l 1
 312.5 456.25 l 1
 312.5 487.5 l 1
 281.25 487.5 l 1
 250 487.5 l 1
 250 518.75 l 1
 250 550 l 1
 218.75 550 l 1
 187.5 550 l 1
 187.5 581.25 l 1
 187.5 612.5 l 1
 156.25 612.5 l 1
 125 612.5 l 1
 125 643.75 l 1
EndSplineSet
Validated: 524805
EndChar

StartChar: U+0061
Encoding: 97 97 102
Width: 480
VWidth: 0
Flags: HW
LayerCount: 2
Back
Fore
SplineSet
125 456.25 m 1
 125 487.5 l 1
 250 487.5 l 1
 375 487.5 l 1
 375 456.25 l 1
 375 425 l 1
 406.25 425 l 1
 437.5 425 l 1
 437.5 237.5 l 1
 437.5 50 l 1
 406.25 50 l 1
 375 50 l 1
 375 81.25 l 1
 375 112.5 l 1
 343.75 112.5 l 1
 312.5 112.5 l 1
 312.5 81.25 l 1
 312.5 50 l 1
 218.75 50 l 1
 125 50 l 1
 125 81.25 l 1
 125 112.5 l 1
 93.75 112.5 l 1
 62.5 112.5 l 1
 62.5 206.25 l 1
 62.5 300 l 1
 93.75 300 l 1
 125 300 l 1
 125 331.25 l 1
 125 362.5 l 1
 250 362.5 l 1
 375 362.5 l 1
 375 393.75 l 1
 375 425 l 1
 250 425 l 1
 125 425 l 1
 125 456.25 l 1
375 237.5 m 1
 375 300 l 1
 250 300 l 1
 125 300 l 1
 125 206.25 l 1
 125 112.5 l 1
 218.75 112.5 l 1
 312.5 112.5 l 1
 312.5 143.75 l 1
 312.5 175 l 1
 343.75 175 l 1
 375 175 l 1
 375 237.5 l 1
EndSplineSet
Validated: 524805
EndChar

StartChar: U+0062
Encoding: 98 98 103
Width: 480
VWidth: 0
Flags: HW
LayerCount: 2
Back
Fore
SplineSet
62.5 362.5 m 1
 62.5 675 l 1
 93.75 675 l 1
 125 675 l 1
 125 550 l 1
 125 425 l 1
 156.25 425 l 1
 187.5 425 l 1
 187.5 456.25 l 1
 187.5 487.5 l 1
 281.25 487.5 l 1
 375 487.5 l 1
 375 456.25 l 1
 375 425 l 1
 406.25 425 l 1
 437.5 425 l 1
 437.5 268.75 l 1
 437.5 112.5 l 1
 406.25 112.5 l 1
 375 112.5 l 1
 375 81.25 l 1
 375 50 l 1
 281.25 50 l 1
 187.5 50 l 1
 187.5 81.25 l 1
 187.5 112.5 l 1
 156.25 112.5 l 1
 125 112.5 l 1
 125 81.25 l 1
 125 50 l 1
 93.75 50 l 1
 62.5 50 l 1
 62.5 362.5 l 1
375 268.75 m 1
 375 425 l 1
 281.25 425 l 1
 187.5 425 l 1
 187.5 393.75 l 1
 187.5 362.5 l 1
 156.25 362.5 l 1
 125 362.5 l 1
 125 268.75 l 1
 125 175 l 1
 156.25 175 l 1
 187.5 175 l 1
 187.5 143.75 l 1
 187.5 112.5 l 1
 281.25 112.5 l 1
 375 112.5 l 1
 375 268.75 l 1
EndSplineSet
Validated: 524805
EndChar

StartChar: U+0063
Encoding: 99 99 104
Width: 480
VWidth: 0
Flags: HW
LayerCount: 2
Back
Fore
SplineSet
125 456.25 m 1
 125 487.5 l 1
 250 487.5 l 1
 375 487.5 l 1
 375 456.25 l 1
 375 425 l 1
 406.25 425 l 1
 437.5 425 l 1
 437.5 393.75 l 1
 437.5 362.5 l 1
 406.25 362.5 l 1
 375 362.5 l 1
 375 393.75 l 1
 375 425 l 1
 250 425 l 1
 125 425 l 1
 125 268.75 l 1
 125 112.5 l 1
 250 112.5 l 1
 375 112.5 l 1
 375 143.75 l 1
 375 175 l 1
 406.25 175 l 1
 437.5 175 l 1
 437.5 143.75 l 1
 437.5 112.5 l 1
 406.25 112.5 l 1
 375 112.5 l 1
 375 81.25 l 1
 375 50 l 1
 250 50 l 1
 125 50 l 1
 125 81.25 l 1
 125 112.5 l 1
 93.75 112.5 l 1
 62.5 112.5 l 1
 62.5 268.75 l 1
 62.5 425 l 1
 93.75 425 l 1
 125 425 l 1
 125 456.25 l 1
EndSplineSet
Validated: 524805
EndChar

StartChar: U+0064
Encoding: 100 100 105
Width: 480
VWidth: 0
Flags: HW
LayerCount: 2
Back
Fore
SplineSet
375 550 m 1
 375 675 l 1
 406.25 675 l 1
 437.5 675 l 1
 437.5 362.5 l 1
 437.5 50 l 1
 406.25 50 l 1
 375 50 l 1
 375 81.25 l 1
 375 112.5 l 1
 343.75 112.5 l 1
 312.5 112.5 l 1
 312.5 81.25 l 1
 312.5 50 l 1
 218.75 50 l 1
 125 50 l 1
 125 81.25 l 1
 125 112.5 l 1
 93.75 112.5 l 1
 62.5 112.5 l 1
 62.5 268.75 l 1
 62.5 425 l 1
 93.75 425 l 1
 125 425 l 1
 125 456.25 l 1
 125 487.5 l 1
 218.75 487.5 l 1
 312.5 487.5 l 1
 312.5 456.25 l 1
 312.5 425 l 1
 343.75 425 l 1
 375 425 l 1
 375 550 l 1
312.5 393.75 m 1
 312.5 425 l 1
 218.75 425 l 1
 125 425 l 1
 125 268.75 l 1
 125 112.5 l 1
 218.75 112.5 l 1
 312.5 112.5 l 1
 312.5 143.75 l 1
 312.5 175 l 1
 343.75 175 l 1
 375 175 l 1
 375 268.75 l 1
 375 362.5 l 1
 343.75 362.5 l 1
 312.5 362.5 l 1
 312.5 393.75 l 1
EndSplineSet
Validated: 524805
EndChar

StartChar: U+0065
Encoding: 101 101 106
Width: 480
VWidth: 0
Flags: HW
LayerCount: 2
Back
Fore
SplineSet
125 456.25 m 1
 125 487.5 l 1
 250 487.5 l 1
 375 487.5 l 1
 375 456.25 l 1
 375 425 l 1
 406.25 425 l 1
 437.5 425 l 1
 437.5 331.25 l 1
 437.5 237.5 l 1
 281.25 237.5 l 1
 125 237.5 l 1
 125 175 l 1
 125 112.5 l 1
 281.25 112.5 l 1
 437.5 112.5 l 1
 437.5 81.25 l 1
 437.5 50 l 1
 281.25 50 l 1
 125 50 l 1
 125 81.25 l 1
 125 112.5 l 1
 93.75 112.5 l 1
 62.5 112.5 l 1
 62.5 268.75 l 1
 62.5 425 l 1
 93.75 425 l 1
 125 425 l 1
 125 456.25 l 1
375 362.5 m 1
 375 425 l 1
 250 425 l 1
 125 425 l 1
 125 362.5 l 1
 125 300 l 1
 250 300 l 1
 375 300 l 1
 375 362.5 l 1
EndSplineSet
Validated: 524805
EndChar

StartChar: U+0066
Encoding: 102 102 107
Width: 480
VWidth: 0
Flags: HW
LayerCount: 2
Back
Fore
SplineSet
187.5 643.75 m 1
 187.5 675 l 1
 281.25 675 l 1
 375 675 l 1
 375 643.75 l 1
 375 612.5 l 1
 406.25 612.5 l 1
 437.5 612.5 l 1
 437.5 581.25 l 1
 437.5 550 l 1
 406.25 550 l 1
 375 550 l 1
 375 581.25 l 1
 375 612.5 l 1
 281.25 612.5 l 1
 187.5 612.5 l 1
 187.5 487.5 l 1
 187.5 362.5 l 1
 281.25 362.5 l 1
 375 362.5 l 1
 375 331.25 l 1
 375 300 l 1
 281.25 300 l 1
 187.5 300 l 1
 187.5 175 l 1
 187.5 50 l 1
 156.25 50 l 1
 125 50 l 1
 125 175 l 1
 125 300 l 1
 93.75 300 l 1
 62.5 300 l 1
 62.5 331.25 l 1
 62.5 362.5 l 1
 93.75 362.5 l 1
 125 362.5 l 1
 125 487.5 l 1
 125 612.5 l 1
 156.25 612.5 l 1
 187.5 612.5 l 1
 187.5 643.75 l 1
EndSplineSet
Validated: 524805
EndChar

StartChar: U+0067
Encoding: 103 103 108
Width: 480
VWidth: 0
Flags: HW
LayerCount: 2
Back
Fore
SplineSet
125 456.25 m 1
 125 487.5 l 1
 218.75 487.5 l 1
 312.5 487.5 l 1
 312.5 456.25 l 1
 312.5 425 l 1
 343.75 425 l 1
 375 425 l 1
 375 456.25 l 1
 375 487.5 l 1
 406.25 487.5 l 1
 437.5 487.5 l 1
 437.5 206.25 l 1
 437.5 -75 l 1
 406.25 -75 l 1
 375 -75 l 1
 375 -106.25 l 1
 375 -137.5 l 1
 250 -137.5 l 1
 125 -137.5 l 1
 125 -106.25 l 1
 125 -75 l 1
 93.75 -75 l 1
 62.5 -75 l 1
 62.5 -43.75 l 1
 62.5 -12.5 l 1
 93.75 -12.5 l 1
 125 -12.5 l 1
 125 -43.75 l 1
 125 -75 l 1
 250 -75 l 1
 375 -75 l 1
 375 50 l 1
 375 175 l 1
 343.75 175 l 1
 312.5 175 l 1
 312.5 143.75 l 1
 312.5 112.5 l 1
 218.75 112.5 l 1
 125 112.5 l 1
 125 143.75 l 1
 125 175 l 1
 93.75 175 l 1
 62.5 175 l 1
 62.5 300 l 1
 62.5 425 l 1
 93.75 425 l 1
 125 425 l 1
 125 456.25 l 1
312.5 393.75 m 1
 312.5 425 l 1
 218.75 425 l 1
 125 425 l 1
 125 300 l 1
 125 175 l 1
 218.75 175 l 1
 312.5 175 l 1
 312.5 206.25 l 1
 312.5 237.5 l 1
 343.75 237.5 l 1
 375 237.5 l 1
 375 300 l 1
 375 362.5 l 1
 343.75 362.5 l 1
 312.5 362.5 l 1
 312.5 393.75 l 1
EndSplineSet
Validated: 524805
EndChar

StartChar: U+0068
Encoding: 104 104 109
Width: 480
VWidth: 0
Flags: HW
LayerCount: 2
Back
Fore
SplineSet
62.5 362.5 m 1
 62.5 675 l 1
 93.75 675 l 1
 125 675 l 1
 125 550 l 1
 125 425 l 1
 156.25 425 l 1
 187.5 425 l 1
 187.5 456.25 l 1
 187.5 487.5 l 1
 281.25 487.5 l 1
 375 487.5 l 1
 375 456.25 l 1
 375 425 l 1
 406.25 425 l 1
 437.5 425 l 1
 437.5 237.5 l 1
 437.5 50 l 1
 406.25 50 l 1
 375 50 l 1
 375 237.5 l 1
 375 425 l 1
 281.25 425 l 1
 187.5 425 l 1
 187.5 393.75 l 1
 187.5 362.5 l 1
 156.25 362.5 l 1
 125 362.5 l 1
 125 206.25 l 1
 125 50 l 1
 93.75 50 l 1
 62.5 50 l 1
 62.5 362.5 l 1
EndSplineSet
Validated: 524805
EndChar

StartChar: U+0069
Encoding: 105 105 110
Width: 480
VWidth: 0
Flags: HW
LayerCount: 2
Back
Fore
SplineSet
125 456.25 m 1
 125 487.5 l 1
 218.75 487.5 l 1
 312.5 487.5 l 1
 312.5 268.75 l 1
 312.5 50 l 1
 281.25 50 l 1
 250 50 l 1
 250 237.5 l 1
 250 425 l 1
 187.5 425 l 1
 125 425 l 1
 125 456.25 l 1
250 612.5 m 1
 250 675 l 1
 281.25 675 l 1
 312.5 675 l 1
 312.5 612.5 l 1
 312.5 550 l 1
 281.25 550 l 1
 250 550 l 1
 250 612.5 l 1
EndSplineSet
Validated: 524801
EndChar

StartChar: U+006a
Encoding: 106 106 111
Width: 480
VWidth: 0
Flags: HW
LayerCount: 2
Back
Fore
SplineSet
187.5 456.25 m 1
 187.5 487.5 l 1
 281.25 487.5 l 1
 375 487.5 l 1
 375 237.5 l 1
 375 -12.5 l 1
 343.75 -12.5 l 1
 312.5 -12.5 l 1
 312.5 -43.75 l 1
 312.5 -75 l 1
 218.75 -75 l 1
 125 -75 l 1
 125 -43.75 l 1
 125 -12.5 l 1
 93.75 -12.5 l 1
 62.5 -12.5 l 1
 62.5 18.75 l 1
 62.5 50 l 1
 93.75 50 l 1
 125 50 l 1
 125 18.75 l 1
 125 -12.5 l 1
 218.75 -12.5 l 1
 312.5 -12.5 l 1
 312.5 206.25 l 1
 312.5 425 l 1
 250 425 l 1
 187.5 425 l 1
 187.5 456.25 l 1
312.5 612.5 m 1
 312.5 675 l 1
 343.75 675 l 1
 375 675 l 1
 375 612.5 l 1
 375 550 l 1
 343.75 550 l 1
 312.5 550 l 1
 312.5 612.5 l 1
EndSplineSet
Validated: 524805
EndChar

StartChar: U+006b
Encoding: 107 107 112
Width: 480
VWidth: 0
Flags: HW
LayerCount: 2
Back
Fore
SplineSet
62.5 362.5 m 1
 62.5 675 l 1
 93.75 675 l 1
 125 675 l 1
 125 487.5 l 1
 125 300 l 1
 156.25 300 l 1
 187.5 300 l 1
 187.5 331.25 l 1
 187.5 362.5 l 1
 218.75 362.5 l 1
 250 362.5 l 1
 250 393.75 l 1
 250 425 l 1
 281.25 425 l 1
 312.5 425 l 1
 312.5 456.25 l 1
 312.5 487.5 l 1
 343.75 487.5 l 1
 375 487.5 l 1
 375 456.25 l 1
 375 425 l 1
 343.75 425 l 1
 312.5 425 l 1
 312.5 393.75 l 1
 312.5 362.5 l 1
 281.25 362.5 l 1
 250 362.5 l 1
 250 300 l 1
 250 237.5 l 1
 281.25 237.5 l 1
 312.5 237.5 l 1
 312.5 206.25 l 1
 312.5 175 l 1
 343.75 175 l 1
 375 175 l 1
 375 143.75 l 1
 375 112.5 l 1
 406.25 112.5 l 1
 437.5 112.5 l 1
 437.5 81.25 l 1
 437.5 50 l 1
 406.25 50 l 1
 375 50 l 1
 375 81.25 l 1
 375 112.5 l 1
 343.75 112.5 l 1
 312.5 112.5 l 1
 312.5 143.75 l 1
 312.5 175 l 1
 281.25 175 l 1
 250 175 l 1
 250 206.25 l 1
 250 237.5 l 1
 187.5 237.5 l 1
 125 237.5 l 1
 125 143.75 l 1
 125 50 l 1
 93.75 50 l 1
 62.5 50 l 1
 62.5 362.5 l 1
EndSplineSet
Validated: 524805
EndChar

StartChar: U+006c
Encoding: 108 108 113
Width: 480
VWidth: 0
Flags: HW
LayerCount: 2
Back
Fore
SplineSet
125 393.75 m 1
 125 675 l 1
 156.25 675 l 1
 187.5 675 l 1
 187.5 393.75 l 1
 187.5 112.5 l 1
 281.25 112.5 l 1
 375 112.5 l 1
 375 81.25 l 1
 375 50 l 1
 281.25 50 l 1
 187.5 50 l 1
 187.5 81.25 l 1
 187.5 112.5 l 1
 156.25 112.5 l 1
 125 112.5 l 1
 125 393.75 l 1
EndSplineSet
Validated: 524805
EndChar

StartChar: U+006d
Encoding: 109 109 114
Width: 480
VWidth: 0
Flags: HW
LayerCount: 2
Back
Fore
SplineSet
62.5 268.75 m 1
 62.5 487.5 l 1
 156.25 487.5 l 1
 250 487.5 l 1
 250 456.25 l 1
 250 425 l 1
 281.25 425 l 1
 312.5 425 l 1
 312.5 456.25 l 1
 312.5 487.5 l 1
 375 487.5 l 1
 437.5 487.5 l 1
 437.5 456.25 l 1
 437.5 425 l 1
 468.75 425 l 1
 500 425 l 1
 500 237.5 l 1
 500 50 l 1
 468.75 50 l 1
 437.5 50 l 1
 437.5 237.5 l 1
 437.5 425 l 1
 375 425 l 1
 312.5 425 l 1
 312.5 300 l 1
 312.5 175 l 1
 281.25 175 l 1
 250 175 l 1
 250 300 l 1
 250 425 l 1
 187.5 425 l 1
 125 425 l 1
 125 237.5 l 1
 125 50 l 1
 93.75 50 l 1
 62.5 50 l 1
 62.5 268.75 l 1
EndSplineSet
Validated: 524805
EndChar

StartChar: U+006e
Encoding: 110 110 115
Width: 480
VWidth: 0
Flags: HW
LayerCount: 2
Back
Fore
SplineSet
62.5 268.75 m 1
 62.5 487.5 l 1
 93.75 487.5 l 1
 125 487.5 l 1
 125 456.25 l 1
 125 425 l 1
 156.25 425 l 1
 187.5 425 l 1
 187.5 456.25 l 1
 187.5 487.5 l 1
 281.25 487.5 l 1
 375 487.5 l 1
 375 456.25 l 1
 375 425 l 1
 406.25 425 l 1
 437.5 425 l 1
 437.5 237.5 l 1
 437.5 50 l 1
 406.25 50 l 1
 375 50 l 1
 375 237.5 l 1
 375 425 l 1
 281.25 425 l 1
 187.5 425 l 1
 187.5 393.75 l 1
 187.5 362.5 l 1
 156.25 362.5 l 1
 125 362.5 l 1
 125 206.25 l 1
 125 50 l 1
 93.75 50 l 1
 62.5 50 l 1
 62.5 268.75 l 1
EndSplineSet
Validated: 524805
EndChar

StartChar: U+006f
Encoding: 111 111 116
Width: 480
VWidth: 0
Flags: HW
LayerCount: 2
Back
Fore
SplineSet
125 456.25 m 1
 125 487.5 l 1
 250 487.5 l 1
 375 487.5 l 1
 375 456.25 l 1
 375 425 l 1
 406.25 425 l 1
 437.5 425 l 1
 437.5 268.75 l 1
 437.5 112.5 l 1
 406.25 112.5 l 1
 375 112.5 l 1
 375 81.25 l 1
 375 50 l 1
 250 50 l 1
 125 50 l 1
 125 81.25 l 1
 125 112.5 l 1
 93.75 112.5 l 1
 62.5 112.5 l 1
 62.5 268.75 l 1
 62.5 425 l 1
 93.75 425 l 1
 125 425 l 1
 125 456.25 l 1
375 268.75 m 1
 375 425 l 1
 250 425 l 1
 125 425 l 1
 125 268.75 l 1
 125 112.5 l 1
 250 112.5 l 1
 375 112.5 l 1
 375 268.75 l 1
EndSplineSet
Validated: 524805
EndChar

StartChar: U+0070
Encoding: 112 112 117
Width: 480
VWidth: 0
Flags: HW
LayerCount: 2
Back
Fore
SplineSet
62.5 175 m 1
 62.5 487.5 l 1
 93.75 487.5 l 1
 125 487.5 l 1
 125 456.25 l 1
 125 425 l 1
 156.25 425 l 1
 187.5 425 l 1
 187.5 456.25 l 1
 187.5 487.5 l 1
 281.25 487.5 l 1
 375 487.5 l 1
 375 456.25 l 1
 375 425 l 1
 406.25 425 l 1
 437.5 425 l 1
 437.5 300 l 1
 437.5 175 l 1
 406.25 175 l 1
 375 175 l 1
 375 143.75 l 1
 375 112.5 l 1
 281.25 112.5 l 1
 187.5 112.5 l 1
 187.5 143.75 l 1
 187.5 175 l 1
 156.25 175 l 1
 125 175 l 1
 125 18.75 l 1
 125 -137.5 l 1
 93.75 -137.5 l 1
 62.5 -137.5 l 1
 62.5 175 l 1
375 300 m 1
 375 425 l 1
 281.25 425 l 1
 187.5 425 l 1
 187.5 393.75 l 1
 187.5 362.5 l 1
 156.25 362.5 l 1
 125 362.5 l 1
 125 300 l 1
 125 237.5 l 1
 156.25 237.5 l 1
 187.5 237.5 l 1
 187.5 206.25 l 1
 187.5 175 l 1
 281.25 175 l 1
 375 175 l 1
 375 300 l 1
EndSplineSet
Validated: 524805
EndChar

StartChar: U+0071
Encoding: 113 113 118
Width: 480
VWidth: 0
Flags: HW
LayerCount: 2
Back
Fore
SplineSet
125 456.25 m 1
 125 487.5 l 1
 218.75 487.5 l 1
 312.5 487.5 l 1
 312.5 456.25 l 1
 312.5 425 l 1
 343.75 425 l 1
 375 425 l 1
 375 456.25 l 1
 375 487.5 l 1
 406.25 487.5 l 1
 437.5 487.5 l 1
 437.5 175 l 1
 437.5 -137.5 l 1
 406.25 -137.5 l 1
 375 -137.5 l 1
 375 18.75 l 1
 375 175 l 1
 343.75 175 l 1
 312.5 175 l 1
 312.5 143.75 l 1
 312.5 112.5 l 1
 218.75 112.5 l 1
 125 112.5 l 1
 125 143.75 l 1
 125 175 l 1
 93.75 175 l 1
 62.5 175 l 1
 62.5 300 l 1
 62.5 425 l 1
 93.75 425 l 1
 125 425 l 1
 125 456.25 l 1
312.5 393.75 m 1
 312.5 425 l 1
 218.75 425 l 1
 125 425 l 1
 125 300 l 1
 125 175 l 1
 218.75 175 l 1
 312.5 175 l 1
 312.5 206.25 l 1
 312.5 237.5 l 1
 343.75 237.5 l 1
 375 237.5 l 1
 375 300 l 1
 375 362.5 l 1
 343.75 362.5 l 1
 312.5 362.5 l 1
 312.5 393.75 l 1
EndSplineSet
Validated: 524805
EndChar

StartChar: U+0072
Encoding: 114 114 119
Width: 480
VWidth: 0
Flags: HW
LayerCount: 2
Back
Fore
SplineSet
62.5 268.75 m 1
 62.5 487.5 l 1
 93.75 487.5 l 1
 125 487.5 l 1
 125 456.25 l 1
 125 425 l 1
 156.25 425 l 1
 187.5 425 l 1
 187.5 456.25 l 1
 187.5 487.5 l 1
 281.25 487.5 l 1
 375 487.5 l 1
 375 456.25 l 1
 375 425 l 1
 406.25 425 l 1
 437.5 425 l 1
 437.5 393.75 l 1
 437.5 362.5 l 1
 406.25 362.5 l 1
 375 362.5 l 1
 375 393.75 l 1
 375 425 l 1
 281.25 425 l 1
 187.5 425 l 1
 187.5 393.75 l 1
 187.5 362.5 l 1
 156.25 362.5 l 1
 125 362.5 l 1
 125 206.25 l 1
 125 50 l 1
 93.75 50 l 1
 62.5 50 l 1
 62.5 268.75 l 1
EndSplineSet
Validated: 524805
EndChar

StartChar: U+0073
Encoding: 115 115 120
Width: 480
VWidth: 0
Flags: HW
LayerCount: 2
Back
Fore
SplineSet
125 456.25 m 1
 125 487.5 l 1
 250 487.5 l 1
 375 487.5 l 1
 375 456.25 l 1
 375 425 l 1
 406.25 425 l 1
 437.5 425 l 1
 437.5 393.75 l 1
 437.5 362.5 l 1
 406.25 362.5 l 1
 375 362.5 l 1
 375 393.75 l 1
 375 425 l 1
 250 425 l 1
 125 425 l 1
 125 362.5 l 1
 125 300 l 1
 250 300 l 1
 375 300 l 1
 375 268.75 l 1
 375 237.5 l 1
 406.25 237.5 l 1
 437.5 237.5 l 1
 437.5 175 l 1
 437.5 112.5 l 1
 406.25 112.5 l 1
 375 112.5 l 1
 375 81.25 l 1
 375 50 l 1
 250 50 l 1
 125 50 l 1
 125 81.25 l 1
 125 112.5 l 1
 93.75 112.5 l 1
 62.5 112.5 l 1
 62.5 143.75 l 1
 62.5 175 l 1
 93.75 175 l 1
 125 175 l 1
 125 143.75 l 1
 125 112.5 l 1
 250 112.5 l 1
 375 112.5 l 1
 375 175 l 1
 375 237.5 l 1
 250 237.5 l 1
 125 237.5 l 1
 125 268.75 l 1
 125 300 l 1
 93.75 300 l 1
 62.5 300 l 1
 62.5 362.5 l 1
 62.5 425 l 1
 93.75 425 l 1
 125 425 l 1
 125 456.25 l 1
EndSplineSet
Validated: 524805
EndChar

StartChar: U+0074
Encoding: 116 116 121
Width: 480
VWidth: 0
Flags: HW
LayerCount: 2
Back
Fore
SplineSet
125 550 m 1
 125 612.5 l 1
 156.25 612.5 l 1
 187.5 612.5 l 1
 187.5 550 l 1
 187.5 487.5 l 1
 281.25 487.5 l 1
 375 487.5 l 1
 375 456.25 l 1
 375 425 l 1
 281.25 425 l 1
 187.5 425 l 1
 187.5 268.75 l 1
 187.5 112.5 l 1
 281.25 112.5 l 1
 375 112.5 l 1
 375 143.75 l 1
 375 175 l 1
 406.25 175 l 1
 437.5 175 l 1
 437.5 143.75 l 1
 437.5 112.5 l 1
 406.25 112.5 l 1
 375 112.5 l 1
 375 81.25 l 1
 375 50 l 1
 281.25 50 l 1
 187.5 50 l 1
 187.5 81.25 l 1
 187.5 112.5 l 1
 156.25 112.5 l 1
 125 112.5 l 1
 125 268.75 l 1
 125 425 l 1
 93.75 425 l 1
 62.5 425 l 1
 62.5 456.25 l 1
 62.5 487.5 l 1
 93.75 487.5 l 1
 125 487.5 l 1
 125 550 l 1
EndSplineSet
Validated: 524805
EndChar

StartChar: U+0075
Encoding: 117 117 122
Width: 480
VWidth: 0
Flags: HW
LayerCount: 2
Back
Fore
SplineSet
62.5 300 m 1
 62.5 487.5 l 1
 93.75 487.5 l 1
 125 487.5 l 1
 125 300 l 1
 125 112.5 l 1
 218.75 112.5 l 1
 312.5 112.5 l 1
 312.5 143.75 l 1
 312.5 175 l 1
 343.75 175 l 1
 375 175 l 1
 375 331.25 l 1
 375 487.5 l 1
 406.25 487.5 l 1
 437.5 487.5 l 1
 437.5 268.75 l 1
 437.5 50 l 1
 406.25 50 l 1
 375 50 l 1
 375 81.25 l 1
 375 112.5 l 1
 343.75 112.5 l 1
 312.5 112.5 l 1
 312.5 81.25 l 1
 312.5 50 l 1
 218.75 50 l 1
 125 50 l 1
 125 81.25 l 1
 125 112.5 l 1
 93.75 112.5 l 1
 62.5 112.5 l 1
 62.5 300 l 1
EndSplineSet
Validated: 524805
EndChar

StartChar: U+0076
Encoding: 118 118 123
Width: 480
VWidth: 0
Flags: HW
LayerCount: 2
Back
Fore
SplineSet
62.5 393.75 m 1
 62.5 487.5 l 1
 93.75 487.5 l 1
 125 487.5 l 1
 125 393.75 l 1
 125 300 l 1
 156.25 300 l 1
 187.5 300 l 1
 187.5 237.5 l 1
 187.5 175 l 1
 250 175 l 1
 312.5 175 l 1
 312.5 237.5 l 1
 312.5 300 l 1
 343.75 300 l 1
 375 300 l 1
 375 393.75 l 1
 375 487.5 l 1
 406.25 487.5 l 1
 437.5 487.5 l 1
 437.5 393.75 l 1
 437.5 300 l 1
 406.25 300 l 1
 375 300 l 1
 375 237.5 l 1
 375 175 l 1
 343.75 175 l 1
 312.5 175 l 1
 312.5 112.5 l 1
 312.5 50 l 1
 250 50 l 1
 187.5 50 l 1
 187.5 112.5 l 1
 187.5 175 l 1
 156.25 175 l 1
 125 175 l 1
 125 237.5 l 1
 125 300 l 1
 93.75 300 l 1
 62.5 300 l 1
 62.5 393.75 l 1
EndSplineSet
Validated: 524805
EndChar

StartChar: U+0077
Encoding: 119 119 124
Width: 480
VWidth: 0
Flags: HW
LayerCount: 2
Back
Fore
SplineSet
62.5 300 m 1
 62.5 487.5 l 1
 93.75 487.5 l 1
 125 487.5 l 1
 125 300 l 1
 125 112.5 l 1
 156.25 112.5 l 1
 187.5 112.5 l 1
 187.5 143.75 l 1
 187.5 175 l 1
 218.75 175 l 1
 250 175 l 1
 250 268.75 l 1
 250 362.5 l 1
 281.25 362.5 l 1
 312.5 362.5 l 1
 312.5 268.75 l 1
 312.5 175 l 1
 343.75 175 l 1
 375 175 l 1
 375 143.75 l 1
 375 112.5 l 1
 406.25 112.5 l 1
 437.5 112.5 l 1
 437.5 300 l 1
 437.5 487.5 l 1
 468.75 487.5 l 1
 500 487.5 l 1
 500 300 l 1
 500 112.5 l 1
 468.75 112.5 l 1
 437.5 112.5 l 1
 437.5 81.25 l 1
 437.5 50 l 1
 406.25 50 l 1
 375 50 l 1
 375 81.25 l 1
 375 112.5 l 1
 343.75 112.5 l 1
 312.5 112.5 l 1
 312.5 143.75 l 1
 312.5 175 l 1
 281.25 175 l 1
 250 175 l 1
 250 143.75 l 1
 250 112.5 l 1
 218.75 112.5 l 1
 187.5 112.5 l 1
 187.5 81.25 l 1
 187.5 50 l 1
 156.25 50 l 1
 125 50 l 1
 125 81.25 l 1
 125 112.5 l 1
 93.75 112.5 l 1
 62.5 112.5 l 1
 62.5 300 l 1
EndSplineSet
Validated: 524805
EndChar

StartChar: U+0078
Encoding: 120 120 125
Width: 480
VWidth: 0
Flags: HW
LayerCount: 2
Back
Fore
SplineSet
187.5 206.25 m 1
 187.5 237.5 l 1
 250 237.5 l 1
 312.5 237.5 l 1
 312.5 206.25 l 1
 312.5 175 l 1
 343.75 175 l 1
 375 175 l 1
 375 143.75 l 1
 375 112.5 l 1
 406.25 112.5 l 1
 437.5 112.5 l 1
 437.5 81.25 l 1
 437.5 50 l 1
 406.25 50 l 1
 375 50 l 1
 375 81.25 l 1
 375 112.5 l 1
 343.75 112.5 l 1
 312.5 112.5 l 1
 312.5 143.75 l 1
 312.5 175 l 1
 250 175 l 1
 187.5 175 l 1
 187.5 143.75 l 1
 187.5 112.5 l 1
 156.25 112.5 l 1
 125 112.5 l 1
 125 81.25 l 1
 125 50 l 1
 93.75 50 l 1
 62.5 50 l 1
 62.5 81.25 l 1
 62.5 112.5 l 1
 93.75 112.5 l 1
 125 112.5 l 1
 125 143.75 l 1
 125 175 l 1
 156.25 175 l 1
 187.5 175 l 1
 187.5 206.25 l 1
62.5 456.25 m 1
 62.5 487.5 l 1
 93.75 487.5 l 1
 125 487.5 l 1
 125 456.25 l 1
 125 425 l 1
 156.25 425 l 1
 187.5 425 l 1
 187.5 393.75 l 1
 187.5 362.5 l 1
 250 362.5 l 1
 312.5 362.5 l 1
 312.5 393.75 l 1
 312.5 425 l 1
 343.75 425 l 1
 375 425 l 1
 375 456.25 l 1
 375 487.5 l 1
 406.25 487.5 l 1
 437.5 487.5 l 1
 437.5 456.25 l 1
 437.5 425 l 1
 406.25 425 l 1
 375 425 l 1
 375 393.75 l 1
 375 362.5 l 1
 343.75 362.5 l 1
 312.5 362.5 l 1
 312.5 331.25 l 1
 312.5 300 l 1
 250 300 l 1
 187.5 300 l 1
 187.5 331.25 l 1
 187.5 362.5 l 1
 156.25 362.5 l 1
 125 362.5 l 1
 125 393.75 l 1
 125 425 l 1
 93.75 425 l 1
 62.5 425 l 1
 62.5 456.25 l 1
EndSplineSet
Validated: 524805
EndChar

StartChar: U+0079
Encoding: 121 121 126
Width: 480
VWidth: 0
Flags: HW
LayerCount: 2
Back
Fore
SplineSet
62.5 331.25 m 1
 62.5 487.5 l 1
 93.75 487.5 l 1
 125 487.5 l 1
 125 331.25 l 1
 125 175 l 1
 218.75 175 l 1
 312.5 175 l 1
 312.5 206.25 l 1
 312.5 237.5 l 1
 343.75 237.5 l 1
 375 237.5 l 1
 375 362.5 l 1
 375 487.5 l 1
 406.25 487.5 l 1
 437.5 487.5 l 1
 437.5 206.25 l 1
 437.5 -75 l 1
 406.25 -75 l 1
 375 -75 l 1
 375 -106.25 l 1
 375 -137.5 l 1
 250 -137.5 l 1
 125 -137.5 l 1
 125 -106.25 l 1
 125 -75 l 1
 93.75 -75 l 1
 62.5 -75 l 1
 62.5 -43.75 l 1
 62.5 -12.5 l 1
 93.75 -12.5 l 1
 125 -12.5 l 1
 125 -43.75 l 1
 125 -75 l 1
 250 -75 l 1
 375 -75 l 1
 375 50 l 1
 375 175 l 1
 343.75 175 l 1
 312.5 175 l 1
 312.5 143.75 l 1
 312.5 112.5 l 1
 218.75 112.5 l 1
 125 112.5 l 1
 125 143.75 l 1
 125 175 l 1
 93.75 175 l 1
 62.5 175 l 1
 62.5 331.25 l 1
EndSplineSet
Validated: 524805
EndChar

StartChar: U+007a
Encoding: 122 122 127
Width: 480
VWidth: 0
Flags: HW
LayerCount: 2
Back
Fore
SplineSet
62.5 456.25 m 1
 62.5 487.5 l 1
 250 487.5 l 1
 437.5 487.5 l 1
 437.5 425 l 1
 437.5 362.5 l 1
 406.25 362.5 l 1
 375 362.5 l 1
 375 331.25 l 1
 375 300 l 1
 343.75 300 l 1
 312.5 300 l 1
 312.5 268.75 l 1
 312.5 237.5 l 1
 281.25 237.5 l 1
 250 237.5 l 1
 250 206.25 l 1
 250 175 l 1
 218.75 175 l 1
 187.5 175 l 1
 187.5 143.75 l 1
 187.5 112.5 l 1
 312.5 112.5 l 1
 437.5 112.5 l 1
 437.5 81.25 l 1
 437.5 50 l 1
 250 50 l 1
 62.5 50 l 1
 62.5 81.25 l 1
 62.5 112.5 l 1
 93.75 112.5 l 1
 125 112.5 l 1
 125 143.75 l 1
 125 175 l 1
 156.25 175 l 1
 187.5 175 l 1
 187.5 206.25 l 1
 187.5 237.5 l 1
 218.75 237.5 l 1
 250 237.5 l 1
 250 268.75 l 1
 250 300 l 1
 281.25 300 l 1
 312.5 300 l 1
 312.5 331.25 l 1
 312.5 362.5 l 1
 343.75 362.5 l 1
 375 362.5 l 1
 375 393.75 l 1
 375 425 l 1
 218.75 425 l 1
 62.5 425 l 1
 62.5 456.25 l 1
EndSplineSet
Validated: 524805
EndChar

StartChar: U+007b
Encoding: 123 123 128
Width: 480
VWidth: 0
Flags: HW
LayerCount: 2
Back
Fore
SplineSet
312.5 706.25 m 1
 312.5 737.5 l 1
 375 737.5 l 1
 437.5 737.5 l 1
 437.5 706.25 l 1
 437.5 675 l 1
 375 675 l 1
 312.5 675 l 1
 312.5 518.75 l 1
 312.5 362.5 l 1
 281.25 362.5 l 1
 250 362.5 l 1
 250 331.25 l 1
 250 300 l 1
 281.25 300 l 1
 312.5 300 l 1
 312.5 143.75 l 1
 312.5 -12.5 l 1
 375 -12.5 l 1
 437.5 -12.5 l 1
 437.5 -43.75 l 1
 437.5 -75 l 1
 375 -75 l 1
 312.5 -75 l 1
 312.5 -43.75 l 1
 312.5 -12.5 l 1
 281.25 -12.5 l 1
 250 -12.5 l 1
 250 143.75 l 1
 250 300 l 1
 187.5 300 l 1
 125 300 l 1
 125 331.25 l 1
 125 362.5 l 1
 187.5 362.5 l 1
 250 362.5 l 1
 250 518.75 l 1
 250 675 l 1
 281.25 675 l 1
 312.5 675 l 1
 312.5 706.25 l 1
EndSplineSet
Validated: 524805
EndChar

StartChar: U+007c
Encoding: 124 124 129
Width: 480
VWidth: 0
Flags: HW
LayerCount: 2
Back
Fore
SplineSet
187.5 362.5 m 1
 187.5 737.5 l 1
 218.75 737.5 l 1
 250 737.5 l 1
 250 362.5 l 1
 250 -12.5 l 1
 218.75 -12.5 l 1
 187.5 -12.5 l 1
 187.5 362.5 l 1
EndSplineSet
Validated: 524801
EndChar

StartChar: U+007d
Encoding: 125 125 130
Width: 480
VWidth: 0
Flags: HW
LayerCount: 2
Back
Fore
SplineSet
62.5 706.25 m 1
 62.5 737.5 l 1
 125 737.5 l 1
 187.5 737.5 l 1
 187.5 706.25 l 1
 187.5 675 l 1
 218.75 675 l 1
 250 675 l 1
 250 518.75 l 1
 250 362.5 l 1
 312.5 362.5 l 1
 375 362.5 l 1
 375 331.25 l 1
 375 300 l 1
 312.5 300 l 1
 250 300 l 1
 250 143.75 l 1
 250 -12.5 l 1
 218.75 -12.5 l 1
 187.5 -12.5 l 1
 187.5 -43.75 l 1
 187.5 -75 l 1
 125 -75 l 1
 62.5 -75 l 1
 62.5 -43.75 l 1
 62.5 -12.5 l 1
 125 -12.5 l 1
 187.5 -12.5 l 1
 187.5 143.75 l 1
 187.5 300 l 1
 218.75 300 l 1
 250 300 l 1
 250 331.25 l 1
 250 362.5 l 1
 218.75 362.5 l 1
 187.5 362.5 l 1
 187.5 518.75 l 1
 187.5 675 l 1
 125 675 l 1
 62.5 675 l 1
 62.5 706.25 l 1
EndSplineSet
Validated: 524805
EndChar

StartChar: U+007e
Encoding: 126 126 131
Width: 480
VWidth: 0
Flags: HW
LayerCount: 2
Back
Fore
SplineSet
125 581.25 m 1
 125 612.5 l 1
 187.5 612.5 l 1
 250 612.5 l 1
 250 581.25 l 1
 250 550 l 1
 281.25 550 l 1
 312.5 550 l 1
 312.5 518.75 l 1
 312.5 487.5 l 1
 375 487.5 l 1
 437.5 487.5 l 1
 437.5 550 l 1
 437.5 612.5 l 1
 468.75 612.5 l 1
 500 612.5 l 1
 500 550 l 1
 500 487.5 l 1
 468.75 487.5 l 1
 437.5 487.5 l 1
 437.5 456.25 l 1
 437.5 425 l 1
 375 425 l 1
 312.5 425 l 1
 312.5 456.25 l 1
 312.5 487.5 l 1
 281.25 487.5 l 1
 250 487.5 l 1
 250 518.75 l 1
 250 550 l 1
 187.5 550 l 1
 125 550 l 1
 125 487.5 l 1
 125 425 l 1
 93.75 425 l 1
 62.5 425 l 1
 62.5 487.5 l 1
 62.5 550 l 1
 93.75 550 l 1
 125 550 l 1
 125 581.25 l 1
EndSplineSet
Validated: 524805
EndChar

StartChar: nil
Encoding: 127 127 132
Width: 480
VWidth: 0
Flags: HW
LayerCount: 2
Back
Fore
SplineSet
62.5 331.25 m 1
 62.5 737.5 l 1
 250 737.5 l 1
 437.5 737.5 l 1
 437.5 331.25 l 1
 437.5 -75 l 1
 250 -75 l 1
 62.5 -75 l 1
 62.5 331.25 l 1
375 331.25 m 1
 375 675 l 1
 250 675 l 1
 125 675 l 1
 125 331.25 l 1
 125 -12.5 l 1
 250 -12.5 l 1
 375 -12.5 l 1
 375 331.25 l 1
EndSplineSet
Validated: 2621441
EndChar

StartChar: nil
Encoding: 128 128 133
Width: 480
VWidth: 0
Flags: HW
LayerCount: 2
Back
Fore
SplineSet
62.5 331.25 m 1
 62.5 737.5 l 1
 250 737.5 l 1
 437.5 737.5 l 1
 437.5 331.25 l 1
 437.5 -75 l 1
 250 -75 l 1
 62.5 -75 l 1
 62.5 331.25 l 1
375 331.25 m 1
 375 675 l 1
 250 675 l 1
 125 675 l 1
 125 331.25 l 1
 125 -12.5 l 1
 250 -12.5 l 1
 375 -12.5 l 1
 375 331.25 l 1
EndSplineSet
Validated: 2621441
EndChar

StartChar: nil
Encoding: 129 129 134
Width: 480
VWidth: 0
Flags: HW
LayerCount: 2
Back
Fore
SplineSet
62.5 331.25 m 1
 62.5 737.5 l 1
 250 737.5 l 1
 437.5 737.5 l 1
 437.5 331.25 l 1
 437.5 -75 l 1
 250 -75 l 1
 62.5 -75 l 1
 62.5 331.25 l 1
375 331.25 m 1
 375 675 l 1
 250 675 l 1
 125 675 l 1
 125 331.25 l 1
 125 -12.5 l 1
 250 -12.5 l 1
 375 -12.5 l 1
 375 331.25 l 1
EndSplineSet
Validated: 2621441
EndChar

StartChar: nil
Encoding: 130 130 135
Width: 480
VWidth: 0
Flags: HW
LayerCount: 2
Back
Fore
SplineSet
62.5 331.25 m 1
 62.5 737.5 l 1
 250 737.5 l 1
 437.5 737.5 l 1
 437.5 331.25 l 1
 437.5 -75 l 1
 250 -75 l 1
 62.5 -75 l 1
 62.5 331.25 l 1
375 331.25 m 1
 375 675 l 1
 250 675 l 1
 125 675 l 1
 125 331.25 l 1
 125 -12.5 l 1
 250 -12.5 l 1
 375 -12.5 l 1
 375 331.25 l 1
EndSplineSet
Validated: 2621441
EndChar

StartChar: nil
Encoding: 131 131 136
Width: 480
VWidth: 0
Flags: HW
LayerCount: 2
Back
Fore
SplineSet
62.5 331.25 m 1
 62.5 737.5 l 1
 250 737.5 l 1
 437.5 737.5 l 1
 437.5 331.25 l 1
 437.5 -75 l 1
 250 -75 l 1
 62.5 -75 l 1
 62.5 331.25 l 1
375 331.25 m 1
 375 675 l 1
 250 675 l 1
 125 675 l 1
 125 331.25 l 1
 125 -12.5 l 1
 250 -12.5 l 1
 375 -12.5 l 1
 375 331.25 l 1
EndSplineSet
Validated: 2621441
EndChar

StartChar: nil
Encoding: 132 132 137
Width: 480
VWidth: 0
Flags: HW
LayerCount: 2
Back
Fore
SplineSet
62.5 331.25 m 1
 62.5 737.5 l 1
 250 737.5 l 1
 437.5 737.5 l 1
 437.5 331.25 l 1
 437.5 -75 l 1
 250 -75 l 1
 62.5 -75 l 1
 62.5 331.25 l 1
375 331.25 m 1
 375 675 l 1
 250 675 l 1
 125 675 l 1
 125 331.25 l 1
 125 -12.5 l 1
 250 -12.5 l 1
 375 -12.5 l 1
 375 331.25 l 1
EndSplineSet
Validated: 2621441
EndChar

StartChar: nil
Encoding: 133 133 138
Width: 480
VWidth: 0
Flags: HW
LayerCount: 2
Back
Fore
SplineSet
62.5 331.25 m 1
 62.5 737.5 l 1
 250 737.5 l 1
 437.5 737.5 l 1
 437.5 331.25 l 1
 437.5 -75 l 1
 250 -75 l 1
 62.5 -75 l 1
 62.5 331.25 l 1
375 331.25 m 1
 375 675 l 1
 250 675 l 1
 125 675 l 1
 125 331.25 l 1
 125 -12.5 l 1
 250 -12.5 l 1
 375 -12.5 l 1
 375 331.25 l 1
EndSplineSet
Validated: 2621441
EndChar

StartChar: nil
Encoding: 134 134 139
Width: 480
VWidth: 0
Flags: HW
LayerCount: 2
Back
Fore
SplineSet
62.5 331.25 m 1
 62.5 737.5 l 1
 250 737.5 l 1
 437.5 737.5 l 1
 437.5 331.25 l 1
 437.5 -75 l 1
 250 -75 l 1
 62.5 -75 l 1
 62.5 331.25 l 1
375 331.25 m 1
 375 675 l 1
 250 675 l 1
 125 675 l 1
 125 331.25 l 1
 125 -12.5 l 1
 250 -12.5 l 1
 375 -12.5 l 1
 375 331.25 l 1
EndSplineSet
Validated: 2621441
EndChar

StartChar: nil
Encoding: 135 135 140
Width: 480
VWidth: 0
Flags: HW
LayerCount: 2
Back
Fore
SplineSet
62.5 331.25 m 1
 62.5 737.5 l 1
 250 737.5 l 1
 437.5 737.5 l 1
 437.5 331.25 l 1
 437.5 -75 l 1
 250 -75 l 1
 62.5 -75 l 1
 62.5 331.25 l 1
375 331.25 m 1
 375 675 l 1
 250 675 l 1
 125 675 l 1
 125 331.25 l 1
 125 -12.5 l 1
 250 -12.5 l 1
 375 -12.5 l 1
 375 331.25 l 1
EndSplineSet
Validated: 2621441
EndChar

StartChar: nil
Encoding: 136 136 141
Width: 480
VWidth: 0
Flags: HW
LayerCount: 2
Back
Fore
SplineSet
62.5 331.25 m 1
 62.5 737.5 l 1
 250 737.5 l 1
 437.5 737.5 l 1
 437.5 331.25 l 1
 437.5 -75 l 1
 250 -75 l 1
 62.5 -75 l 1
 62.5 331.25 l 1
375 331.25 m 1
 375 675 l 1
 250 675 l 1
 125 675 l 1
 125 331.25 l 1
 125 -12.5 l 1
 250 -12.5 l 1
 375 -12.5 l 1
 375 331.25 l 1
EndSplineSet
Validated: 2621441
EndChar

StartChar: nil
Encoding: 137 137 142
Width: 480
VWidth: 0
Flags: HW
LayerCount: 2
Back
Fore
SplineSet
62.5 331.25 m 1
 62.5 737.5 l 1
 250 737.5 l 1
 437.5 737.5 l 1
 437.5 331.25 l 1
 437.5 -75 l 1
 250 -75 l 1
 62.5 -75 l 1
 62.5 331.25 l 1
375 331.25 m 1
 375 675 l 1
 250 675 l 1
 125 675 l 1
 125 331.25 l 1
 125 -12.5 l 1
 250 -12.5 l 1
 375 -12.5 l 1
 375 331.25 l 1
EndSplineSet
Validated: 2621441
EndChar

StartChar: nil
Encoding: 138 138 143
Width: 480
VWidth: 0
Flags: HW
LayerCount: 2
Back
Fore
SplineSet
62.5 331.25 m 1
 62.5 737.5 l 1
 250 737.5 l 1
 437.5 737.5 l 1
 437.5 331.25 l 1
 437.5 -75 l 1
 250 -75 l 1
 62.5 -75 l 1
 62.5 331.25 l 1
375 331.25 m 1
 375 675 l 1
 250 675 l 1
 125 675 l 1
 125 331.25 l 1
 125 -12.5 l 1
 250 -12.5 l 1
 375 -12.5 l 1
 375 331.25 l 1
EndSplineSet
Validated: 2621441
EndChar

StartChar: nil
Encoding: 139 139 144
Width: 480
VWidth: 0
Flags: HW
LayerCount: 2
Back
Fore
SplineSet
62.5 331.25 m 1
 62.5 737.5 l 1
 250 737.5 l 1
 437.5 737.5 l 1
 437.5 331.25 l 1
 437.5 -75 l 1
 250 -75 l 1
 62.5 -75 l 1
 62.5 331.25 l 1
375 331.25 m 1
 375 675 l 1
 250 675 l 1
 125 675 l 1
 125 331.25 l 1
 125 -12.5 l 1
 250 -12.5 l 1
 375 -12.5 l 1
 375 331.25 l 1
EndSplineSet
Validated: 2621441
EndChar

StartChar: nil
Encoding: 140 140 145
Width: 480
VWidth: 0
Flags: HW
LayerCount: 2
Back
Fore
SplineSet
62.5 331.25 m 1
 62.5 737.5 l 1
 250 737.5 l 1
 437.5 737.5 l 1
 437.5 331.25 l 1
 437.5 -75 l 1
 250 -75 l 1
 62.5 -75 l 1
 62.5 331.25 l 1
375 331.25 m 1
 375 675 l 1
 250 675 l 1
 125 675 l 1
 125 331.25 l 1
 125 -12.5 l 1
 250 -12.5 l 1
 375 -12.5 l 1
 375 331.25 l 1
EndSplineSet
Validated: 2621441
EndChar

StartChar: nil
Encoding: 141 141 146
Width: 480
VWidth: 0
Flags: HW
LayerCount: 2
Back
Fore
SplineSet
62.5 331.25 m 1
 62.5 737.5 l 1
 250 737.5 l 1
 437.5 737.5 l 1
 437.5 331.25 l 1
 437.5 -75 l 1
 250 -75 l 1
 62.5 -75 l 1
 62.5 331.25 l 1
375 331.25 m 1
 375 675 l 1
 250 675 l 1
 125 675 l 1
 125 331.25 l 1
 125 -12.5 l 1
 250 -12.5 l 1
 375 -12.5 l 1
 375 331.25 l 1
EndSplineSet
Validated: 2621441
EndChar

StartChar: nil
Encoding: 142 142 147
Width: 480
VWidth: 0
Flags: HW
LayerCount: 2
Back
Fore
SplineSet
62.5 331.25 m 1
 62.5 737.5 l 1
 250 737.5 l 1
 437.5 737.5 l 1
 437.5 331.25 l 1
 437.5 -75 l 1
 250 -75 l 1
 62.5 -75 l 1
 62.5 331.25 l 1
375 331.25 m 1
 375 675 l 1
 250 675 l 1
 125 675 l 1
 125 331.25 l 1
 125 -12.5 l 1
 250 -12.5 l 1
 375 -12.5 l 1
 375 331.25 l 1
EndSplineSet
Validated: 2621441
EndChar

StartChar: nil
Encoding: 143 143 148
Width: 480
VWidth: 0
Flags: HW
LayerCount: 2
Back
Fore
SplineSet
62.5 331.25 m 1
 62.5 737.5 l 1
 250 737.5 l 1
 437.5 737.5 l 1
 437.5 331.25 l 1
 437.5 -75 l 1
 250 -75 l 1
 62.5 -75 l 1
 62.5 331.25 l 1
375 331.25 m 1
 375 675 l 1
 250 675 l 1
 125 675 l 1
 125 331.25 l 1
 125 -12.5 l 1
 250 -12.5 l 1
 375 -12.5 l 1
 375 331.25 l 1
EndSplineSet
Validated: 2621441
EndChar

StartChar: nil
Encoding: 144 144 149
Width: 480
VWidth: 0
Flags: HW
LayerCount: 2
Back
Fore
SplineSet
62.5 331.25 m 1
 62.5 737.5 l 1
 250 737.5 l 1
 437.5 737.5 l 1
 437.5 331.25 l 1
 437.5 -75 l 1
 250 -75 l 1
 62.5 -75 l 1
 62.5 331.25 l 1
375 331.25 m 1
 375 675 l 1
 250 675 l 1
 125 675 l 1
 125 331.25 l 1
 125 -12.5 l 1
 250 -12.5 l 1
 375 -12.5 l 1
 375 331.25 l 1
EndSplineSet
Validated: 2621441
EndChar

StartChar: nil
Encoding: 145 145 150
Width: 480
VWidth: 0
Flags: HW
LayerCount: 2
Back
Fore
SplineSet
62.5 331.25 m 1
 62.5 737.5 l 1
 250 737.5 l 1
 437.5 737.5 l 1
 437.5 331.25 l 1
 437.5 -75 l 1
 250 -75 l 1
 62.5 -75 l 1
 62.5 331.25 l 1
375 331.25 m 1
 375 675 l 1
 250 675 l 1
 125 675 l 1
 125 331.25 l 1
 125 -12.5 l 1
 250 -12.5 l 1
 375 -12.5 l 1
 375 331.25 l 1
EndSplineSet
Validated: 2621441
EndChar

StartChar: nil
Encoding: 146 146 151
Width: 480
VWidth: 0
Flags: HW
LayerCount: 2
Back
Fore
SplineSet
62.5 331.25 m 1
 62.5 737.5 l 1
 250 737.5 l 1
 437.5 737.5 l 1
 437.5 331.25 l 1
 437.5 -75 l 1
 250 -75 l 1
 62.5 -75 l 1
 62.5 331.25 l 1
375 331.25 m 1
 375 675 l 1
 250 675 l 1
 125 675 l 1
 125 331.25 l 1
 125 -12.5 l 1
 250 -12.5 l 1
 375 -12.5 l 1
 375 331.25 l 1
EndSplineSet
Validated: 2621441
EndChar

StartChar: nil
Encoding: 147 147 152
Width: 480
VWidth: 0
Flags: HW
LayerCount: 2
Back
Fore
SplineSet
62.5 331.25 m 1
 62.5 737.5 l 1
 250 737.5 l 1
 437.5 737.5 l 1
 437.5 331.25 l 1
 437.5 -75 l 1
 250 -75 l 1
 62.5 -75 l 1
 62.5 331.25 l 1
375 331.25 m 1
 375 675 l 1
 250 675 l 1
 125 675 l 1
 125 331.25 l 1
 125 -12.5 l 1
 250 -12.5 l 1
 375 -12.5 l 1
 375 331.25 l 1
EndSplineSet
Validated: 2621441
EndChar

StartChar: nil
Encoding: 148 148 153
Width: 480
VWidth: 0
Flags: HW
LayerCount: 2
Back
Fore
SplineSet
62.5 331.25 m 1
 62.5 737.5 l 1
 250 737.5 l 1
 437.5 737.5 l 1
 437.5 331.25 l 1
 437.5 -75 l 1
 250 -75 l 1
 62.5 -75 l 1
 62.5 331.25 l 1
375 331.25 m 1
 375 675 l 1
 250 675 l 1
 125 675 l 1
 125 331.25 l 1
 125 -12.5 l 1
 250 -12.5 l 1
 375 -12.5 l 1
 375 331.25 l 1
EndSplineSet
Validated: 2621441
EndChar

StartChar: nil
Encoding: 149 149 154
Width: 480
VWidth: 0
Flags: HW
LayerCount: 2
Back
Fore
SplineSet
62.5 331.25 m 1
 62.5 737.5 l 1
 250 737.5 l 1
 437.5 737.5 l 1
 437.5 331.25 l 1
 437.5 -75 l 1
 250 -75 l 1
 62.5 -75 l 1
 62.5 331.25 l 1
375 331.25 m 1
 375 675 l 1
 250 675 l 1
 125 675 l 1
 125 331.25 l 1
 125 -12.5 l 1
 250 -12.5 l 1
 375 -12.5 l 1
 375 331.25 l 1
EndSplineSet
Validated: 2621441
EndChar

StartChar: nil
Encoding: 150 150 155
Width: 480
VWidth: 0
Flags: HW
LayerCount: 2
Back
Fore
SplineSet
62.5 331.25 m 1
 62.5 737.5 l 1
 250 737.5 l 1
 437.5 737.5 l 1
 437.5 331.25 l 1
 437.5 -75 l 1
 250 -75 l 1
 62.5 -75 l 1
 62.5 331.25 l 1
375 331.25 m 1
 375 675 l 1
 250 675 l 1
 125 675 l 1
 125 331.25 l 1
 125 -12.5 l 1
 250 -12.5 l 1
 375 -12.5 l 1
 375 331.25 l 1
EndSplineSet
Validated: 2621441
EndChar

StartChar: nil
Encoding: 151 151 156
Width: 480
VWidth: 0
Flags: HW
LayerCount: 2
Back
Fore
SplineSet
62.5 331.25 m 1
 62.5 737.5 l 1
 250 737.5 l 1
 437.5 737.5 l 1
 437.5 331.25 l 1
 437.5 -75 l 1
 250 -75 l 1
 62.5 -75 l 1
 62.5 331.25 l 1
375 331.25 m 1
 375 675 l 1
 250 675 l 1
 125 675 l 1
 125 331.25 l 1
 125 -12.5 l 1
 250 -12.5 l 1
 375 -12.5 l 1
 375 331.25 l 1
EndSplineSet
Validated: 2621441
EndChar

StartChar: nil
Encoding: 152 152 157
Width: 480
VWidth: 0
Flags: HW
LayerCount: 2
Back
Fore
SplineSet
62.5 331.25 m 1
 62.5 737.5 l 1
 250 737.5 l 1
 437.5 737.5 l 1
 437.5 331.25 l 1
 437.5 -75 l 1
 250 -75 l 1
 62.5 -75 l 1
 62.5 331.25 l 1
375 331.25 m 1
 375 675 l 1
 250 675 l 1
 125 675 l 1
 125 331.25 l 1
 125 -12.5 l 1
 250 -12.5 l 1
 375 -12.5 l 1
 375 331.25 l 1
EndSplineSet
Validated: 2621441
EndChar

StartChar: nil
Encoding: 153 153 158
Width: 480
VWidth: 0
Flags: HW
LayerCount: 2
Back
Fore
SplineSet
62.5 331.25 m 1
 62.5 737.5 l 1
 250 737.5 l 1
 437.5 737.5 l 1
 437.5 331.25 l 1
 437.5 -75 l 1
 250 -75 l 1
 62.5 -75 l 1
 62.5 331.25 l 1
375 331.25 m 1
 375 675 l 1
 250 675 l 1
 125 675 l 1
 125 331.25 l 1
 125 -12.5 l 1
 250 -12.5 l 1
 375 -12.5 l 1
 375 331.25 l 1
EndSplineSet
Validated: 2621441
EndChar

StartChar: nil
Encoding: 154 154 159
Width: 480
VWidth: 0
Flags: HW
LayerCount: 2
Back
Fore
SplineSet
62.5 331.25 m 1
 62.5 737.5 l 1
 250 737.5 l 1
 437.5 737.5 l 1
 437.5 331.25 l 1
 437.5 -75 l 1
 250 -75 l 1
 62.5 -75 l 1
 62.5 331.25 l 1
375 331.25 m 1
 375 675 l 1
 250 675 l 1
 125 675 l 1
 125 331.25 l 1
 125 -12.5 l 1
 250 -12.5 l 1
 375 -12.5 l 1
 375 331.25 l 1
EndSplineSet
Validated: 2621441
EndChar

StartChar: nil
Encoding: 155 155 160
Width: 480
VWidth: 0
Flags: HW
LayerCount: 2
Back
Fore
SplineSet
62.5 331.25 m 1
 62.5 737.5 l 1
 250 737.5 l 1
 437.5 737.5 l 1
 437.5 331.25 l 1
 437.5 -75 l 1
 250 -75 l 1
 62.5 -75 l 1
 62.5 331.25 l 1
375 331.25 m 1
 375 675 l 1
 250 675 l 1
 125 675 l 1
 125 331.25 l 1
 125 -12.5 l 1
 250 -12.5 l 1
 375 -12.5 l 1
 375 331.25 l 1
EndSplineSet
Validated: 2621441
EndChar

StartChar: nil
Encoding: 156 156 161
Width: 480
VWidth: 0
Flags: HW
LayerCount: 2
Back
Fore
SplineSet
62.5 331.25 m 1
 62.5 737.5 l 1
 250 737.5 l 1
 437.5 737.5 l 1
 437.5 331.25 l 1
 437.5 -75 l 1
 250 -75 l 1
 62.5 -75 l 1
 62.5 331.25 l 1
375 331.25 m 1
 375 675 l 1
 250 675 l 1
 125 675 l 1
 125 331.25 l 1
 125 -12.5 l 1
 250 -12.5 l 1
 375 -12.5 l 1
 375 331.25 l 1
EndSplineSet
Validated: 2621441
EndChar

StartChar: nil
Encoding: 157 157 162
Width: 480
VWidth: 0
Flags: HW
LayerCount: 2
Back
Fore
SplineSet
62.5 331.25 m 1
 62.5 737.5 l 1
 250 737.5 l 1
 437.5 737.5 l 1
 437.5 331.25 l 1
 437.5 -75 l 1
 250 -75 l 1
 62.5 -75 l 1
 62.5 331.25 l 1
375 331.25 m 1
 375 675 l 1
 250 675 l 1
 125 675 l 1
 125 331.25 l 1
 125 -12.5 l 1
 250 -12.5 l 1
 375 -12.5 l 1
 375 331.25 l 1
EndSplineSet
Validated: 2621441
EndChar

StartChar: nil
Encoding: 158 158 163
Width: 480
VWidth: 0
Flags: HW
LayerCount: 2
Back
Fore
SplineSet
62.5 331.25 m 1
 62.5 737.5 l 1
 250 737.5 l 1
 437.5 737.5 l 1
 437.5 331.25 l 1
 437.5 -75 l 1
 250 -75 l 1
 62.5 -75 l 1
 62.5 331.25 l 1
375 331.25 m 1
 375 675 l 1
 250 675 l 1
 125 675 l 1
 125 331.25 l 1
 125 -12.5 l 1
 250 -12.5 l 1
 375 -12.5 l 1
 375 331.25 l 1
EndSplineSet
Validated: 2621441
EndChar

StartChar: nil
Encoding: 159 159 164
Width: 480
VWidth: 0
Flags: HW
LayerCount: 2
Back
Fore
SplineSet
62.5 331.25 m 1
 62.5 737.5 l 1
 250 737.5 l 1
 437.5 737.5 l 1
 437.5 331.25 l 1
 437.5 -75 l 1
 250 -75 l 1
 62.5 -75 l 1
 62.5 331.25 l 1
375 331.25 m 1
 375 675 l 1
 250 675 l 1
 125 675 l 1
 125 331.25 l 1
 125 -12.5 l 1
 250 -12.5 l 1
 375 -12.5 l 1
 375 331.25 l 1
EndSplineSet
Validated: 2621441
EndChar

StartChar: U+00a1
Encoding: 161 161 166
Width: 480
VWidth: 0
Flags: HW
LayerCount: 2
Back
Fore
SplineSet
250 81.25 m 1
 250 300 l 1
 281.25 300 l 1
 312.5 300 l 1
 312.5 81.25 l 1
 312.5 -137.5 l 1
 281.25 -137.5 l 1
 250 -137.5 l 1
 250 81.25 l 1
250 425 m 1
 250 487.5 l 1
 281.25 487.5 l 1
 312.5 487.5 l 1
 312.5 425 l 1
 312.5 362.5 l 1
 281.25 362.5 l 1
 250 362.5 l 1
 250 425 l 1
EndSplineSet
Validated: 524801
EndChar

StartChar: U+00a2
Encoding: 162 162 167
Width: 480
VWidth: 0
Flags: HW
LayerCount: 2
Back
Fore
SplineSet
250 581.25 m 1
 250 612.5 l 1
 281.25 612.5 l 1
 312.5 612.5 l 1
 312.5 581.25 l 1
 312.5 550 l 1
 343.75 550 l 1
 375 550 l 1
 375 518.75 l 1
 375 487.5 l 1
 406.25 487.5 l 1
 437.5 487.5 l 1
 437.5 456.25 l 1
 437.5 425 l 1
 406.25 425 l 1
 375 425 l 1
 375 456.25 l 1
 375 487.5 l 1
 343.75 487.5 l 1
 312.5 487.5 l 1
 312.5 331.25 l 1
 312.5 175 l 1
 343.75 175 l 1
 375 175 l 1
 375 206.25 l 1
 375 237.5 l 1
 406.25 237.5 l 1
 437.5 237.5 l 1
 437.5 206.25 l 1
 437.5 175 l 1
 406.25 175 l 1
 375 175 l 1
 375 143.75 l 1
 375 112.5 l 1
 343.75 112.5 l 1
 312.5 112.5 l 1
 312.5 81.25 l 1
 312.5 50 l 1
 281.25 50 l 1
 250 50 l 1
 250 81.25 l 1
 250 112.5 l 1
 187.5 112.5 l 1
 125 112.5 l 1
 125 143.75 l 1
 125 175 l 1
 93.75 175 l 1
 62.5 175 l 1
 62.5 331.25 l 1
 62.5 487.5 l 1
 93.75 487.5 l 1
 125 487.5 l 1
 125 518.75 l 1
 125 550 l 1
 187.5 550 l 1
 250 550 l 1
 250 581.25 l 1
250 331.25 m 1
 250 487.5 l 1
 187.5 487.5 l 1
 125 487.5 l 1
 125 331.25 l 1
 125 175 l 1
 187.5 175 l 1
 250 175 l 1
 250 331.25 l 1
EndSplineSet
Validated: 524805
EndChar

StartChar: U+00a3
Encoding: 163 163 168
Width: 480
VWidth: 0
Flags: HW
LayerCount: 2
Back
Fore
SplineSet
187.5 643.75 m 1
 187.5 675 l 1
 281.25 675 l 1
 375 675 l 1
 375 643.75 l 1
 375 612.5 l 1
 406.25 612.5 l 1
 437.5 612.5 l 1
 437.5 581.25 l 1
 437.5 550 l 1
 406.25 550 l 1
 375 550 l 1
 375 581.25 l 1
 375 612.5 l 1
 281.25 612.5 l 1
 187.5 612.5 l 1
 187.5 487.5 l 1
 187.5 362.5 l 1
 250 362.5 l 1
 312.5 362.5 l 1
 312.5 331.25 l 1
 312.5 300 l 1
 250 300 l 1
 187.5 300 l 1
 187.5 206.25 l 1
 187.5 112.5 l 1
 312.5 112.5 l 1
 437.5 112.5 l 1
 437.5 81.25 l 1
 437.5 50 l 1
 250 50 l 1
 62.5 50 l 1
 62.5 81.25 l 1
 62.5 112.5 l 1
 93.75 112.5 l 1
 125 112.5 l 1
 125 206.25 l 1
 125 300 l 1
 93.75 300 l 1
 62.5 300 l 1
 62.5 331.25 l 1
 62.5 362.5 l 1
 93.75 362.5 l 1
 125 362.5 l 1
 125 487.5 l 1
 125 612.5 l 1
 156.25 612.5 l 1
 187.5 612.5 l 1
 187.5 643.75 l 1
EndSplineSet
Validated: 524805
EndChar

StartChar: U+00a5
Encoding: 165 165 169
Width: 480
VWidth: 0
Flags: HW
LayerCount: 2
Back
Fore
SplineSet
62.5 612.5 m 1
 62.5 675 l 1
 93.75 675 l 1
 125 675 l 1
 125 612.5 l 1
 125 550 l 1
 156.25 550 l 1
 187.5 550 l 1
 187.5 487.5 l 1
 187.5 425 l 1
 218.75 425 l 1
 250 425 l 1
 250 487.5 l 1
 250 550 l 1
 281.25 550 l 1
 312.5 550 l 1
 312.5 612.5 l 1
 312.5 675 l 1
 343.75 675 l 1
 375 675 l 1
 375 612.5 l 1
 375 550 l 1
 343.75 550 l 1
 312.5 550 l 1
 312.5 487.5 l 1
 312.5 425 l 1
 281.25 425 l 1
 250 425 l 1
 250 393.75 l 1
 250 362.5 l 1
 312.5 362.5 l 1
 375 362.5 l 1
 375 331.25 l 1
 375 300 l 1
 312.5 300 l 1
 250 300 l 1
 250 268.75 l 1
 250 237.5 l 1
 312.5 237.5 l 1
 375 237.5 l 1
 375 206.25 l 1
 375 175 l 1
 312.5 175 l 1
 250 175 l 1
 250 112.5 l 1
 250 50 l 1
 218.75 50 l 1
 187.5 50 l 1
 187.5 112.5 l 1
 187.5 175 l 1
 125 175 l 1
 62.5 175 l 1
 62.5 206.25 l 1
 62.5 237.5 l 1
 125 237.5 l 1
 187.5 237.5 l 1
 187.5 268.75 l 1
 187.5 300 l 1
 125 300 l 1
 62.5 300 l 1
 62.5 331.25 l 1
 62.5 362.5 l 1
 125 362.5 l 1
 187.5 362.5 l 1
 187.5 393.75 l 1
 187.5 425 l 1
 156.25 425 l 1
 125 425 l 1
 125 487.5 l 1
 125 550 l 1
 93.75 550 l 1
 62.5 550 l 1
 62.5 612.5 l 1
EndSplineSet
Validated: 524805
EndChar

StartChar: U+00a7
Encoding: 167 167 170
Width: 480
VWidth: 0
Flags: HW
LayerCount: 2
Back
Fore
SplineSet
125 643.75 m 1
 125 675 l 1
 250 675 l 1
 375 675 l 1
 375 643.75 l 1
 375 612.5 l 1
 250 612.5 l 1
 125 612.5 l 1
 125 550 l 1
 125 487.5 l 1
 218.75 487.5 l 1
 312.5 487.5 l 1
 312.5 456.25 l 1
 312.5 425 l 1
 343.75 425 l 1
 375 425 l 1
 375 331.25 l 1
 375 237.5 l 1
 343.75 237.5 l 1
 312.5 237.5 l 1
 312.5 206.25 l 1
 312.5 175 l 1
 343.75 175 l 1
 375 175 l 1
 375 112.5 l 1
 375 50 l 1
 343.75 50 l 1
 312.5 50 l 1
 312.5 18.75 l 1
 312.5 -12.5 l 1
 187.5 -12.5 l 1
 62.5 -12.5 l 1
 62.5 18.75 l 1
 62.5 50 l 1
 187.5 50 l 1
 312.5 50 l 1
 312.5 112.5 l 1
 312.5 175 l 1
 218.75 175 l 1
 125 175 l 1
 125 206.25 l 1
 125 237.5 l 1
 93.75 237.5 l 1
 62.5 237.5 l 1
 62.5 331.25 l 1
 62.5 425 l 1
 93.75 425 l 1
 125 425 l 1
 125 456.25 l 1
 125 487.5 l 1
 93.75 487.5 l 1
 62.5 487.5 l 1
 62.5 550 l 1
 62.5 612.5 l 1
 93.75 612.5 l 1
 125 612.5 l 1
 125 643.75 l 1
312.5 331.25 m 1
 312.5 425 l 1
 218.75 425 l 1
 125 425 l 1
 125 331.25 l 1
 125 237.5 l 1
 218.75 237.5 l 1
 312.5 237.5 l 1
 312.5 331.25 l 1
EndSplineSet
Validated: 524805
EndChar

StartChar: U+00ae
Encoding: 169 174 171
Width: 480
VWidth: 0
Flags: HW
LayerCount: 2
Back
Fore
SplineSet
187.5 456.25 m 1
 187.5 550 l 1
 281.25 550 l 1
 375 550 l 1
 375 518.75 l 1
 375 487.5 l 1
 312.5 487.5 l 1
 250 487.5 l 1
 250 456.25 l 1
 250 425 l 1
 312.5 425 l 1
 375 425 l 1
 375 393.75 l 1
 375 362.5 l 1
 281.25 362.5 l 1
 187.5 362.5 l 1
 187.5 456.25 l 1
187.5 706.25 m 1
 187.5 737.5 l 1
 281.25 737.5 l 1
 375 737.5 l 1
 375 706.25 l 1
 375 675 l 1
 406.25 675 l 1
 437.5 675 l 1
 437.5 643.75 l 1
 437.5 612.5 l 1
 468.75 612.5 l 1
 500 612.5 l 1
 500 456.25 l 1
 500 300 l 1
 468.75 300 l 1
 437.5 300 l 1
 437.5 268.75 l 1
 437.5 237.5 l 1
 406.25 237.5 l 1
 375 237.5 l 1
 375 206.25 l 1
 375 175 l 1
 281.25 175 l 1
 187.5 175 l 1
 187.5 206.25 l 1
 187.5 237.5 l 1
 156.25 237.5 l 1
 125 237.5 l 1
 125 268.75 l 1
 125 300 l 1
 93.75 300 l 1
 62.5 300 l 1
 62.5 456.25 l 1
 62.5 612.5 l 1
 93.75 612.5 l 1
 125 612.5 l 1
 125 643.75 l 1
 125 675 l 1
 156.25 675 l 1
 187.5 675 l 1
 187.5 706.25 l 1
375 643.75 m 1
 375 675 l 1
 281.25 675 l 1
 187.5 675 l 1
 187.5 643.75 l 1
 187.5 612.5 l 1
 156.25 612.5 l 1
 125 612.5 l 1
 125 456.25 l 1
 125 300 l 1
 156.25 300 l 1
 187.5 300 l 1
 187.5 268.75 l 1
 187.5 237.5 l 1
 281.25 237.5 l 1
 375 237.5 l 1
 375 268.75 l 1
 375 300 l 1
 406.25 300 l 1
 437.5 300 l 1
 437.5 456.25 l 1
 437.5 612.5 l 1
 406.25 612.5 l 1
 375 612.5 l 1
 375 643.75 l 1
EndSplineSet
Validated: 6816261
EndChar

StartChar: U+00aa
Encoding: 170 170 172
Width: 480
VWidth: 0
Flags: HW
LayerCount: 2
Back
Fore
SplineSet
62.5 206.25 m 1
 62.5 237.5 l 1
 218.75 237.5 l 1
 375 237.5 l 1
 375 206.25 l 1
 375 175 l 1
 218.75 175 l 1
 62.5 175 l 1
 62.5 206.25 l 1
125 643.75 m 1
 125 675 l 1
 218.75 675 l 1
 312.5 675 l 1
 312.5 643.75 l 1
 312.5 612.5 l 1
 343.75 612.5 l 1
 375 612.5 l 1
 375 456.25 l 1
 375 300 l 1
 343.75 300 l 1
 312.5 300 l 1
 312.5 331.25 l 1
 312.5 362.5 l 1
 281.25 362.5 l 1
 250 362.5 l 1
 250 331.25 l 1
 250 300 l 1
 187.5 300 l 1
 125 300 l 1
 125 331.25 l 1
 125 362.5 l 1
 93.75 362.5 l 1
 62.5 362.5 l 1
 62.5 425 l 1
 62.5 487.5 l 1
 93.75 487.5 l 1
 125 487.5 l 1
 125 518.75 l 1
 125 550 l 1
 218.75 550 l 1
 312.5 550 l 1
 312.5 581.25 l 1
 312.5 612.5 l 1
 218.75 612.5 l 1
 125 612.5 l 1
 125 643.75 l 1
312.5 456.25 m 1
 312.5 487.5 l 1
 218.75 487.5 l 1
 125 487.5 l 1
 125 425 l 1
 125 362.5 l 1
 187.5 362.5 l 1
 250 362.5 l 1
 250 393.75 l 1
 250 425 l 1
 281.25 425 l 1
 312.5 425 l 1
 312.5 456.25 l 1
EndSplineSet
Validated: 524805
EndChar

StartChar: U+00ab
Encoding: 171 171 173
Width: 480
VWidth: 0
Flags: HW
LayerCount: 2
Back
Fore
SplineSet
437.5 456.25 m 1
 437.5 487.5 l 1
 468.75 487.5 l 1
 500 487.5 l 1
 500 456.25 l 1
 500 425 l 1
 468.75 425 l 1
 437.5 425 l 1
 437.5 393.75 l 1
 437.5 362.5 l 1
 406.25 362.5 l 1
 375 362.5 l 1
 375 331.25 l 1
 375 300 l 1
 343.75 300 l 1
 312.5 300 l 1
 312.5 268.75 l 1
 312.5 237.5 l 1
 343.75 237.5 l 1
 375 237.5 l 1
 375 206.25 l 1
 375 175 l 1
 406.25 175 l 1
 437.5 175 l 1
 437.5 143.75 l 1
 437.5 112.5 l 1
 468.75 112.5 l 1
 500 112.5 l 1
 500 81.25 l 1
 500 50 l 1
 468.75 50 l 1
 437.5 50 l 1
 437.5 81.25 l 1
 437.5 112.5 l 1
 406.25 112.5 l 1
 375 112.5 l 1
 375 143.75 l 1
 375 175 l 1
 343.75 175 l 1
 312.5 175 l 1
 312.5 206.25 l 1
 312.5 237.5 l 1
 281.25 237.5 l 1
 250 237.5 l 1
 250 268.75 l 1
 250 300 l 1
 281.25 300 l 1
 312.5 300 l 1
 312.5 331.25 l 1
 312.5 362.5 l 1
 343.75 362.5 l 1
 375 362.5 l 1
 375 393.75 l 1
 375 425 l 1
 406.25 425 l 1
 437.5 425 l 1
 437.5 456.25 l 1
250 456.25 m 1
 250 487.5 l 1
 281.25 487.5 l 1
 312.5 487.5 l 1
 312.5 456.25 l 1
 312.5 425 l 1
 281.25 425 l 1
 250 425 l 1
 250 393.75 l 1
 250 362.5 l 1
 218.75 362.5 l 1
 187.5 362.5 l 1
 187.5 331.25 l 1
 187.5 300 l 1
 156.25 300 l 1
 125 300 l 1
 125 268.75 l 1
 125 237.5 l 1
 156.25 237.5 l 1
 187.5 237.5 l 1
 187.5 206.25 l 1
 187.5 175 l 1
 218.75 175 l 1
 250 175 l 1
 250 143.75 l 1
 250 112.5 l 1
 281.25 112.5 l 1
 312.5 112.5 l 1
 312.5 81.25 l 1
 312.5 50 l 1
 281.25 50 l 1
 250 50 l 1
 250 81.25 l 1
 250 112.5 l 1
 218.75 112.5 l 1
 187.5 112.5 l 1
 187.5 143.75 l 1
 187.5 175 l 1
 156.25 175 l 1
 125 175 l 1
 125 206.25 l 1
 125 237.5 l 1
 93.75 237.5 l 1
 62.5 237.5 l 1
 62.5 268.75 l 1
 62.5 300 l 1
 93.75 300 l 1
 125 300 l 1
 125 331.25 l 1
 125 362.5 l 1
 156.25 362.5 l 1
 187.5 362.5 l 1
 187.5 393.75 l 1
 187.5 425 l 1
 218.75 425 l 1
 250 425 l 1
 250 456.25 l 1
EndSplineSet
Validated: 524805
EndChar

StartChar: U+00ac
Encoding: 172 172 174
Width: 480
VWidth: 0
Flags: HW
LayerCount: 2
Back
Fore
SplineSet
62.5 331.25 m 1
 62.5 362.5 l 1
 250 362.5 l 1
 437.5 362.5 l 1
 437.5 237.5 l 1
 437.5 112.5 l 1
 406.25 112.5 l 1
 375 112.5 l 1
 375 206.25 l 1
 375 300 l 1
 218.75 300 l 1
 62.5 300 l 1
 62.5 331.25 l 1
EndSplineSet
Validated: 524801
EndChar

StartChar: U+00ad
Encoding: 173 173 175
Width: 480
VWidth: 0
Flags: HW
LayerCount: 2
Back
Fore
SplineSet
125 331.25 m 1
 125 362.5 l 1
 250 362.5 l 1
 375 362.5 l 1
 375 331.25 l 1
 375 300 l 1
 250 300 l 1
 125 300 l 1
 125 331.25 l 1
EndSplineSet
Validated: 524801
EndChar

StartChar: U+00ae
Encoding: 174 174 176
Width: 480
VWidth: 0
Flags: HW
LayerCount: 2
Back
Fore
SplineSet
187.5 456.25 m 1
 187.5 550 l 1
 281.25 550 l 1
 375 550 l 1
 375 518.75 l 1
 375 487.5 l 1
 312.5 487.5 l 1
 250 487.5 l 1
 250 425 l 1
 250 362.5 l 1
 218.75 362.5 l 1
 187.5 362.5 l 1
 187.5 456.25 l 1
187.5 706.25 m 1
 187.5 737.5 l 1
 281.25 737.5 l 1
 375 737.5 l 1
 375 706.25 l 1
 375 675 l 1
 406.25 675 l 1
 437.5 675 l 1
 437.5 643.75 l 1
 437.5 612.5 l 1
 468.75 612.5 l 1
 500 612.5 l 1
 500 456.25 l 1
 500 300 l 1
 468.75 300 l 1
 437.5 300 l 1
 437.5 268.75 l 1
 437.5 237.5 l 1
 406.25 237.5 l 1
 375 237.5 l 1
 375 206.25 l 1
 375 175 l 1
 281.25 175 l 1
 187.5 175 l 1
 187.5 206.25 l 1
 187.5 237.5 l 1
 156.25 237.5 l 1
 125 237.5 l 1
 125 268.75 l 1
 125 300 l 1
 93.75 300 l 1
 62.5 300 l 1
 62.5 456.25 l 1
 62.5 612.5 l 1
 93.75 612.5 l 1
 125 612.5 l 1
 125 643.75 l 1
 125 675 l 1
 156.25 675 l 1
 187.5 675 l 1
 187.5 706.25 l 1
375 643.75 m 1
 375 675 l 1
 281.25 675 l 1
 187.5 675 l 1
 187.5 643.75 l 1
 187.5 612.5 l 1
 156.25 612.5 l 1
 125 612.5 l 1
 125 456.25 l 1
 125 300 l 1
 156.25 300 l 1
 187.5 300 l 1
 187.5 268.75 l 1
 187.5 237.5 l 1
 281.25 237.5 l 1
 375 237.5 l 1
 375 268.75 l 1
 375 300 l 1
 406.25 300 l 1
 437.5 300 l 1
 437.5 456.25 l 1
 437.5 612.5 l 1
 406.25 612.5 l 1
 375 612.5 l 1
 375 643.75 l 1
EndSplineSet
Validated: 6816261
EndChar

StartChar: U+00af
Encoding: 175 175 177
Width: 480
VWidth: 0
Flags: HW
LayerCount: 2
Back
Fore
SplineSet
62.5 643.75 m 1
 62.5 675 l 1
 250 675 l 1
 437.5 675 l 1
 437.5 643.75 l 1
 437.5 612.5 l 1
 250 612.5 l 1
 62.5 612.5 l 1
 62.5 643.75 l 1
EndSplineSet
Validated: 524801
EndChar

StartChar: U+00b0
Encoding: 176 176 178
Width: 480
VWidth: 0
Flags: HW
LayerCount: 2
Back
Fore
SplineSet
125 643.75 m 1
 125 675 l 1
 218.75 675 l 1
 312.5 675 l 1
 312.5 643.75 l 1
 312.5 612.5 l 1
 343.75 612.5 l 1
 375 612.5 l 1
 375 518.75 l 1
 375 425 l 1
 343.75 425 l 1
 312.5 425 l 1
 312.5 393.75 l 1
 312.5 362.5 l 1
 218.75 362.5 l 1
 125 362.5 l 1
 125 393.75 l 1
 125 425 l 1
 93.75 425 l 1
 62.5 425 l 1
 62.5 518.75 l 1
 62.5 612.5 l 1
 93.75 612.5 l 1
 125 612.5 l 1
 125 643.75 l 1
312.5 518.75 m 1
 312.5 612.5 l 1
 218.75 612.5 l 1
 125 612.5 l 1
 125 518.75 l 1
 125 425 l 1
 218.75 425 l 1
 312.5 425 l 1
 312.5 518.75 l 1
EndSplineSet
Validated: 4719109
EndChar

StartChar: U+00b1
Encoding: 177 177 179
Width: 480
VWidth: 0
Flags: HW
LayerCount: 2
Back
Fore
SplineSet
62.5 18.75 m 1
 62.5 50 l 1
 281.25 50 l 1
 500 50 l 1
 500 18.75 l 1
 500 -12.5 l 1
 281.25 -12.5 l 1
 62.5 -12.5 l 1
 62.5 18.75 l 1
250 456.25 m 1
 250 550 l 1
 281.25 550 l 1
 312.5 550 l 1
 312.5 456.25 l 1
 312.5 362.5 l 1
 406.25 362.5 l 1
 500 362.5 l 1
 500 331.25 l 1
 500 300 l 1
 406.25 300 l 1
 312.5 300 l 1
 312.5 206.25 l 1
 312.5 112.5 l 1
 281.25 112.5 l 1
 250 112.5 l 1
 250 206.25 l 1
 250 300 l 1
 156.25 300 l 1
 62.5 300 l 1
 62.5 331.25 l 1
 62.5 362.5 l 1
 156.25 362.5 l 1
 250 362.5 l 1
 250 456.25 l 1
EndSplineSet
Validated: 524801
EndChar

StartChar: U+00b2
Encoding: 178 178 180
Width: 480
VWidth: 0
Flags: HW
LayerCount: 2
Back
Fore
SplineSet
125 706.25 m 1
 125 737.5 l 1
 218.75 737.5 l 1
 312.5 737.5 l 1
 312.5 706.25 l 1
 312.5 675 l 1
 343.75 675 l 1
 375 675 l 1
 375 643.75 l 1
 375 612.5 l 1
 343.75 612.5 l 1
 312.5 612.5 l 1
 312.5 581.25 l 1
 312.5 550 l 1
 281.25 550 l 1
 250 550 l 1
 250 518.75 l 1
 250 487.5 l 1
 218.75 487.5 l 1
 187.5 487.5 l 1
 187.5 456.25 l 1
 187.5 425 l 1
 281.25 425 l 1
 375 425 l 1
 375 393.75 l 1
 375 362.5 l 1
 218.75 362.5 l 1
 62.5 362.5 l 1
 62.5 393.75 l 1
 62.5 425 l 1
 93.75 425 l 1
 125 425 l 1
 125 456.25 l 1
 125 487.5 l 1
 156.25 487.5 l 1
 187.5 487.5 l 1
 187.5 518.75 l 1
 187.5 550 l 1
 218.75 550 l 1
 250 550 l 1
 250 581.25 l 1
 250 612.5 l 1
 281.25 612.5 l 1
 312.5 612.5 l 1
 312.5 643.75 l 1
 312.5 675 l 1
 218.75 675 l 1
 125 675 l 1
 125 643.75 l 1
 125 612.5 l 1
 93.75 612.5 l 1
 62.5 612.5 l 1
 62.5 643.75 l 1
 62.5 675 l 1
 93.75 675 l 1
 125 675 l 1
 125 706.25 l 1
EndSplineSet
Validated: 524805
EndChar

StartChar: U+00b3
Encoding: 179 179 181
Width: 480
VWidth: 0
Flags: HW
LayerCount: 2
Back
Fore
SplineSet
62.5 706.25 m 1
 62.5 737.5 l 1
 218.75 737.5 l 1
 375 737.5 l 1
 375 706.25 l 1
 375 675 l 1
 343.75 675 l 1
 312.5 675 l 1
 312.5 612.5 l 1
 312.5 550 l 1
 343.75 550 l 1
 375 550 l 1
 375 487.5 l 1
 375 425 l 1
 343.75 425 l 1
 312.5 425 l 1
 312.5 393.75 l 1
 312.5 362.5 l 1
 218.75 362.5 l 1
 125 362.5 l 1
 125 393.75 l 1
 125 425 l 1
 93.75 425 l 1
 62.5 425 l 1
 62.5 456.25 l 1
 62.5 487.5 l 1
 93.75 487.5 l 1
 125 487.5 l 1
 125 456.25 l 1
 125 425 l 1
 218.75 425 l 1
 312.5 425 l 1
 312.5 487.5 l 1
 312.5 550 l 1
 250 550 l 1
 187.5 550 l 1
 187.5 581.25 l 1
 187.5 612.5 l 1
 218.75 612.5 l 1
 250 612.5 l 1
 250 643.75 l 1
 250 675 l 1
 156.25 675 l 1
 62.5 675 l 1
 62.5 706.25 l 1
EndSplineSet
Validated: 524805
EndChar

StartChar: U+00b5
Encoding: 181 181 182
Width: 480
VWidth: 0
Flags: HW
LayerCount: 2
Back
Fore
SplineSet
62.5 237.5 m 1
 62.5 487.5 l 1
 93.75 487.5 l 1
 125 487.5 l 1
 125 331.25 l 1
 125 175 l 1
 187.5 175 l 1
 250 175 l 1
 250 206.25 l 1
 250 237.5 l 1
 281.25 237.5 l 1
 312.5 237.5 l 1
 312.5 362.5 l 1
 312.5 487.5 l 1
 343.75 487.5 l 1
 375 487.5 l 1
 375 331.25 l 1
 375 175 l 1
 406.25 175 l 1
 437.5 175 l 1
 437.5 143.75 l 1
 437.5 112.5 l 1
 406.25 112.5 l 1
 375 112.5 l 1
 375 143.75 l 1
 375 175 l 1
 343.75 175 l 1
 312.5 175 l 1
 312.5 143.75 l 1
 312.5 112.5 l 1
 218.75 112.5 l 1
 125 112.5 l 1
 125 50 l 1
 125 -12.5 l 1
 93.75 -12.5 l 1
 62.5 -12.5 l 1
 62.5 237.5 l 1
EndSplineSet
Validated: 524805
EndChar

StartChar: U+00b6
Encoding: 182 182 183
Width: 480
VWidth: 0
Flags: HW
LayerCount: 2
Back
Fore
SplineSet
125 643.75 m 1
 125 675 l 1
 312.5 675 l 1
 500 675 l 1
 500 362.5 l 1
 500 50 l 1
 468.75 50 l 1
 437.5 50 l 1
 437.5 331.25 l 1
 437.5 612.5 l 1
 375 612.5 l 1
 312.5 612.5 l 1
 312.5 331.25 l 1
 312.5 50 l 1
 281.25 50 l 1
 250 50 l 1
 250 175 l 1
 250 300 l 1
 187.5 300 l 1
 125 300 l 1
 125 331.25 l 1
 125 362.5 l 1
 93.75 362.5 l 1
 62.5 362.5 l 1
 62.5 487.5 l 1
 62.5 612.5 l 1
 93.75 612.5 l 1
 125 612.5 l 1
 125 643.75 l 1
250 487.5 m 1
 250 612.5 l 1
 218.75 612.5 l 1
 187.5 612.5 l 1
 187.5 581.25 l 1
 187.5 550 l 1
 156.25 550 l 1
 125 550 l 1
 125 487.5 l 1
 125 425 l 1
 156.25 425 l 1
 187.5 425 l 1
 187.5 393.75 l 1
 187.5 362.5 l 1
 218.75 362.5 l 1
 250 362.5 l 1
 250 487.5 l 1
EndSplineSet
Validated: 524801
EndChar

StartChar: U+00b7
Encoding: 183 183 184
Width: 480
VWidth: 0
Flags: HW
LayerCount: 2
Back
Fore
SplineSet
187.5 393.75 m 1
 187.5 425 l 1
 218.75 425 l 1
 250 425 l 1
 250 393.75 l 1
 250 362.5 l 1
 281.25 362.5 l 1
 312.5 362.5 l 1
 312.5 331.25 l 1
 312.5 300 l 1
 281.25 300 l 1
 250 300 l 1
 250 268.75 l 1
 250 237.5 l 1
 218.75 237.5 l 1
 187.5 237.5 l 1
 187.5 268.75 l 1
 187.5 300 l 1
 156.25 300 l 1
 125 300 l 1
 125 331.25 l 1
 125 362.5 l 1
 156.25 362.5 l 1
 187.5 362.5 l 1
 187.5 393.75 l 1
EndSplineSet
Validated: 524801
EndChar

StartChar: U+00b9
Encoding: 185 185 185
Width: 480
VWidth: 0
Flags: HW
LayerCount: 2
Back
Fore
SplineSet
250 706.25 m 1
 250 737.5 l 1
 281.25 737.5 l 1
 312.5 737.5 l 1
 312.5 550 l 1
 312.5 362.5 l 1
 281.25 362.5 l 1
 250 362.5 l 1
 250 487.5 l 1
 250 612.5 l 1
 218.75 612.5 l 1
 187.5 612.5 l 1
 187.5 581.25 l 1
 187.5 550 l 1
 156.25 550 l 1
 125 550 l 1
 125 581.25 l 1
 125 612.5 l 1
 156.25 612.5 l 1
 187.5 612.5 l 1
 187.5 643.75 l 1
 187.5 675 l 1
 218.75 675 l 1
 250 675 l 1
 250 706.25 l 1
EndSplineSet
Validated: 524805
EndChar

StartChar: U+00ba
Encoding: 186 186 186
Width: 480
VWidth: 0
Flags: HW
LayerCount: 2
Back
Fore
SplineSet
62.5 206.25 m 1
 62.5 237.5 l 1
 218.75 237.5 l 1
 375 237.5 l 1
 375 206.25 l 1
 375 175 l 1
 218.75 175 l 1
 62.5 175 l 1
 62.5 206.25 l 1
125 643.75 m 1
 125 675 l 1
 218.75 675 l 1
 312.5 675 l 1
 312.5 643.75 l 1
 312.5 612.5 l 1
 343.75 612.5 l 1
 375 612.5 l 1
 375 487.5 l 1
 375 362.5 l 1
 343.75 362.5 l 1
 312.5 362.5 l 1
 312.5 331.25 l 1
 312.5 300 l 1
 218.75 300 l 1
 125 300 l 1
 125 331.25 l 1
 125 362.5 l 1
 93.75 362.5 l 1
 62.5 362.5 l 1
 62.5 487.5 l 1
 62.5 612.5 l 1
 93.75 612.5 l 1
 125 612.5 l 1
 125 643.75 l 1
312.5 487.5 m 1
 312.5 612.5 l 1
 218.75 612.5 l 1
 125 612.5 l 1
 125 487.5 l 1
 125 362.5 l 1
 218.75 362.5 l 1
 312.5 362.5 l 1
 312.5 487.5 l 1
EndSplineSet
Validated: 524805
EndChar

StartChar: U+00bb
Encoding: 187 187 187
Width: 480
VWidth: 0
Flags: HW
LayerCount: 2
Back
Fore
SplineSet
250 456.25 m 1
 250 487.5 l 1
 281.25 487.5 l 1
 312.5 487.5 l 1
 312.5 456.25 l 1
 312.5 425 l 1
 343.75 425 l 1
 375 425 l 1
 375 393.75 l 1
 375 362.5 l 1
 406.25 362.5 l 1
 437.5 362.5 l 1
 437.5 331.25 l 1
 437.5 300 l 1
 468.75 300 l 1
 500 300 l 1
 500 268.75 l 1
 500 237.5 l 1
 468.75 237.5 l 1
 437.5 237.5 l 1
 437.5 206.25 l 1
 437.5 175 l 1
 406.25 175 l 1
 375 175 l 1
 375 143.75 l 1
 375 112.5 l 1
 343.75 112.5 l 1
 312.5 112.5 l 1
 312.5 81.25 l 1
 312.5 50 l 1
 281.25 50 l 1
 250 50 l 1
 250 81.25 l 1
 250 112.5 l 1
 281.25 112.5 l 1
 312.5 112.5 l 1
 312.5 143.75 l 1
 312.5 175 l 1
 343.75 175 l 1
 375 175 l 1
 375 206.25 l 1
 375 237.5 l 1
 406.25 237.5 l 1
 437.5 237.5 l 1
 437.5 268.75 l 1
 437.5 300 l 1
 406.25 300 l 1
 375 300 l 1
 375 331.25 l 1
 375 362.5 l 1
 343.75 362.5 l 1
 312.5 362.5 l 1
 312.5 393.75 l 1
 312.5 425 l 1
 281.25 425 l 1
 250 425 l 1
 250 456.25 l 1
62.5 456.25 m 1
 62.5 487.5 l 1
 93.75 487.5 l 1
 125 487.5 l 1
 125 456.25 l 1
 125 425 l 1
 156.25 425 l 1
 187.5 425 l 1
 187.5 393.75 l 1
 187.5 362.5 l 1
 218.75 362.5 l 1
 250 362.5 l 1
 250 331.25 l 1
 250 300 l 1
 281.25 300 l 1
 312.5 300 l 1
 312.5 268.75 l 1
 312.5 237.5 l 1
 281.25 237.5 l 1
 250 237.5 l 1
 250 206.25 l 1
 250 175 l 1
 218.75 175 l 1
 187.5 175 l 1
 187.5 143.75 l 1
 187.5 112.5 l 1
 156.25 112.5 l 1
 125 112.5 l 1
 125 81.25 l 1
 125 50 l 1
 93.75 50 l 1
 62.5 50 l 1
 62.5 81.25 l 1
 62.5 112.5 l 1
 93.75 112.5 l 1
 125 112.5 l 1
 125 143.75 l 1
 125 175 l 1
 156.25 175 l 1
 187.5 175 l 1
 187.5 206.25 l 1
 187.5 237.5 l 1
 218.75 237.5 l 1
 250 237.5 l 1
 250 268.75 l 1
 250 300 l 1
 218.75 300 l 1
 187.5 300 l 1
 187.5 331.25 l 1
 187.5 362.5 l 1
 156.25 362.5 l 1
 125 362.5 l 1
 125 393.75 l 1
 125 425 l 1
 93.75 425 l 1
 62.5 425 l 1
 62.5 456.25 l 1
EndSplineSet
Validated: 524805
EndChar

StartChar: U+00bc
Encoding: 188 188 188
Width: 480
VWidth: 0
Flags: HW
LayerCount: 2
Back
Fore
SplineSet
375 331.25 m 1
 375 362.5 l 1
 406.25 362.5 l 1
 437.5 362.5 l 1
 437.5 175 l 1
 437.5 -12.5 l 1
 406.25 -12.5 l 1
 375 -12.5 l 1
 375 18.75 l 1
 375 50 l 1
 281.25 50 l 1
 187.5 50 l 1
 187.5 112.5 l 1
 187.5 175 l 1
 218.75 175 l 1
 250 175 l 1
 250 206.25 l 1
 250 237.5 l 1
 281.25 237.5 l 1
 312.5 237.5 l 1
 312.5 268.75 l 1
 312.5 300 l 1
 343.75 300 l 1
 375 300 l 1
 375 331.25 l 1
375 175 m 1
 375 237.5 l 1
 343.75 237.5 l 1
 312.5 237.5 l 1
 312.5 206.25 l 1
 312.5 175 l 1
 281.25 175 l 1
 250 175 l 1
 250 143.75 l 1
 250 112.5 l 1
 312.5 112.5 l 1
 375 112.5 l 1
 375 175 l 1
125 706.25 m 1
 125 737.5 l 1
 156.25 737.5 l 1
 187.5 737.5 l 1
 187.5 550 l 1
 187.5 362.5 l 1
 156.25 362.5 l 1
 125 362.5 l 1
 125 487.5 l 1
 125 612.5 l 1
 93.75 612.5 l 1
 62.5 612.5 l 1
 62.5 643.75 l 1
 62.5 675 l 1
 93.75 675 l 1
 125 675 l 1
 125 706.25 l 1
EndSplineSet
Validated: 524805
EndChar

StartChar: U+00bd
Encoding: 189 189 189
Width: 480
VWidth: 0
Flags: HW
LayerCount: 2
Back
Fore
SplineSet
250 331.25 m 1
 250 362.5 l 1
 312.5 362.5 l 1
 375 362.5 l 1
 375 331.25 l 1
 375 300 l 1
 406.25 300 l 1
 437.5 300 l 1
 437.5 237.5 l 1
 437.5 175 l 1
 406.25 175 l 1
 375 175 l 1
 375 143.75 l 1
 375 112.5 l 1
 343.75 112.5 l 1
 312.5 112.5 l 1
 312.5 81.25 l 1
 312.5 50 l 1
 375 50 l 1
 437.5 50 l 1
 437.5 18.75 l 1
 437.5 -12.5 l 1
 312.5 -12.5 l 1
 187.5 -12.5 l 1
 187.5 18.75 l 1
 187.5 50 l 1
 218.75 50 l 1
 250 50 l 1
 250 81.25 l 1
 250 112.5 l 1
 281.25 112.5 l 1
 312.5 112.5 l 1
 312.5 143.75 l 1
 312.5 175 l 1
 343.75 175 l 1
 375 175 l 1
 375 237.5 l 1
 375 300 l 1
 312.5 300 l 1
 250 300 l 1
 250 268.75 l 1
 250 237.5 l 1
 218.75 237.5 l 1
 187.5 237.5 l 1
 187.5 268.75 l 1
 187.5 300 l 1
 218.75 300 l 1
 250 300 l 1
 250 331.25 l 1
125 706.25 m 1
 125 737.5 l 1
 156.25 737.5 l 1
 187.5 737.5 l 1
 187.5 550 l 1
 187.5 362.5 l 1
 156.25 362.5 l 1
 125 362.5 l 1
 125 487.5 l 1
 125 612.5 l 1
 93.75 612.5 l 1
 62.5 612.5 l 1
 62.5 643.75 l 1
 62.5 675 l 1
 93.75 675 l 1
 125 675 l 1
 125 706.25 l 1
EndSplineSet
Validated: 524805
EndChar

StartChar: U+00be
Encoding: 190 190 190
Width: 480
VWidth: 0
Flags: HW
LayerCount: 2
Back
Fore
SplineSet
375 331.25 m 1
 375 362.5 l 1
 406.25 362.5 l 1
 437.5 362.5 l 1
 437.5 175 l 1
 437.5 -12.5 l 1
 406.25 -12.5 l 1
 375 -12.5 l 1
 375 18.75 l 1
 375 50 l 1
 281.25 50 l 1
 187.5 50 l 1
 187.5 112.5 l 1
 187.5 175 l 1
 218.75 175 l 1
 250 175 l 1
 250 206.25 l 1
 250 237.5 l 1
 281.25 237.5 l 1
 312.5 237.5 l 1
 312.5 268.75 l 1
 312.5 300 l 1
 343.75 300 l 1
 375 300 l 1
 375 331.25 l 1
375 175 m 1
 375 237.5 l 1
 343.75 237.5 l 1
 312.5 237.5 l 1
 312.5 206.25 l 1
 312.5 175 l 1
 281.25 175 l 1
 250 175 l 1
 250 143.75 l 1
 250 112.5 l 1
 312.5 112.5 l 1
 375 112.5 l 1
 375 175 l 1
62.5 706.25 m 1
 62.5 737.5 l 1
 187.5 737.5 l 1
 312.5 737.5 l 1
 312.5 706.25 l 1
 312.5 675 l 1
 281.25 675 l 1
 250 675 l 1
 250 612.5 l 1
 250 550 l 1
 281.25 550 l 1
 312.5 550 l 1
 312.5 487.5 l 1
 312.5 425 l 1
 281.25 425 l 1
 250 425 l 1
 250 393.75 l 1
 250 362.5 l 1
 187.5 362.5 l 1
 125 362.5 l 1
 125 393.75 l 1
 125 425 l 1
 93.75 425 l 1
 62.5 425 l 1
 62.5 456.25 l 1
 62.5 487.5 l 1
 93.75 487.5 l 1
 125 487.5 l 1
 125 456.25 l 1
 125 425 l 1
 187.5 425 l 1
 250 425 l 1
 250 487.5 l 1
 250 550 l 1
 187.5 550 l 1
 125 550 l 1
 125 581.25 l 1
 125 612.5 l 1
 156.25 612.5 l 1
 187.5 612.5 l 1
 187.5 643.75 l 1
 187.5 675 l 1
 125 675 l 1
 62.5 675 l 1
 62.5 706.25 l 1
EndSplineSet
Validated: 524805
EndChar

StartChar: U+00bf
Encoding: 191 191 191
Width: 480
VWidth: 0
Flags: HW
LayerCount: 2
Back
Fore
SplineSet
312.5 237.5 m 1
 312.5 300 l 1
 343.75 300 l 1
 375 300 l 1
 375 237.5 l 1
 375 175 l 1
 343.75 175 l 1
 312.5 175 l 1
 312.5 143.75 l 1
 312.5 112.5 l 1
 281.25 112.5 l 1
 250 112.5 l 1
 250 81.25 l 1
 250 50 l 1
 218.75 50 l 1
 187.5 50 l 1
 187.5 18.75 l 1
 187.5 -12.5 l 1
 218.75 -12.5 l 1
 250 -12.5 l 1
 250 -43.75 l 1
 250 -75 l 1
 343.75 -75 l 1
 437.5 -75 l 1
 437.5 -106.25 l 1
 437.5 -137.5 l 1
 312.5 -137.5 l 1
 187.5 -137.5 l 1
 187.5 -106.25 l 1
 187.5 -75 l 1
 156.25 -75 l 1
 125 -75 l 1
 125 -12.5 l 1
 125 50 l 1
 156.25 50 l 1
 187.5 50 l 1
 187.5 81.25 l 1
 187.5 112.5 l 1
 218.75 112.5 l 1
 250 112.5 l 1
 250 143.75 l 1
 250 175 l 1
 281.25 175 l 1
 312.5 175 l 1
 312.5 237.5 l 1
312.5 425 m 1
 312.5 487.5 l 1
 343.75 487.5 l 1
 375 487.5 l 1
 375 425 l 1
 375 362.5 l 1
 343.75 362.5 l 1
 312.5 362.5 l 1
 312.5 425 l 1
EndSplineSet
Validated: 524805
EndChar

StartChar: U+00c0
Encoding: 192 192 192
Width: 480
VWidth: 0
Flags: HW
LayerCount: 2
Back
Fore
SplineSet
125 518.75 m 1
 125 550 l 1
 250 550 l 1
 375 550 l 1
 375 518.75 l 1
 375 487.5 l 1
 406.25 487.5 l 1
 437.5 487.5 l 1
 437.5 268.75 l 1
 437.5 50 l 1
 406.25 50 l 1
 375 50 l 1
 375 143.75 l 1
 375 237.5 l 1
 250 237.5 l 1
 125 237.5 l 1
 125 143.75 l 1
 125 50 l 1
 93.75 50 l 1
 62.5 50 l 1
 62.5 268.75 l 1
 62.5 487.5 l 1
 93.75 487.5 l 1
 125 487.5 l 1
 125 518.75 l 1
375 393.75 m 1
 375 487.5 l 1
 250 487.5 l 1
 125 487.5 l 1
 125 393.75 l 1
 125 300 l 1
 250 300 l 1
 375 300 l 1
 375 393.75 l 1
125 706.25 m 1
 125 737.5 l 1
 187.5 737.5 l 1
 250 737.5 l 1
 250 706.25 l 1
 250 675 l 1
 312.5 675 l 1
 375 675 l 1
 375 643.75 l 1
 375 612.5 l 1
 312.5 612.5 l 1
 250 612.5 l 1
 250 643.75 l 1
 250 675 l 1
 187.5 675 l 1
 125 675 l 1
 125 706.25 l 1
EndSplineSet
Validated: 524805
EndChar

StartChar: U+00c1
Encoding: 193 193 193
Width: 480
VWidth: 0
Flags: HW
LayerCount: 2
Back
Fore
SplineSet
125 518.75 m 1
 125 550 l 1
 250 550 l 1
 375 550 l 1
 375 518.75 l 1
 375 487.5 l 1
 406.25 487.5 l 1
 437.5 487.5 l 1
 437.5 268.75 l 1
 437.5 50 l 1
 406.25 50 l 1
 375 50 l 1
 375 143.75 l 1
 375 237.5 l 1
 250 237.5 l 1
 125 237.5 l 1
 125 143.75 l 1
 125 50 l 1
 93.75 50 l 1
 62.5 50 l 1
 62.5 268.75 l 1
 62.5 487.5 l 1
 93.75 487.5 l 1
 125 487.5 l 1
 125 518.75 l 1
375 393.75 m 1
 375 487.5 l 1
 250 487.5 l 1
 125 487.5 l 1
 125 393.75 l 1
 125 300 l 1
 250 300 l 1
 375 300 l 1
 375 393.75 l 1
250 706.25 m 1
 250 737.5 l 1
 312.5 737.5 l 1
 375 737.5 l 1
 375 706.25 l 1
 375 675 l 1
 312.5 675 l 1
 250 675 l 1
 250 643.75 l 1
 250 612.5 l 1
 187.5 612.5 l 1
 125 612.5 l 1
 125 643.75 l 1
 125 675 l 1
 187.5 675 l 1
 250 675 l 1
 250 706.25 l 1
EndSplineSet
Validated: 524805
EndChar

StartChar: U+00c2
Encoding: 194 194 194
Width: 480
VWidth: 0
Flags: HW
LayerCount: 2
Back
Fore
SplineSet
125 518.75 m 1
 125 550 l 1
 250 550 l 1
 375 550 l 1
 375 518.75 l 1
 375 487.5 l 1
 406.25 487.5 l 1
 437.5 487.5 l 1
 437.5 268.75 l 1
 437.5 50 l 1
 406.25 50 l 1
 375 50 l 1
 375 143.75 l 1
 375 237.5 l 1
 250 237.5 l 1
 125 237.5 l 1
 125 143.75 l 1
 125 50 l 1
 93.75 50 l 1
 62.5 50 l 1
 62.5 268.75 l 1
 62.5 487.5 l 1
 93.75 487.5 l 1
 125 487.5 l 1
 125 518.75 l 1
375 393.75 m 1
 375 487.5 l 1
 250 487.5 l 1
 125 487.5 l 1
 125 393.75 l 1
 125 300 l 1
 250 300 l 1
 375 300 l 1
 375 393.75 l 1
187.5 706.25 m 1
 187.5 737.5 l 1
 250 737.5 l 1
 312.5 737.5 l 1
 312.5 706.25 l 1
 312.5 675 l 1
 343.75 675 l 1
 375 675 l 1
 375 643.75 l 1
 375 612.5 l 1
 343.75 612.5 l 1
 312.5 612.5 l 1
 312.5 643.75 l 1
 312.5 675 l 1
 250 675 l 1
 187.5 675 l 1
 187.5 643.75 l 1
 187.5 612.5 l 1
 156.25 612.5 l 1
 125 612.5 l 1
 125 643.75 l 1
 125 675 l 1
 156.25 675 l 1
 187.5 675 l 1
 187.5 706.25 l 1
EndSplineSet
Validated: 524805
EndChar

StartChar: U+00c3
Encoding: 195 195 195
Width: 480
VWidth: 0
Flags: HW
LayerCount: 2
Back
Fore
SplineSet
125 518.75 m 1
 125 550 l 1
 250 550 l 1
 375 550 l 1
 375 518.75 l 1
 375 487.5 l 1
 406.25 487.5 l 1
 437.5 487.5 l 1
 437.5 268.75 l 1
 437.5 50 l 1
 406.25 50 l 1
 375 50 l 1
 375 143.75 l 1
 375 237.5 l 1
 250 237.5 l 1
 125 237.5 l 1
 125 143.75 l 1
 125 50 l 1
 93.75 50 l 1
 62.5 50 l 1
 62.5 268.75 l 1
 62.5 487.5 l 1
 93.75 487.5 l 1
 125 487.5 l 1
 125 518.75 l 1
375 393.75 m 1
 375 487.5 l 1
 250 487.5 l 1
 125 487.5 l 1
 125 393.75 l 1
 125 300 l 1
 250 300 l 1
 375 300 l 1
 375 393.75 l 1
125 706.25 m 1
 125 737.5 l 1
 187.5 737.5 l 1
 250 737.5 l 1
 250 706.25 l 1
 250 675 l 1
 312.5 675 l 1
 375 675 l 1
 375 706.25 l 1
 375 737.5 l 1
 406.25 737.5 l 1
 437.5 737.5 l 1
 437.5 706.25 l 1
 437.5 675 l 1
 406.25 675 l 1
 375 675 l 1
 375 643.75 l 1
 375 612.5 l 1
 312.5 612.5 l 1
 250 612.5 l 1
 250 643.75 l 1
 250 675 l 1
 187.5 675 l 1
 125 675 l 1
 125 643.75 l 1
 125 612.5 l 1
 93.75 612.5 l 1
 62.5 612.5 l 1
 62.5 643.75 l 1
 62.5 675 l 1
 93.75 675 l 1
 125 675 l 1
 125 706.25 l 1
EndSplineSet
Validated: 524805
EndChar

StartChar: U+00c4
Encoding: 196 196 196
Width: 480
VWidth: 0
Flags: HW
LayerCount: 2
Back
Fore
SplineSet
125 518.75 m 1
 125 550 l 1
 250 550 l 1
 375 550 l 1
 375 518.75 l 1
 375 487.5 l 1
 406.25 487.5 l 1
 437.5 487.5 l 1
 437.5 268.75 l 1
 437.5 50 l 1
 406.25 50 l 1
 375 50 l 1
 375 143.75 l 1
 375 237.5 l 1
 250 237.5 l 1
 125 237.5 l 1
 125 143.75 l 1
 125 50 l 1
 93.75 50 l 1
 62.5 50 l 1
 62.5 268.75 l 1
 62.5 487.5 l 1
 93.75 487.5 l 1
 125 487.5 l 1
 125 518.75 l 1
375 393.75 m 1
 375 487.5 l 1
 250 487.5 l 1
 125 487.5 l 1
 125 393.75 l 1
 125 300 l 1
 250 300 l 1
 375 300 l 1
 375 393.75 l 1
312.5 675 m 1
 312.5 737.5 l 1
 343.75 737.5 l 1
 375 737.5 l 1
 375 675 l 1
 375 612.5 l 1
 343.75 612.5 l 1
 312.5 612.5 l 1
 312.5 675 l 1
125 675 m 1
 125 737.5 l 1
 156.25 737.5 l 1
 187.5 737.5 l 1
 187.5 675 l 1
 187.5 612.5 l 1
 156.25 612.5 l 1
 125 612.5 l 1
 125 675 l 1
EndSplineSet
Validated: 524805
EndChar

StartChar: U+00c5
Encoding: 197 197 197
Width: 480
VWidth: 0
Flags: HW
LayerCount: 2
Back
Fore
SplineSet
187.5 706.25 m 1
 187.5 737.5 l 1
 250 737.5 l 1
 312.5 737.5 l 1
 312.5 706.25 l 1
 312.5 675 l 1
 343.75 675 l 1
 375 675 l 1
 375 643.75 l 1
 375 612.5 l 1
 343.75 612.5 l 1
 312.5 612.5 l 1
 312.5 581.25 l 1
 312.5 550 l 1
 343.75 550 l 1
 375 550 l 1
 375 518.75 l 1
 375 487.5 l 1
 406.25 487.5 l 1
 437.5 487.5 l 1
 437.5 268.75 l 1
 437.5 50 l 1
 406.25 50 l 1
 375 50 l 1
 375 143.75 l 1
 375 237.5 l 1
 250 237.5 l 1
 125 237.5 l 1
 125 143.75 l 1
 125 50 l 1
 93.75 50 l 1
 62.5 50 l 1
 62.5 268.75 l 1
 62.5 487.5 l 1
 93.75 487.5 l 1
 125 487.5 l 1
 125 518.75 l 1
 125 550 l 1
 156.25 550 l 1
 187.5 550 l 1
 187.5 581.25 l 1
 187.5 612.5 l 1
 156.25 612.5 l 1
 125 612.5 l 1
 125 643.75 l 1
 125 675 l 1
 156.25 675 l 1
 187.5 675 l 1
 187.5 706.25 l 1
312.5 643.75 m 1
 312.5 675 l 1
 250 675 l 1
 187.5 675 l 1
 187.5 643.75 l 1
 187.5 612.5 l 1
 250 612.5 l 1
 312.5 612.5 l 1
 312.5 643.75 l 1
375 393.75 m 1
 375 487.5 l 1
 250 487.5 l 1
 125 487.5 l 1
 125 393.75 l 1
 125 300 l 1
 250 300 l 1
 375 300 l 1
 375 393.75 l 1
EndSplineSet
Validated: 524805
EndChar

StartChar: U+00c6
Encoding: 198 198 198
Width: 480
VWidth: 0
Flags: HW
LayerCount: 2
Back
Fore
SplineSet
125 643.75 m 1
 125 675 l 1
 281.25 675 l 1
 437.5 675 l 1
 437.5 643.75 l 1
 437.5 612.5 l 1
 375 612.5 l 1
 312.5 612.5 l 1
 312.5 518.75 l 1
 312.5 425 l 1
 375 425 l 1
 437.5 425 l 1
 437.5 393.75 l 1
 437.5 362.5 l 1
 375 362.5 l 1
 312.5 362.5 l 1
 312.5 237.5 l 1
 312.5 112.5 l 1
 375 112.5 l 1
 437.5 112.5 l 1
 437.5 81.25 l 1
 437.5 50 l 1
 343.75 50 l 1
 250 50 l 1
 250 175 l 1
 250 300 l 1
 187.5 300 l 1
 125 300 l 1
 125 175 l 1
 125 50 l 1
 93.75 50 l 1
 62.5 50 l 1
 62.5 331.25 l 1
 62.5 612.5 l 1
 93.75 612.5 l 1
 125 612.5 l 1
 125 643.75 l 1
250 487.5 m 1
 250 612.5 l 1
 187.5 612.5 l 1
 125 612.5 l 1
 125 487.5 l 1
 125 362.5 l 1
 187.5 362.5 l 1
 250 362.5 l 1
 250 487.5 l 1
EndSplineSet
Validated: 524805
EndChar

StartChar: U+00c7
Encoding: 199 199 199
Width: 480
VWidth: 0
Flags: HW
LayerCount: 2
Back
Fore
SplineSet
125 643.75 m 1
 125 675 l 1
 250 675 l 1
 375 675 l 1
 375 643.75 l 1
 375 612.5 l 1
 406.25 612.5 l 1
 437.5 612.5 l 1
 437.5 550 l 1
 437.5 487.5 l 1
 406.25 487.5 l 1
 375 487.5 l 1
 375 550 l 1
 375 612.5 l 1
 250 612.5 l 1
 125 612.5 l 1
 125 362.5 l 1
 125 112.5 l 1
 250 112.5 l 1
 375 112.5 l 1
 375 175 l 1
 375 237.5 l 1
 406.25 237.5 l 1
 437.5 237.5 l 1
 437.5 175 l 1
 437.5 112.5 l 1
 406.25 112.5 l 1
 375 112.5 l 1
 375 81.25 l 1
 375 50 l 1
 343.75 50 l 1
 312.5 50 l 1
 312.5 18.75 l 1
 312.5 -12.5 l 1
 281.25 -12.5 l 1
 250 -12.5 l 1
 250 -43.75 l 1
 250 -75 l 1
 187.5 -75 l 1
 125 -75 l 1
 125 -43.75 l 1
 125 -12.5 l 1
 187.5 -12.5 l 1
 250 -12.5 l 1
 250 18.75 l 1
 250 50 l 1
 187.5 50 l 1
 125 50 l 1
 125 81.25 l 1
 125 112.5 l 1
 93.75 112.5 l 1
 62.5 112.5 l 1
 62.5 362.5 l 1
 62.5 612.5 l 1
 93.75 612.5 l 1
 125 612.5 l 1
 125 643.75 l 1
EndSplineSet
Validated: 524805
EndChar

StartChar: U+00c8
Encoding: 200 200 200
Width: 480
VWidth: 0
Flags: HW
LayerCount: 2
Back
Fore
SplineSet
62.5 300 m 1
 62.5 550 l 1
 250 550 l 1
 437.5 550 l 1
 437.5 518.75 l 1
 437.5 487.5 l 1
 281.25 487.5 l 1
 125 487.5 l 1
 125 425 l 1
 125 362.5 l 1
 250 362.5 l 1
 375 362.5 l 1
 375 331.25 l 1
 375 300 l 1
 250 300 l 1
 125 300 l 1
 125 206.25 l 1
 125 112.5 l 1
 281.25 112.5 l 1
 437.5 112.5 l 1
 437.5 81.25 l 1
 437.5 50 l 1
 250 50 l 1
 62.5 50 l 1
 62.5 300 l 1
125 706.25 m 1
 125 737.5 l 1
 187.5 737.5 l 1
 250 737.5 l 1
 250 706.25 l 1
 250 675 l 1
 312.5 675 l 1
 375 675 l 1
 375 643.75 l 1
 375 612.5 l 1
 312.5 612.5 l 1
 250 612.5 l 1
 250 643.75 l 1
 250 675 l 1
 187.5 675 l 1
 125 675 l 1
 125 706.25 l 1
EndSplineSet
Validated: 524805
EndChar

StartChar: U+00c9
Encoding: 201 201 201
Width: 480
VWidth: 0
Flags: HW
LayerCount: 2
Back
Fore
SplineSet
62.5 300 m 1
 62.5 550 l 1
 250 550 l 1
 437.5 550 l 1
 437.5 518.75 l 1
 437.5 487.5 l 1
 281.25 487.5 l 1
 125 487.5 l 1
 125 425 l 1
 125 362.5 l 1
 250 362.5 l 1
 375 362.5 l 1
 375 331.25 l 1
 375 300 l 1
 250 300 l 1
 125 300 l 1
 125 206.25 l 1
 125 112.5 l 1
 281.25 112.5 l 1
 437.5 112.5 l 1
 437.5 81.25 l 1
 437.5 50 l 1
 250 50 l 1
 62.5 50 l 1
 62.5 300 l 1
250 706.25 m 1
 250 737.5 l 1
 312.5 737.5 l 1
 375 737.5 l 1
 375 706.25 l 1
 375 675 l 1
 312.5 675 l 1
 250 675 l 1
 250 643.75 l 1
 250 612.5 l 1
 187.5 612.5 l 1
 125 612.5 l 1
 125 643.75 l 1
 125 675 l 1
 187.5 675 l 1
 250 675 l 1
 250 706.25 l 1
EndSplineSet
Validated: 524805
EndChar

StartChar: U+00ca
Encoding: 202 202 202
Width: 480
VWidth: 0
Flags: HW
LayerCount: 2
Back
Fore
SplineSet
62.5 300 m 1
 62.5 550 l 1
 250 550 l 1
 437.5 550 l 1
 437.5 518.75 l 1
 437.5 487.5 l 1
 281.25 487.5 l 1
 125 487.5 l 1
 125 425 l 1
 125 362.5 l 1
 250 362.5 l 1
 375 362.5 l 1
 375 331.25 l 1
 375 300 l 1
 250 300 l 1
 125 300 l 1
 125 206.25 l 1
 125 112.5 l 1
 281.25 112.5 l 1
 437.5 112.5 l 1
 437.5 81.25 l 1
 437.5 50 l 1
 250 50 l 1
 62.5 50 l 1
 62.5 300 l 1
187.5 706.25 m 1
 187.5 737.5 l 1
 250 737.5 l 1
 312.5 737.5 l 1
 312.5 706.25 l 1
 312.5 675 l 1
 343.75 675 l 1
 375 675 l 1
 375 643.75 l 1
 375 612.5 l 1
 343.75 612.5 l 1
 312.5 612.5 l 1
 312.5 643.75 l 1
 312.5 675 l 1
 250 675 l 1
 187.5 675 l 1
 187.5 643.75 l 1
 187.5 612.5 l 1
 156.25 612.5 l 1
 125 612.5 l 1
 125 643.75 l 1
 125 675 l 1
 156.25 675 l 1
 187.5 675 l 1
 187.5 706.25 l 1
EndSplineSet
Validated: 524805
EndChar

StartChar: U+00cb
Encoding: 203 203 203
Width: 480
VWidth: 0
Flags: HW
LayerCount: 2
Back
Fore
SplineSet
62.5 300 m 1
 62.5 550 l 1
 250 550 l 1
 437.5 550 l 1
 437.5 518.75 l 1
 437.5 487.5 l 1
 281.25 487.5 l 1
 125 487.5 l 1
 125 425 l 1
 125 362.5 l 1
 250 362.5 l 1
 375 362.5 l 1
 375 331.25 l 1
 375 300 l 1
 250 300 l 1
 125 300 l 1
 125 206.25 l 1
 125 112.5 l 1
 281.25 112.5 l 1
 437.5 112.5 l 1
 437.5 81.25 l 1
 437.5 50 l 1
 250 50 l 1
 62.5 50 l 1
 62.5 300 l 1
312.5 675 m 1
 312.5 737.5 l 1
 343.75 737.5 l 1
 375 737.5 l 1
 375 675 l 1
 375 612.5 l 1
 343.75 612.5 l 1
 312.5 612.5 l 1
 312.5 675 l 1
125 675 m 1
 125 737.5 l 1
 156.25 737.5 l 1
 187.5 737.5 l 1
 187.5 675 l 1
 187.5 612.5 l 1
 156.25 612.5 l 1
 125 612.5 l 1
 125 675 l 1
EndSplineSet
Validated: 524801
EndChar

StartChar: U+00cc
Encoding: 204 204 204
Width: 480
VWidth: 0
Flags: HW
LayerCount: 2
Back
Fore
SplineSet
62.5 518.75 m 1
 62.5 550 l 1
 218.75 550 l 1
 375 550 l 1
 375 518.75 l 1
 375 487.5 l 1
 312.5 487.5 l 1
 250 487.5 l 1
 250 300 l 1
 250 112.5 l 1
 312.5 112.5 l 1
 375 112.5 l 1
 375 81.25 l 1
 375 50 l 1
 218.75 50 l 1
 62.5 50 l 1
 62.5 81.25 l 1
 62.5 112.5 l 1
 125 112.5 l 1
 187.5 112.5 l 1
 187.5 300 l 1
 187.5 487.5 l 1
 125 487.5 l 1
 62.5 487.5 l 1
 62.5 518.75 l 1
62.5 706.25 m 1
 62.5 737.5 l 1
 125 737.5 l 1
 187.5 737.5 l 1
 187.5 706.25 l 1
 187.5 675 l 1
 250 675 l 1
 312.5 675 l 1
 312.5 643.75 l 1
 312.5 612.5 l 1
 250 612.5 l 1
 187.5 612.5 l 1
 187.5 643.75 l 1
 187.5 675 l 1
 125 675 l 1
 62.5 675 l 1
 62.5 706.25 l 1
EndSplineSet
Validated: 524805
EndChar

StartChar: U+00cd
Encoding: 205 205 205
Width: 480
VWidth: 0
Flags: HW
LayerCount: 2
Back
Fore
SplineSet
62.5 518.75 m 1
 62.5 550 l 1
 218.75 550 l 1
 375 550 l 1
 375 518.75 l 1
 375 487.5 l 1
 312.5 487.5 l 1
 250 487.5 l 1
 250 300 l 1
 250 112.5 l 1
 312.5 112.5 l 1
 375 112.5 l 1
 375 81.25 l 1
 375 50 l 1
 218.75 50 l 1
 62.5 50 l 1
 62.5 81.25 l 1
 62.5 112.5 l 1
 125 112.5 l 1
 187.5 112.5 l 1
 187.5 300 l 1
 187.5 487.5 l 1
 125 487.5 l 1
 62.5 487.5 l 1
 62.5 518.75 l 1
250 706.25 m 1
 250 737.5 l 1
 312.5 737.5 l 1
 375 737.5 l 1
 375 706.25 l 1
 375 675 l 1
 312.5 675 l 1
 250 675 l 1
 250 643.75 l 1
 250 612.5 l 1
 187.5 612.5 l 1
 125 612.5 l 1
 125 643.75 l 1
 125 675 l 1
 187.5 675 l 1
 250 675 l 1
 250 706.25 l 1
EndSplineSet
Validated: 524805
EndChar

StartChar: U+00ce
Encoding: 206 206 206
Width: 480
VWidth: 0
Flags: HW
LayerCount: 2
Back
Fore
SplineSet
62.5 518.75 m 1
 62.5 550 l 1
 218.75 550 l 1
 375 550 l 1
 375 518.75 l 1
 375 487.5 l 1
 312.5 487.5 l 1
 250 487.5 l 1
 250 300 l 1
 250 112.5 l 1
 312.5 112.5 l 1
 375 112.5 l 1
 375 81.25 l 1
 375 50 l 1
 218.75 50 l 1
 62.5 50 l 1
 62.5 81.25 l 1
 62.5 112.5 l 1
 125 112.5 l 1
 187.5 112.5 l 1
 187.5 300 l 1
 187.5 487.5 l 1
 125 487.5 l 1
 62.5 487.5 l 1
 62.5 518.75 l 1
187.5 706.25 m 1
 187.5 737.5 l 1
 250 737.5 l 1
 312.5 737.5 l 1
 312.5 706.25 l 1
 312.5 675 l 1
 343.75 675 l 1
 375 675 l 1
 375 643.75 l 1
 375 612.5 l 1
 343.75 612.5 l 1
 312.5 612.5 l 1
 312.5 643.75 l 1
 312.5 675 l 1
 250 675 l 1
 187.5 675 l 1
 187.5 643.75 l 1
 187.5 612.5 l 1
 156.25 612.5 l 1
 125 612.5 l 1
 125 643.75 l 1
 125 675 l 1
 156.25 675 l 1
 187.5 675 l 1
 187.5 706.25 l 1
EndSplineSet
Validated: 524805
EndChar

StartChar: U+00cf
Encoding: 207 207 207
Width: 480
VWidth: 0
Flags: HW
LayerCount: 2
Back
Fore
SplineSet
62.5 518.75 m 1
 62.5 550 l 1
 218.75 550 l 1
 375 550 l 1
 375 518.75 l 1
 375 487.5 l 1
 312.5 487.5 l 1
 250 487.5 l 1
 250 300 l 1
 250 112.5 l 1
 312.5 112.5 l 1
 375 112.5 l 1
 375 81.25 l 1
 375 50 l 1
 218.75 50 l 1
 62.5 50 l 1
 62.5 81.25 l 1
 62.5 112.5 l 1
 125 112.5 l 1
 187.5 112.5 l 1
 187.5 300 l 1
 187.5 487.5 l 1
 125 487.5 l 1
 62.5 487.5 l 1
 62.5 518.75 l 1
312.5 675 m 1
 312.5 737.5 l 1
 343.75 737.5 l 1
 375 737.5 l 1
 375 675 l 1
 375 612.5 l 1
 343.75 612.5 l 1
 312.5 612.5 l 1
 312.5 675 l 1
125 675 m 1
 125 737.5 l 1
 156.25 737.5 l 1
 187.5 737.5 l 1
 187.5 675 l 1
 187.5 612.5 l 1
 156.25 612.5 l 1
 125 612.5 l 1
 125 675 l 1
EndSplineSet
Validated: 524801
EndChar

StartChar: U+00d0
Encoding: 208 208 208
Width: 480
VWidth: 0
Flags: HW
LayerCount: 2
Back
Fore
SplineSet
62.5 550 m 1
 62.5 675 l 1
 187.5 675 l 1
 312.5 675 l 1
 312.5 643.75 l 1
 312.5 612.5 l 1
 343.75 612.5 l 1
 375 612.5 l 1
 375 581.25 l 1
 375 550 l 1
 406.25 550 l 1
 437.5 550 l 1
 437.5 362.5 l 1
 437.5 175 l 1
 406.25 175 l 1
 375 175 l 1
 375 143.75 l 1
 375 112.5 l 1
 343.75 112.5 l 1
 312.5 112.5 l 1
 312.5 81.25 l 1
 312.5 50 l 1
 187.5 50 l 1
 62.5 50 l 1
 62.5 206.25 l 1
 62.5 362.5 l 1
 31.25 362.5 l 1
 0 362.5 l 1
 0 393.75 l 1
 0 425 l 1
 31.25 425 l 1
 62.5 425 l 1
 62.5 550 l 1
312.5 581.25 m 1
 312.5 612.5 l 1
 218.75 612.5 l 1
 125 612.5 l 1
 125 518.75 l 1
 125 425 l 1
 156.25 425 l 1
 187.5 425 l 1
 187.5 393.75 l 1
 187.5 362.5 l 1
 156.25 362.5 l 1
 125 362.5 l 1
 125 237.5 l 1
 125 112.5 l 1
 218.75 112.5 l 1
 312.5 112.5 l 1
 312.5 143.75 l 1
 312.5 175 l 1
 343.75 175 l 1
 375 175 l 1
 375 362.5 l 1
 375 550 l 1
 343.75 550 l 1
 312.5 550 l 1
 312.5 581.25 l 1
EndSplineSet
Validated: 524805
EndChar

StartChar: U+00d1
Encoding: 209 209 209
Width: 480
VWidth: 0
Flags: HW
LayerCount: 2
Back
Fore
SplineSet
62.5 300 m 1
 62.5 550 l 1
 93.75 550 l 1
 125 550 l 1
 125 518.75 l 1
 125 487.5 l 1
 156.25 487.5 l 1
 187.5 487.5 l 1
 187.5 425 l 1
 187.5 362.5 l 1
 218.75 362.5 l 1
 250 362.5 l 1
 250 331.25 l 1
 250 300 l 1
 281.25 300 l 1
 312.5 300 l 1
 312.5 268.75 l 1
 312.5 237.5 l 1
 343.75 237.5 l 1
 375 237.5 l 1
 375 393.75 l 1
 375 550 l 1
 406.25 550 l 1
 437.5 550 l 1
 437.5 300 l 1
 437.5 50 l 1
 406.25 50 l 1
 375 50 l 1
 375 81.25 l 1
 375 112.5 l 1
 343.75 112.5 l 1
 312.5 112.5 l 1
 312.5 175 l 1
 312.5 237.5 l 1
 281.25 237.5 l 1
 250 237.5 l 1
 250 268.75 l 1
 250 300 l 1
 218.75 300 l 1
 187.5 300 l 1
 187.5 331.25 l 1
 187.5 362.5 l 1
 156.25 362.5 l 1
 125 362.5 l 1
 125 206.25 l 1
 125 50 l 1
 93.75 50 l 1
 62.5 50 l 1
 62.5 300 l 1
125 706.25 m 1
 125 737.5 l 1
 187.5 737.5 l 1
 250 737.5 l 1
 250 706.25 l 1
 250 675 l 1
 312.5 675 l 1
 375 675 l 1
 375 706.25 l 1
 375 737.5 l 1
 406.25 737.5 l 1
 437.5 737.5 l 1
 437.5 706.25 l 1
 437.5 675 l 1
 406.25 675 l 1
 375 675 l 1
 375 643.75 l 1
 375 612.5 l 1
 312.5 612.5 l 1
 250 612.5 l 1
 250 643.75 l 1
 250 675 l 1
 187.5 675 l 1
 125 675 l 1
 125 643.75 l 1
 125 612.5 l 1
 93.75 612.5 l 1
 62.5 612.5 l 1
 62.5 643.75 l 1
 62.5 675 l 1
 93.75 675 l 1
 125 675 l 1
 125 706.25 l 1
EndSplineSet
Validated: 524805
EndChar

StartChar: U+00d2
Encoding: 210 210 210
Width: 480
VWidth: 0
Flags: HW
LayerCount: 2
Back
Fore
SplineSet
125 518.75 m 1
 125 550 l 1
 250 550 l 1
 375 550 l 1
 375 518.75 l 1
 375 487.5 l 1
 406.25 487.5 l 1
 437.5 487.5 l 1
 437.5 300 l 1
 437.5 112.5 l 1
 406.25 112.5 l 1
 375 112.5 l 1
 375 81.25 l 1
 375 50 l 1
 250 50 l 1
 125 50 l 1
 125 81.25 l 1
 125 112.5 l 1
 93.75 112.5 l 1
 62.5 112.5 l 1
 62.5 300 l 1
 62.5 487.5 l 1
 93.75 487.5 l 1
 125 487.5 l 1
 125 518.75 l 1
375 300 m 1
 375 487.5 l 1
 250 487.5 l 1
 125 487.5 l 1
 125 300 l 1
 125 112.5 l 1
 250 112.5 l 1
 375 112.5 l 1
 375 300 l 1
125 706.25 m 1
 125 737.5 l 1
 187.5 737.5 l 1
 250 737.5 l 1
 250 706.25 l 1
 250 675 l 1
 312.5 675 l 1
 375 675 l 1
 375 643.75 l 1
 375 612.5 l 1
 312.5 612.5 l 1
 250 612.5 l 1
 250 643.75 l 1
 250 675 l 1
 187.5 675 l 1
 125 675 l 1
 125 706.25 l 1
EndSplineSet
Validated: 524805
EndChar

StartChar: U+00d3
Encoding: 211 211 211
Width: 480
VWidth: 0
Flags: HW
LayerCount: 2
Back
Fore
SplineSet
125 518.75 m 1
 125 550 l 1
 250 550 l 1
 375 550 l 1
 375 518.75 l 1
 375 487.5 l 1
 406.25 487.5 l 1
 437.5 487.5 l 1
 437.5 300 l 1
 437.5 112.5 l 1
 406.25 112.5 l 1
 375 112.5 l 1
 375 81.25 l 1
 375 50 l 1
 250 50 l 1
 125 50 l 1
 125 81.25 l 1
 125 112.5 l 1
 93.75 112.5 l 1
 62.5 112.5 l 1
 62.5 300 l 1
 62.5 487.5 l 1
 93.75 487.5 l 1
 125 487.5 l 1
 125 518.75 l 1
375 300 m 1
 375 487.5 l 1
 250 487.5 l 1
 125 487.5 l 1
 125 300 l 1
 125 112.5 l 1
 250 112.5 l 1
 375 112.5 l 1
 375 300 l 1
250 706.25 m 1
 250 737.5 l 1
 312.5 737.5 l 1
 375 737.5 l 1
 375 706.25 l 1
 375 675 l 1
 312.5 675 l 1
 250 675 l 1
 250 643.75 l 1
 250 612.5 l 1
 187.5 612.5 l 1
 125 612.5 l 1
 125 643.75 l 1
 125 675 l 1
 187.5 675 l 1
 250 675 l 1
 250 706.25 l 1
EndSplineSet
Validated: 524805
EndChar

StartChar: U+00d4
Encoding: 212 212 212
Width: 480
VWidth: 0
Flags: HW
LayerCount: 2
Back
Fore
SplineSet
125 518.75 m 1
 125 550 l 1
 250 550 l 1
 375 550 l 1
 375 518.75 l 1
 375 487.5 l 1
 406.25 487.5 l 1
 437.5 487.5 l 1
 437.5 300 l 1
 437.5 112.5 l 1
 406.25 112.5 l 1
 375 112.5 l 1
 375 81.25 l 1
 375 50 l 1
 250 50 l 1
 125 50 l 1
 125 81.25 l 1
 125 112.5 l 1
 93.75 112.5 l 1
 62.5 112.5 l 1
 62.5 300 l 1
 62.5 487.5 l 1
 93.75 487.5 l 1
 125 487.5 l 1
 125 518.75 l 1
375 300 m 1
 375 487.5 l 1
 250 487.5 l 1
 125 487.5 l 1
 125 300 l 1
 125 112.5 l 1
 250 112.5 l 1
 375 112.5 l 1
 375 300 l 1
187.5 706.25 m 1
 187.5 737.5 l 1
 250 737.5 l 1
 312.5 737.5 l 1
 312.5 706.25 l 1
 312.5 675 l 1
 343.75 675 l 1
 375 675 l 1
 375 643.75 l 1
 375 612.5 l 1
 343.75 612.5 l 1
 312.5 612.5 l 1
 312.5 643.75 l 1
 312.5 675 l 1
 250 675 l 1
 187.5 675 l 1
 187.5 643.75 l 1
 187.5 612.5 l 1
 156.25 612.5 l 1
 125 612.5 l 1
 125 643.75 l 1
 125 675 l 1
 156.25 675 l 1
 187.5 675 l 1
 187.5 706.25 l 1
EndSplineSet
Validated: 524805
EndChar

StartChar: U+00d5
Encoding: 213 213 213
Width: 480
VWidth: 0
Flags: HW
LayerCount: 2
Back
Fore
SplineSet
125 518.75 m 1
 125 550 l 1
 250 550 l 1
 375 550 l 1
 375 518.75 l 1
 375 487.5 l 1
 406.25 487.5 l 1
 437.5 487.5 l 1
 437.5 300 l 1
 437.5 112.5 l 1
 406.25 112.5 l 1
 375 112.5 l 1
 375 81.25 l 1
 375 50 l 1
 250 50 l 1
 125 50 l 1
 125 81.25 l 1
 125 112.5 l 1
 93.75 112.5 l 1
 62.5 112.5 l 1
 62.5 300 l 1
 62.5 487.5 l 1
 93.75 487.5 l 1
 125 487.5 l 1
 125 518.75 l 1
375 300 m 1
 375 487.5 l 1
 250 487.5 l 1
 125 487.5 l 1
 125 300 l 1
 125 112.5 l 1
 250 112.5 l 1
 375 112.5 l 1
 375 300 l 1
125 706.25 m 1
 125 737.5 l 1
 187.5 737.5 l 1
 250 737.5 l 1
 250 706.25 l 1
 250 675 l 1
 312.5 675 l 1
 375 675 l 1
 375 706.25 l 1
 375 737.5 l 1
 406.25 737.5 l 1
 437.5 737.5 l 1
 437.5 706.25 l 1
 437.5 675 l 1
 406.25 675 l 1
 375 675 l 1
 375 643.75 l 1
 375 612.5 l 1
 312.5 612.5 l 1
 250 612.5 l 1
 250 643.75 l 1
 250 675 l 1
 187.5 675 l 1
 125 675 l 1
 125 643.75 l 1
 125 612.5 l 1
 93.75 612.5 l 1
 62.5 612.5 l 1
 62.5 643.75 l 1
 62.5 675 l 1
 93.75 675 l 1
 125 675 l 1
 125 706.25 l 1
EndSplineSet
Validated: 524805
EndChar

StartChar: U+00d6
Encoding: 214 214 214
Width: 480
VWidth: 0
Flags: HW
LayerCount: 2
Back
Fore
SplineSet
125 518.75 m 1
 125 550 l 1
 250 550 l 1
 375 550 l 1
 375 518.75 l 1
 375 487.5 l 1
 406.25 487.5 l 1
 437.5 487.5 l 1
 437.5 300 l 1
 437.5 112.5 l 1
 406.25 112.5 l 1
 375 112.5 l 1
 375 81.25 l 1
 375 50 l 1
 250 50 l 1
 125 50 l 1
 125 81.25 l 1
 125 112.5 l 1
 93.75 112.5 l 1
 62.5 112.5 l 1
 62.5 300 l 1
 62.5 487.5 l 1
 93.75 487.5 l 1
 125 487.5 l 1
 125 518.75 l 1
375 300 m 1
 375 487.5 l 1
 250 487.5 l 1
 125 487.5 l 1
 125 300 l 1
 125 112.5 l 1
 250 112.5 l 1
 375 112.5 l 1
 375 300 l 1
312.5 675 m 1
 312.5 737.5 l 1
 343.75 737.5 l 1
 375 737.5 l 1
 375 675 l 1
 375 612.5 l 1
 343.75 612.5 l 1
 312.5 612.5 l 1
 312.5 675 l 1
125 675 m 1
 125 737.5 l 1
 156.25 737.5 l 1
 187.5 737.5 l 1
 187.5 675 l 1
 187.5 612.5 l 1
 156.25 612.5 l 1
 125 612.5 l 1
 125 675 l 1
EndSplineSet
Validated: 524805
EndChar

StartChar: U+00d7
Encoding: 215 215 215
Width: 480
VWidth: 0
Flags: HW
LayerCount: 2
Back
Fore
SplineSet
62.5 456.25 m 1
 62.5 487.5 l 1
 93.75 487.5 l 1
 125 487.5 l 1
 125 456.25 l 1
 125 425 l 1
 156.25 425 l 1
 187.5 425 l 1
 187.5 393.75 l 1
 187.5 362.5 l 1
 250 362.5 l 1
 312.5 362.5 l 1
 312.5 393.75 l 1
 312.5 425 l 1
 343.75 425 l 1
 375 425 l 1
 375 456.25 l 1
 375 487.5 l 1
 406.25 487.5 l 1
 437.5 487.5 l 1
 437.5 456.25 l 1
 437.5 425 l 1
 406.25 425 l 1
 375 425 l 1
 375 393.75 l 1
 375 362.5 l 1
 343.75 362.5 l 1
 312.5 362.5 l 1
 312.5 300 l 1
 312.5 237.5 l 1
 343.75 237.5 l 1
 375 237.5 l 1
 375 206.25 l 1
 375 175 l 1
 406.25 175 l 1
 437.5 175 l 1
 437.5 143.75 l 1
 437.5 112.5 l 1
 406.25 112.5 l 1
 375 112.5 l 1
 375 143.75 l 1
 375 175 l 1
 343.75 175 l 1
 312.5 175 l 1
 312.5 206.25 l 1
 312.5 237.5 l 1
 250 237.5 l 1
 187.5 237.5 l 1
 187.5 206.25 l 1
 187.5 175 l 1
 156.25 175 l 1
 125 175 l 1
 125 143.75 l 1
 125 112.5 l 1
 93.75 112.5 l 1
 62.5 112.5 l 1
 62.5 143.75 l 1
 62.5 175 l 1
 93.75 175 l 1
 125 175 l 1
 125 206.25 l 1
 125 237.5 l 1
 156.25 237.5 l 1
 187.5 237.5 l 1
 187.5 300 l 1
 187.5 362.5 l 1
 156.25 362.5 l 1
 125 362.5 l 1
 125 393.75 l 1
 125 425 l 1
 93.75 425 l 1
 62.5 425 l 1
 62.5 456.25 l 1
EndSplineSet
Validated: 524805
EndChar

StartChar: U+00d8
Encoding: 216 216 216
Width: 480
VWidth: 0
Flags: HW
LayerCount: 2
Back
Fore
SplineSet
250 425 m 1
 250 487.5 l 1
 281.25 487.5 l 1
 312.5 487.5 l 1
 312.5 425 l 1
 312.5 362.5 l 1
 281.25 362.5 l 1
 250 362.5 l 1
 250 300 l 1
 250 237.5 l 1
 218.75 237.5 l 1
 187.5 237.5 l 1
 187.5 300 l 1
 187.5 362.5 l 1
 218.75 362.5 l 1
 250 362.5 l 1
 250 425 l 1
375 706.25 m 1
 375 737.5 l 1
 406.25 737.5 l 1
 437.5 737.5 l 1
 437.5 706.25 l 1
 437.5 675 l 1
 406.25 675 l 1
 375 675 l 1
 375 643.75 l 1
 375 612.5 l 1
 406.25 612.5 l 1
 437.5 612.5 l 1
 437.5 362.5 l 1
 437.5 112.5 l 1
 406.25 112.5 l 1
 375 112.5 l 1
 375 81.25 l 1
 375 50 l 1
 250 50 l 1
 125 50 l 1
 125 18.75 l 1
 125 -12.5 l 1
 93.75 -12.5 l 1
 62.5 -12.5 l 1
 62.5 18.75 l 1
 62.5 50 l 1
 93.75 50 l 1
 125 50 l 1
 125 81.25 l 1
 125 112.5 l 1
 93.75 112.5 l 1
 62.5 112.5 l 1
 62.5 362.5 l 1
 62.5 612.5 l 1
 93.75 612.5 l 1
 125 612.5 l 1
 125 643.75 l 1
 125 675 l 1
 250 675 l 1
 375 675 l 1
 375 706.25 l 1
312.5 550 m 1
 312.5 612.5 l 1
 218.75 612.5 l 1
 125 612.5 l 1
 125 425 l 1
 125 237.5 l 1
 156.25 237.5 l 1
 187.5 237.5 l 1
 187.5 175 l 1
 187.5 112.5 l 1
 281.25 112.5 l 1
 375 112.5 l 1
 375 300 l 1
 375 487.5 l 1
 343.75 487.5 l 1
 312.5 487.5 l 1
 312.5 550 l 1
EndSplineSet
Validated: 524805
EndChar

StartChar: U+00d9
Encoding: 217 217 217
Width: 480
VWidth: 0
Flags: HW
LayerCount: 2
Back
Fore
SplineSet
62.5 331.25 m 1
 62.5 550 l 1
 93.75 550 l 1
 125 550 l 1
 125 331.25 l 1
 125 112.5 l 1
 250 112.5 l 1
 375 112.5 l 1
 375 331.25 l 1
 375 550 l 1
 406.25 550 l 1
 437.5 550 l 1
 437.5 331.25 l 1
 437.5 112.5 l 1
 406.25 112.5 l 1
 375 112.5 l 1
 375 81.25 l 1
 375 50 l 1
 250 50 l 1
 125 50 l 1
 125 81.25 l 1
 125 112.5 l 1
 93.75 112.5 l 1
 62.5 112.5 l 1
 62.5 331.25 l 1
125 706.25 m 1
 125 737.5 l 1
 187.5 737.5 l 1
 250 737.5 l 1
 250 706.25 l 1
 250 675 l 1
 312.5 675 l 1
 375 675 l 1
 375 643.75 l 1
 375 612.5 l 1
 312.5 612.5 l 1
 250 612.5 l 1
 250 643.75 l 1
 250 675 l 1
 187.5 675 l 1
 125 675 l 1
 125 706.25 l 1
EndSplineSet
Validated: 524805
EndChar

StartChar: U+00da
Encoding: 218 218 218
Width: 480
VWidth: 0
Flags: HW
LayerCount: 2
Back
Fore
SplineSet
62.5 331.25 m 1
 62.5 550 l 1
 93.75 550 l 1
 125 550 l 1
 125 331.25 l 1
 125 112.5 l 1
 250 112.5 l 1
 375 112.5 l 1
 375 331.25 l 1
 375 550 l 1
 406.25 550 l 1
 437.5 550 l 1
 437.5 331.25 l 1
 437.5 112.5 l 1
 406.25 112.5 l 1
 375 112.5 l 1
 375 81.25 l 1
 375 50 l 1
 250 50 l 1
 125 50 l 1
 125 81.25 l 1
 125 112.5 l 1
 93.75 112.5 l 1
 62.5 112.5 l 1
 62.5 331.25 l 1
250 706.25 m 1
 250 737.5 l 1
 312.5 737.5 l 1
 375 737.5 l 1
 375 706.25 l 1
 375 675 l 1
 312.5 675 l 1
 250 675 l 1
 250 643.75 l 1
 250 612.5 l 1
 187.5 612.5 l 1
 125 612.5 l 1
 125 643.75 l 1
 125 675 l 1
 187.5 675 l 1
 250 675 l 1
 250 706.25 l 1
EndSplineSet
Validated: 524805
EndChar

StartChar: U+00db
Encoding: 219 219 219
Width: 480
VWidth: 0
Flags: HW
LayerCount: 2
Back
Fore
SplineSet
62.5 331.25 m 1
 62.5 550 l 1
 93.75 550 l 1
 125 550 l 1
 125 331.25 l 1
 125 112.5 l 1
 250 112.5 l 1
 375 112.5 l 1
 375 331.25 l 1
 375 550 l 1
 406.25 550 l 1
 437.5 550 l 1
 437.5 331.25 l 1
 437.5 112.5 l 1
 406.25 112.5 l 1
 375 112.5 l 1
 375 81.25 l 1
 375 50 l 1
 250 50 l 1
 125 50 l 1
 125 81.25 l 1
 125 112.5 l 1
 93.75 112.5 l 1
 62.5 112.5 l 1
 62.5 331.25 l 1
187.5 706.25 m 1
 187.5 737.5 l 1
 250 737.5 l 1
 312.5 737.5 l 1
 312.5 706.25 l 1
 312.5 675 l 1
 343.75 675 l 1
 375 675 l 1
 375 643.75 l 1
 375 612.5 l 1
 343.75 612.5 l 1
 312.5 612.5 l 1
 312.5 643.75 l 1
 312.5 675 l 1
 250 675 l 1
 187.5 675 l 1
 187.5 643.75 l 1
 187.5 612.5 l 1
 156.25 612.5 l 1
 125 612.5 l 1
 125 643.75 l 1
 125 675 l 1
 156.25 675 l 1
 187.5 675 l 1
 187.5 706.25 l 1
EndSplineSet
Validated: 524805
EndChar

StartChar: U+00dc
Encoding: 220 220 220
Width: 480
VWidth: 0
Flags: HW
LayerCount: 2
Back
Fore
SplineSet
62.5 331.25 m 1
 62.5 550 l 1
 93.75 550 l 1
 125 550 l 1
 125 331.25 l 1
 125 112.5 l 1
 250 112.5 l 1
 375 112.5 l 1
 375 331.25 l 1
 375 550 l 1
 406.25 550 l 1
 437.5 550 l 1
 437.5 331.25 l 1
 437.5 112.5 l 1
 406.25 112.5 l 1
 375 112.5 l 1
 375 81.25 l 1
 375 50 l 1
 250 50 l 1
 125 50 l 1
 125 81.25 l 1
 125 112.5 l 1
 93.75 112.5 l 1
 62.5 112.5 l 1
 62.5 331.25 l 1
312.5 675 m 1
 312.5 737.5 l 1
 343.75 737.5 l 1
 375 737.5 l 1
 375 675 l 1
 375 612.5 l 1
 343.75 612.5 l 1
 312.5 612.5 l 1
 312.5 675 l 1
125 675 m 1
 125 737.5 l 1
 156.25 737.5 l 1
 187.5 737.5 l 1
 187.5 675 l 1
 187.5 612.5 l 1
 156.25 612.5 l 1
 125 612.5 l 1
 125 675 l 1
EndSplineSet
Validated: 524805
EndChar

StartChar: U+00dd
Encoding: 221 221 221
Width: 480
VWidth: 0
Flags: HW
LayerCount: 2
Back
Fore
SplineSet
62.5 456.25 m 1
 62.5 550 l 1
 93.75 550 l 1
 125 550 l 1
 125 456.25 l 1
 125 362.5 l 1
 156.25 362.5 l 1
 187.5 362.5 l 1
 187.5 331.25 l 1
 187.5 300 l 1
 218.75 300 l 1
 250 300 l 1
 250 268.75 l 1
 250 237.5 l 1
 281.25 237.5 l 1
 312.5 237.5 l 1
 312.5 268.75 l 1
 312.5 300 l 1
 343.75 300 l 1
 375 300 l 1
 375 425 l 1
 375 550 l 1
 406.25 550 l 1
 437.5 550 l 1
 437.5 425 l 1
 437.5 300 l 1
 406.25 300 l 1
 375 300 l 1
 375 268.75 l 1
 375 237.5 l 1
 343.75 237.5 l 1
 312.5 237.5 l 1
 312.5 143.75 l 1
 312.5 50 l 1
 281.25 50 l 1
 250 50 l 1
 250 143.75 l 1
 250 237.5 l 1
 218.75 237.5 l 1
 187.5 237.5 l 1
 187.5 268.75 l 1
 187.5 300 l 1
 156.25 300 l 1
 125 300 l 1
 125 331.25 l 1
 125 362.5 l 1
 93.75 362.5 l 1
 62.5 362.5 l 1
 62.5 456.25 l 1
250 706.25 m 1
 250 737.5 l 1
 312.5 737.5 l 1
 375 737.5 l 1
 375 706.25 l 1
 375 675 l 1
 312.5 675 l 1
 250 675 l 1
 250 643.75 l 1
 250 612.5 l 1
 187.5 612.5 l 1
 125 612.5 l 1
 125 643.75 l 1
 125 675 l 1
 187.5 675 l 1
 250 675 l 1
 250 706.25 l 1
EndSplineSet
Validated: 524805
EndChar

StartChar: U+00de
Encoding: 222 222 222
Width: 480
VWidth: 0
Flags: HW
LayerCount: 2
Back
Fore
SplineSet
62.5 362.5 m 1
 62.5 675 l 1
 93.75 675 l 1
 125 675 l 1
 125 612.5 l 1
 125 550 l 1
 250 550 l 1
 375 550 l 1
 375 518.75 l 1
 375 487.5 l 1
 406.25 487.5 l 1
 437.5 487.5 l 1
 437.5 362.5 l 1
 437.5 237.5 l 1
 406.25 237.5 l 1
 375 237.5 l 1
 375 206.25 l 1
 375 175 l 1
 250 175 l 1
 125 175 l 1
 125 112.5 l 1
 125 50 l 1
 93.75 50 l 1
 62.5 50 l 1
 62.5 362.5 l 1
375 362.5 m 1
 375 487.5 l 1
 250 487.5 l 1
 125 487.5 l 1
 125 362.5 l 1
 125 237.5 l 1
 250 237.5 l 1
 375 237.5 l 1
 375 362.5 l 1
EndSplineSet
Validated: 524805
EndChar

StartChar: U+00df
Encoding: 223 223 223
Width: 480
VWidth: 0
Flags: HW
LayerCount: 2
Back
Fore
SplineSet
125 643.75 m 1
 125 675 l 1
 218.75 675 l 1
 312.5 675 l 1
 312.5 643.75 l 1
 312.5 612.5 l 1
 343.75 612.5 l 1
 375 612.5 l 1
 375 550 l 1
 375 487.5 l 1
 343.75 487.5 l 1
 312.5 487.5 l 1
 312.5 425 l 1
 312.5 362.5 l 1
 343.75 362.5 l 1
 375 362.5 l 1
 375 331.25 l 1
 375 300 l 1
 406.25 300 l 1
 437.5 300 l 1
 437.5 206.25 l 1
 437.5 112.5 l 1
 406.25 112.5 l 1
 375 112.5 l 1
 375 81.25 l 1
 375 50 l 1
 312.5 50 l 1
 250 50 l 1
 250 81.25 l 1
 250 112.5 l 1
 218.75 112.5 l 1
 187.5 112.5 l 1
 187.5 143.75 l 1
 187.5 175 l 1
 218.75 175 l 1
 250 175 l 1
 250 143.75 l 1
 250 112.5 l 1
 312.5 112.5 l 1
 375 112.5 l 1
 375 206.25 l 1
 375 300 l 1
 343.75 300 l 1
 312.5 300 l 1
 312.5 331.25 l 1
 312.5 362.5 l 1
 281.25 362.5 l 1
 250 362.5 l 1
 250 425 l 1
 250 487.5 l 1
 281.25 487.5 l 1
 312.5 487.5 l 1
 312.5 550 l 1
 312.5 612.5 l 1
 218.75 612.5 l 1
 125 612.5 l 1
 125 300 l 1
 125 -12.5 l 1
 93.75 -12.5 l 1
 62.5 -12.5 l 1
 62.5 300 l 1
 62.5 612.5 l 1
 93.75 612.5 l 1
 125 612.5 l 1
 125 643.75 l 1
EndSplineSet
Validated: 524805
EndChar

StartChar: U+00e0
Encoding: 224 224 224
Width: 480
VWidth: 0
Flags: HW
LayerCount: 2
Back
Fore
SplineSet
125 456.25 m 1
 125 487.5 l 1
 250 487.5 l 1
 375 487.5 l 1
 375 456.25 l 1
 375 425 l 1
 406.25 425 l 1
 437.5 425 l 1
 437.5 237.5 l 1
 437.5 50 l 1
 406.25 50 l 1
 375 50 l 1
 375 81.25 l 1
 375 112.5 l 1
 343.75 112.5 l 1
 312.5 112.5 l 1
 312.5 81.25 l 1
 312.5 50 l 1
 218.75 50 l 1
 125 50 l 1
 125 81.25 l 1
 125 112.5 l 1
 93.75 112.5 l 1
 62.5 112.5 l 1
 62.5 206.25 l 1
 62.5 300 l 1
 93.75 300 l 1
 125 300 l 1
 125 331.25 l 1
 125 362.5 l 1
 250 362.5 l 1
 375 362.5 l 1
 375 393.75 l 1
 375 425 l 1
 250 425 l 1
 125 425 l 1
 125 456.25 l 1
375 237.5 m 1
 375 300 l 1
 250 300 l 1
 125 300 l 1
 125 206.25 l 1
 125 112.5 l 1
 218.75 112.5 l 1
 312.5 112.5 l 1
 312.5 143.75 l 1
 312.5 175 l 1
 343.75 175 l 1
 375 175 l 1
 375 237.5 l 1
125 643.75 m 1
 125 675 l 1
 187.5 675 l 1
 250 675 l 1
 250 643.75 l 1
 250 612.5 l 1
 312.5 612.5 l 1
 375 612.5 l 1
 375 581.25 l 1
 375 550 l 1
 312.5 550 l 1
 250 550 l 1
 250 581.25 l 1
 250 612.5 l 1
 187.5 612.5 l 1
 125 612.5 l 1
 125 643.75 l 1
EndSplineSet
Validated: 524805
EndChar

StartChar: U+00e1
Encoding: 225 225 225
Width: 480
VWidth: 0
Flags: HW
LayerCount: 2
Back
Fore
SplineSet
125 456.25 m 1
 125 487.5 l 1
 250 487.5 l 1
 375 487.5 l 1
 375 456.25 l 1
 375 425 l 1
 406.25 425 l 1
 437.5 425 l 1
 437.5 237.5 l 1
 437.5 50 l 1
 406.25 50 l 1
 375 50 l 1
 375 81.25 l 1
 375 112.5 l 1
 343.75 112.5 l 1
 312.5 112.5 l 1
 312.5 81.25 l 1
 312.5 50 l 1
 218.75 50 l 1
 125 50 l 1
 125 81.25 l 1
 125 112.5 l 1
 93.75 112.5 l 1
 62.5 112.5 l 1
 62.5 206.25 l 1
 62.5 300 l 1
 93.75 300 l 1
 125 300 l 1
 125 331.25 l 1
 125 362.5 l 1
 250 362.5 l 1
 375 362.5 l 1
 375 393.75 l 1
 375 425 l 1
 250 425 l 1
 125 425 l 1
 125 456.25 l 1
375 237.5 m 1
 375 300 l 1
 250 300 l 1
 125 300 l 1
 125 206.25 l 1
 125 112.5 l 1
 218.75 112.5 l 1
 312.5 112.5 l 1
 312.5 143.75 l 1
 312.5 175 l 1
 343.75 175 l 1
 375 175 l 1
 375 237.5 l 1
250 643.75 m 1
 250 675 l 1
 312.5 675 l 1
 375 675 l 1
 375 643.75 l 1
 375 612.5 l 1
 312.5 612.5 l 1
 250 612.5 l 1
 250 581.25 l 1
 250 550 l 1
 187.5 550 l 1
 125 550 l 1
 125 581.25 l 1
 125 612.5 l 1
 187.5 612.5 l 1
 250 612.5 l 1
 250 643.75 l 1
EndSplineSet
Validated: 524805
EndChar

StartChar: U+00e2
Encoding: 226 226 226
Width: 480
VWidth: 0
Flags: HW
LayerCount: 2
Back
Fore
SplineSet
125 456.25 m 1
 125 487.5 l 1
 250 487.5 l 1
 375 487.5 l 1
 375 456.25 l 1
 375 425 l 1
 406.25 425 l 1
 437.5 425 l 1
 437.5 237.5 l 1
 437.5 50 l 1
 406.25 50 l 1
 375 50 l 1
 375 81.25 l 1
 375 112.5 l 1
 343.75 112.5 l 1
 312.5 112.5 l 1
 312.5 81.25 l 1
 312.5 50 l 1
 218.75 50 l 1
 125 50 l 1
 125 81.25 l 1
 125 112.5 l 1
 93.75 112.5 l 1
 62.5 112.5 l 1
 62.5 206.25 l 1
 62.5 300 l 1
 93.75 300 l 1
 125 300 l 1
 125 331.25 l 1
 125 362.5 l 1
 250 362.5 l 1
 375 362.5 l 1
 375 393.75 l 1
 375 425 l 1
 250 425 l 1
 125 425 l 1
 125 456.25 l 1
375 237.5 m 1
 375 300 l 1
 250 300 l 1
 125 300 l 1
 125 206.25 l 1
 125 112.5 l 1
 218.75 112.5 l 1
 312.5 112.5 l 1
 312.5 143.75 l 1
 312.5 175 l 1
 343.75 175 l 1
 375 175 l 1
 375 237.5 l 1
187.5 643.75 m 1
 187.5 675 l 1
 250 675 l 1
 312.5 675 l 1
 312.5 643.75 l 1
 312.5 612.5 l 1
 343.75 612.5 l 1
 375 612.5 l 1
 375 581.25 l 1
 375 550 l 1
 343.75 550 l 1
 312.5 550 l 1
 312.5 581.25 l 1
 312.5 612.5 l 1
 250 612.5 l 1
 187.5 612.5 l 1
 187.5 581.25 l 1
 187.5 550 l 1
 156.25 550 l 1
 125 550 l 1
 125 581.25 l 1
 125 612.5 l 1
 156.25 612.5 l 1
 187.5 612.5 l 1
 187.5 643.75 l 1
EndSplineSet
Validated: 524805
EndChar

StartChar: U+00e3
Encoding: 227 227 227
Width: 480
VWidth: 0
Flags: HW
LayerCount: 2
Back
Fore
SplineSet
125 456.25 m 1
 125 487.5 l 1
 250 487.5 l 1
 375 487.5 l 1
 375 456.25 l 1
 375 425 l 1
 406.25 425 l 1
 437.5 425 l 1
 437.5 237.5 l 1
 437.5 50 l 1
 406.25 50 l 1
 375 50 l 1
 375 81.25 l 1
 375 112.5 l 1
 343.75 112.5 l 1
 312.5 112.5 l 1
 312.5 81.25 l 1
 312.5 50 l 1
 218.75 50 l 1
 125 50 l 1
 125 81.25 l 1
 125 112.5 l 1
 93.75 112.5 l 1
 62.5 112.5 l 1
 62.5 206.25 l 1
 62.5 300 l 1
 93.75 300 l 1
 125 300 l 1
 125 331.25 l 1
 125 362.5 l 1
 250 362.5 l 1
 375 362.5 l 1
 375 393.75 l 1
 375 425 l 1
 250 425 l 1
 125 425 l 1
 125 456.25 l 1
375 237.5 m 1
 375 300 l 1
 250 300 l 1
 125 300 l 1
 125 206.25 l 1
 125 112.5 l 1
 218.75 112.5 l 1
 312.5 112.5 l 1
 312.5 143.75 l 1
 312.5 175 l 1
 343.75 175 l 1
 375 175 l 1
 375 237.5 l 1
125 643.75 m 1
 125 675 l 1
 187.5 675 l 1
 250 675 l 1
 250 643.75 l 1
 250 612.5 l 1
 312.5 612.5 l 1
 375 612.5 l 1
 375 643.75 l 1
 375 675 l 1
 406.25 675 l 1
 437.5 675 l 1
 437.5 643.75 l 1
 437.5 612.5 l 1
 406.25 612.5 l 1
 375 612.5 l 1
 375 581.25 l 1
 375 550 l 1
 312.5 550 l 1
 250 550 l 1
 250 581.25 l 1
 250 612.5 l 1
 187.5 612.5 l 1
 125 612.5 l 1
 125 581.25 l 1
 125 550 l 1
 93.75 550 l 1
 62.5 550 l 1
 62.5 581.25 l 1
 62.5 612.5 l 1
 93.75 612.5 l 1
 125 612.5 l 1
 125 643.75 l 1
EndSplineSet
Validated: 524805
EndChar

StartChar: U+00e4
Encoding: 228 228 228
Width: 480
VWidth: 0
Flags: HW
LayerCount: 2
Back
Fore
SplineSet
125 456.25 m 1
 125 487.5 l 1
 250 487.5 l 1
 375 487.5 l 1
 375 456.25 l 1
 375 425 l 1
 406.25 425 l 1
 437.5 425 l 1
 437.5 237.5 l 1
 437.5 50 l 1
 406.25 50 l 1
 375 50 l 1
 375 81.25 l 1
 375 112.5 l 1
 343.75 112.5 l 1
 312.5 112.5 l 1
 312.5 81.25 l 1
 312.5 50 l 1
 218.75 50 l 1
 125 50 l 1
 125 81.25 l 1
 125 112.5 l 1
 93.75 112.5 l 1
 62.5 112.5 l 1
 62.5 206.25 l 1
 62.5 300 l 1
 93.75 300 l 1
 125 300 l 1
 125 331.25 l 1
 125 362.5 l 1
 250 362.5 l 1
 375 362.5 l 1
 375 393.75 l 1
 375 425 l 1
 250 425 l 1
 125 425 l 1
 125 456.25 l 1
375 237.5 m 1
 375 300 l 1
 250 300 l 1
 125 300 l 1
 125 206.25 l 1
 125 112.5 l 1
 218.75 112.5 l 1
 312.5 112.5 l 1
 312.5 143.75 l 1
 312.5 175 l 1
 343.75 175 l 1
 375 175 l 1
 375 237.5 l 1
312.5 612.5 m 1
 312.5 675 l 1
 343.75 675 l 1
 375 675 l 1
 375 612.5 l 1
 375 550 l 1
 343.75 550 l 1
 312.5 550 l 1
 312.5 612.5 l 1
125 612.5 m 1
 125 675 l 1
 156.25 675 l 1
 187.5 675 l 1
 187.5 612.5 l 1
 187.5 550 l 1
 156.25 550 l 1
 125 550 l 1
 125 612.5 l 1
EndSplineSet
Validated: 524805
EndChar

StartChar: U+00e5
Encoding: 229 229 229
Width: 480
VWidth: 0
Flags: HW
LayerCount: 2
Back
Fore
SplineSet
125 456.25 m 1
 125 487.5 l 1
 250 487.5 l 1
 375 487.5 l 1
 375 456.25 l 1
 375 425 l 1
 406.25 425 l 1
 437.5 425 l 1
 437.5 237.5 l 1
 437.5 50 l 1
 406.25 50 l 1
 375 50 l 1
 375 81.25 l 1
 375 112.5 l 1
 343.75 112.5 l 1
 312.5 112.5 l 1
 312.5 81.25 l 1
 312.5 50 l 1
 218.75 50 l 1
 125 50 l 1
 125 81.25 l 1
 125 112.5 l 1
 93.75 112.5 l 1
 62.5 112.5 l 1
 62.5 206.25 l 1
 62.5 300 l 1
 93.75 300 l 1
 125 300 l 1
 125 331.25 l 1
 125 362.5 l 1
 250 362.5 l 1
 375 362.5 l 1
 375 393.75 l 1
 375 425 l 1
 250 425 l 1
 125 425 l 1
 125 456.25 l 1
375 237.5 m 1
 375 300 l 1
 250 300 l 1
 125 300 l 1
 125 206.25 l 1
 125 112.5 l 1
 218.75 112.5 l 1
 312.5 112.5 l 1
 312.5 143.75 l 1
 312.5 175 l 1
 343.75 175 l 1
 375 175 l 1
 375 237.5 l 1
187.5 706.25 m 1
 187.5 737.5 l 1
 250 737.5 l 1
 312.5 737.5 l 1
 312.5 706.25 l 1
 312.5 675 l 1
 343.75 675 l 1
 375 675 l 1
 375 643.75 l 1
 375 612.5 l 1
 343.75 612.5 l 1
 312.5 612.5 l 1
 312.5 581.25 l 1
 312.5 550 l 1
 250 550 l 1
 187.5 550 l 1
 187.5 581.25 l 1
 187.5 612.5 l 1
 156.25 612.5 l 1
 125 612.5 l 1
 125 643.75 l 1
 125 675 l 1
 156.25 675 l 1
 187.5 675 l 1
 187.5 706.25 l 1
312.5 643.75 m 1
 312.5 675 l 1
 250 675 l 1
 187.5 675 l 1
 187.5 643.75 l 1
 187.5 612.5 l 1
 250 612.5 l 1
 312.5 612.5 l 1
 312.5 643.75 l 1
EndSplineSet
Validated: 524805
EndChar

StartChar: U+00e6
Encoding: 230 230 230
Width: 480
VWidth: 0
Flags: HW
LayerCount: 2
Back
Fore
SplineSet
125 456.25 m 1
 125 487.5 l 1
 187.5 487.5 l 1
 250 487.5 l 1
 250 456.25 l 1
 250 425 l 1
 281.25 425 l 1
 312.5 425 l 1
 312.5 456.25 l 1
 312.5 487.5 l 1
 375 487.5 l 1
 437.5 487.5 l 1
 437.5 456.25 l 1
 437.5 425 l 1
 468.75 425 l 1
 500 425 l 1
 500 331.25 l 1
 500 237.5 l 1
 406.25 237.5 l 1
 312.5 237.5 l 1
 312.5 175 l 1
 312.5 112.5 l 1
 406.25 112.5 l 1
 500 112.5 l 1
 500 81.25 l 1
 500 50 l 1
 406.25 50 l 1
 312.5 50 l 1
 312.5 81.25 l 1
 312.5 112.5 l 1
 281.25 112.5 l 1
 250 112.5 l 1
 250 81.25 l 1
 250 50 l 1
 187.5 50 l 1
 125 50 l 1
 125 81.25 l 1
 125 112.5 l 1
 93.75 112.5 l 1
 62.5 112.5 l 1
 62.5 206.25 l 1
 62.5 300 l 1
 93.75 300 l 1
 125 300 l 1
 125 331.25 l 1
 125 362.5 l 1
 187.5 362.5 l 1
 250 362.5 l 1
 250 393.75 l 1
 250 425 l 1
 187.5 425 l 1
 125 425 l 1
 125 456.25 l 1
437.5 362.5 m 1
 437.5 425 l 1
 375 425 l 1
 312.5 425 l 1
 312.5 362.5 l 1
 312.5 300 l 1
 375 300 l 1
 437.5 300 l 1
 437.5 362.5 l 1
250 206.25 m 1
 250 300 l 1
 187.5 300 l 1
 125 300 l 1
 125 206.25 l 1
 125 112.5 l 1
 187.5 112.5 l 1
 250 112.5 l 1
 250 206.25 l 1
EndSplineSet
Validated: 524805
EndChar

StartChar: U+00e7
Encoding: 231 231 231
Width: 480
VWidth: 0
Flags: HW
LayerCount: 2
Back
Fore
SplineSet
125 456.25 m 1
 125 487.5 l 1
 250 487.5 l 1
 375 487.5 l 1
 375 456.25 l 1
 375 425 l 1
 406.25 425 l 1
 437.5 425 l 1
 437.5 393.75 l 1
 437.5 362.5 l 1
 406.25 362.5 l 1
 375 362.5 l 1
 375 393.75 l 1
 375 425 l 1
 250 425 l 1
 125 425 l 1
 125 268.75 l 1
 125 112.5 l 1
 250 112.5 l 1
 375 112.5 l 1
 375 143.75 l 1
 375 175 l 1
 406.25 175 l 1
 437.5 175 l 1
 437.5 143.75 l 1
 437.5 112.5 l 1
 406.25 112.5 l 1
 375 112.5 l 1
 375 81.25 l 1
 375 50 l 1
 343.75 50 l 1
 312.5 50 l 1
 312.5 18.75 l 1
 312.5 -12.5 l 1
 281.25 -12.5 l 1
 250 -12.5 l 1
 250 -43.75 l 1
 250 -75 l 1
 187.5 -75 l 1
 125 -75 l 1
 125 -43.75 l 1
 125 -12.5 l 1
 187.5 -12.5 l 1
 250 -12.5 l 1
 250 18.75 l 1
 250 50 l 1
 187.5 50 l 1
 125 50 l 1
 125 81.25 l 1
 125 112.5 l 1
 93.75 112.5 l 1
 62.5 112.5 l 1
 62.5 268.75 l 1
 62.5 425 l 1
 93.75 425 l 1
 125 425 l 1
 125 456.25 l 1
EndSplineSet
Validated: 524805
EndChar

StartChar: U+00e8
Encoding: 232 232 232
Width: 480
VWidth: 0
Flags: HW
LayerCount: 2
Back
Fore
SplineSet
125 456.25 m 1
 125 487.5 l 1
 250 487.5 l 1
 375 487.5 l 1
 375 456.25 l 1
 375 425 l 1
 406.25 425 l 1
 437.5 425 l 1
 437.5 331.25 l 1
 437.5 237.5 l 1
 281.25 237.5 l 1
 125 237.5 l 1
 125 175 l 1
 125 112.5 l 1
 281.25 112.5 l 1
 437.5 112.5 l 1
 437.5 81.25 l 1
 437.5 50 l 1
 281.25 50 l 1
 125 50 l 1
 125 81.25 l 1
 125 112.5 l 1
 93.75 112.5 l 1
 62.5 112.5 l 1
 62.5 268.75 l 1
 62.5 425 l 1
 93.75 425 l 1
 125 425 l 1
 125 456.25 l 1
375 362.5 m 1
 375 425 l 1
 250 425 l 1
 125 425 l 1
 125 362.5 l 1
 125 300 l 1
 250 300 l 1
 375 300 l 1
 375 362.5 l 1
125 643.75 m 1
 125 675 l 1
 187.5 675 l 1
 250 675 l 1
 250 643.75 l 1
 250 612.5 l 1
 312.5 612.5 l 1
 375 612.5 l 1
 375 581.25 l 1
 375 550 l 1
 312.5 550 l 1
 250 550 l 1
 250 581.25 l 1
 250 612.5 l 1
 187.5 612.5 l 1
 125 612.5 l 1
 125 643.75 l 1
EndSplineSet
Validated: 524805
EndChar

StartChar: U+00e9
Encoding: 233 233 233
Width: 480
VWidth: 0
Flags: HW
LayerCount: 2
Back
Fore
SplineSet
125 456.25 m 1
 125 487.5 l 1
 250 487.5 l 1
 375 487.5 l 1
 375 456.25 l 1
 375 425 l 1
 406.25 425 l 1
 437.5 425 l 1
 437.5 331.25 l 1
 437.5 237.5 l 1
 281.25 237.5 l 1
 125 237.5 l 1
 125 175 l 1
 125 112.5 l 1
 281.25 112.5 l 1
 437.5 112.5 l 1
 437.5 81.25 l 1
 437.5 50 l 1
 281.25 50 l 1
 125 50 l 1
 125 81.25 l 1
 125 112.5 l 1
 93.75 112.5 l 1
 62.5 112.5 l 1
 62.5 268.75 l 1
 62.5 425 l 1
 93.75 425 l 1
 125 425 l 1
 125 456.25 l 1
375 362.5 m 1
 375 425 l 1
 250 425 l 1
 125 425 l 1
 125 362.5 l 1
 125 300 l 1
 250 300 l 1
 375 300 l 1
 375 362.5 l 1
250 643.75 m 1
 250 675 l 1
 312.5 675 l 1
 375 675 l 1
 375 643.75 l 1
 375 612.5 l 1
 312.5 612.5 l 1
 250 612.5 l 1
 250 581.25 l 1
 250 550 l 1
 187.5 550 l 1
 125 550 l 1
 125 581.25 l 1
 125 612.5 l 1
 187.5 612.5 l 1
 250 612.5 l 1
 250 643.75 l 1
EndSplineSet
Validated: 524805
EndChar

StartChar: U+00ea
Encoding: 234 234 234
Width: 480
VWidth: 0
Flags: HW
LayerCount: 2
Back
Fore
SplineSet
125 456.25 m 1
 125 487.5 l 1
 250 487.5 l 1
 375 487.5 l 1
 375 456.25 l 1
 375 425 l 1
 406.25 425 l 1
 437.5 425 l 1
 437.5 331.25 l 1
 437.5 237.5 l 1
 281.25 237.5 l 1
 125 237.5 l 1
 125 175 l 1
 125 112.5 l 1
 281.25 112.5 l 1
 437.5 112.5 l 1
 437.5 81.25 l 1
 437.5 50 l 1
 281.25 50 l 1
 125 50 l 1
 125 81.25 l 1
 125 112.5 l 1
 93.75 112.5 l 1
 62.5 112.5 l 1
 62.5 268.75 l 1
 62.5 425 l 1
 93.75 425 l 1
 125 425 l 1
 125 456.25 l 1
375 362.5 m 1
 375 425 l 1
 250 425 l 1
 125 425 l 1
 125 362.5 l 1
 125 300 l 1
 250 300 l 1
 375 300 l 1
 375 362.5 l 1
187.5 643.75 m 1
 187.5 675 l 1
 250 675 l 1
 312.5 675 l 1
 312.5 643.75 l 1
 312.5 612.5 l 1
 343.75 612.5 l 1
 375 612.5 l 1
 375 581.25 l 1
 375 550 l 1
 343.75 550 l 1
 312.5 550 l 1
 312.5 581.25 l 1
 312.5 612.5 l 1
 250 612.5 l 1
 187.5 612.5 l 1
 187.5 581.25 l 1
 187.5 550 l 1
 156.25 550 l 1
 125 550 l 1
 125 581.25 l 1
 125 612.5 l 1
 156.25 612.5 l 1
 187.5 612.5 l 1
 187.5 643.75 l 1
EndSplineSet
Validated: 524805
EndChar

StartChar: U+00eb
Encoding: 235 235 235
Width: 480
VWidth: 0
Flags: HW
LayerCount: 2
Back
Fore
SplineSet
125 456.25 m 1
 125 487.5 l 1
 250 487.5 l 1
 375 487.5 l 1
 375 456.25 l 1
 375 425 l 1
 406.25 425 l 1
 437.5 425 l 1
 437.5 331.25 l 1
 437.5 237.5 l 1
 281.25 237.5 l 1
 125 237.5 l 1
 125 175 l 1
 125 112.5 l 1
 281.25 112.5 l 1
 437.5 112.5 l 1
 437.5 81.25 l 1
 437.5 50 l 1
 281.25 50 l 1
 125 50 l 1
 125 81.25 l 1
 125 112.5 l 1
 93.75 112.5 l 1
 62.5 112.5 l 1
 62.5 268.75 l 1
 62.5 425 l 1
 93.75 425 l 1
 125 425 l 1
 125 456.25 l 1
375 362.5 m 1
 375 425 l 1
 250 425 l 1
 125 425 l 1
 125 362.5 l 1
 125 300 l 1
 250 300 l 1
 375 300 l 1
 375 362.5 l 1
312.5 612.5 m 1
 312.5 675 l 1
 343.75 675 l 1
 375 675 l 1
 375 612.5 l 1
 375 550 l 1
 343.75 550 l 1
 312.5 550 l 1
 312.5 612.5 l 1
125 612.5 m 1
 125 675 l 1
 156.25 675 l 1
 187.5 675 l 1
 187.5 612.5 l 1
 187.5 550 l 1
 156.25 550 l 1
 125 550 l 1
 125 612.5 l 1
EndSplineSet
Validated: 524805
EndChar

StartChar: U+00ec
Encoding: 236 236 236
Width: 480
VWidth: 0
Flags: HW
LayerCount: 2
Back
Fore
SplineSet
125 456.25 m 1
 125 487.5 l 1
 218.75 487.5 l 1
 312.5 487.5 l 1
 312.5 268.75 l 1
 312.5 50 l 1
 281.25 50 l 1
 250 50 l 1
 250 237.5 l 1
 250 425 l 1
 187.5 425 l 1
 125 425 l 1
 125 456.25 l 1
62.5 643.75 m 1
 62.5 675 l 1
 125 675 l 1
 187.5 675 l 1
 187.5 643.75 l 1
 187.5 612.5 l 1
 250 612.5 l 1
 312.5 612.5 l 1
 312.5 581.25 l 1
 312.5 550 l 1
 250 550 l 1
 187.5 550 l 1
 187.5 581.25 l 1
 187.5 612.5 l 1
 125 612.5 l 1
 62.5 612.5 l 1
 62.5 643.75 l 1
EndSplineSet
Validated: 524805
EndChar

StartChar: U+00ed
Encoding: 237 237 237
Width: 480
VWidth: 0
Flags: HW
LayerCount: 2
Back
Fore
SplineSet
125 456.25 m 1
 125 487.5 l 1
 218.75 487.5 l 1
 312.5 487.5 l 1
 312.5 268.75 l 1
 312.5 50 l 1
 281.25 50 l 1
 250 50 l 1
 250 237.5 l 1
 250 425 l 1
 187.5 425 l 1
 125 425 l 1
 125 456.25 l 1
312.5 643.75 m 1
 312.5 675 l 1
 375 675 l 1
 437.5 675 l 1
 437.5 643.75 l 1
 437.5 612.5 l 1
 375 612.5 l 1
 312.5 612.5 l 1
 312.5 581.25 l 1
 312.5 550 l 1
 250 550 l 1
 187.5 550 l 1
 187.5 581.25 l 1
 187.5 612.5 l 1
 250 612.5 l 1
 312.5 612.5 l 1
 312.5 643.75 l 1
EndSplineSet
Validated: 524805
EndChar

StartChar: U+00ee
Encoding: 238 238 238
Width: 480
VWidth: 0
Flags: HW
LayerCount: 2
Back
Fore
SplineSet
125 456.25 m 1
 125 487.5 l 1
 218.75 487.5 l 1
 312.5 487.5 l 1
 312.5 268.75 l 1
 312.5 50 l 1
 281.25 50 l 1
 250 50 l 1
 250 237.5 l 1
 250 425 l 1
 187.5 425 l 1
 125 425 l 1
 125 456.25 l 1
187.5 643.75 m 1
 187.5 675 l 1
 250 675 l 1
 312.5 675 l 1
 312.5 643.75 l 1
 312.5 612.5 l 1
 343.75 612.5 l 1
 375 612.5 l 1
 375 581.25 l 1
 375 550 l 1
 343.75 550 l 1
 312.5 550 l 1
 312.5 581.25 l 1
 312.5 612.5 l 1
 250 612.5 l 1
 187.5 612.5 l 1
 187.5 581.25 l 1
 187.5 550 l 1
 156.25 550 l 1
 125 550 l 1
 125 581.25 l 1
 125 612.5 l 1
 156.25 612.5 l 1
 187.5 612.5 l 1
 187.5 643.75 l 1
EndSplineSet
Validated: 524805
EndChar

StartChar: U+00ef
Encoding: 239 239 239
Width: 480
VWidth: 0
Flags: HW
LayerCount: 2
Back
Fore
SplineSet
125 456.25 m 1
 125 487.5 l 1
 218.75 487.5 l 1
 312.5 487.5 l 1
 312.5 268.75 l 1
 312.5 50 l 1
 281.25 50 l 1
 250 50 l 1
 250 237.5 l 1
 250 425 l 1
 187.5 425 l 1
 125 425 l 1
 125 456.25 l 1
312.5 612.5 m 1
 312.5 675 l 1
 343.75 675 l 1
 375 675 l 1
 375 612.5 l 1
 375 550 l 1
 343.75 550 l 1
 312.5 550 l 1
 312.5 612.5 l 1
125 612.5 m 1
 125 675 l 1
 156.25 675 l 1
 187.5 675 l 1
 187.5 612.5 l 1
 187.5 550 l 1
 156.25 550 l 1
 125 550 l 1
 125 612.5 l 1
EndSplineSet
Validated: 524801
EndChar

StartChar: U+00f0
Encoding: 240 240 240
Width: 480
VWidth: 0
Flags: HW
LayerCount: 2
Back
Fore
SplineSet
62.5 706.25 m 1
 62.5 737.5 l 1
 93.75 737.5 l 1
 125 737.5 l 1
 125 706.25 l 1
 125 675 l 1
 156.25 675 l 1
 187.5 675 l 1
 187.5 643.75 l 1
 187.5 612.5 l 1
 218.75 612.5 l 1
 250 612.5 l 1
 250 643.75 l 1
 250 675 l 1
 312.5 675 l 1
 375 675 l 1
 375 643.75 l 1
 375 612.5 l 1
 312.5 612.5 l 1
 250 612.5 l 1
 250 581.25 l 1
 250 550 l 1
 281.25 550 l 1
 312.5 550 l 1
 312.5 518.75 l 1
 312.5 487.5 l 1
 343.75 487.5 l 1
 375 487.5 l 1
 375 425 l 1
 375 362.5 l 1
 406.25 362.5 l 1
 437.5 362.5 l 1
 437.5 237.5 l 1
 437.5 112.5 l 1
 406.25 112.5 l 1
 375 112.5 l 1
 375 81.25 l 1
 375 50 l 1
 250 50 l 1
 125 50 l 1
 125 81.25 l 1
 125 112.5 l 1
 93.75 112.5 l 1
 62.5 112.5 l 1
 62.5 237.5 l 1
 62.5 362.5 l 1
 93.75 362.5 l 1
 125 362.5 l 1
 125 393.75 l 1
 125 425 l 1
 218.75 425 l 1
 312.5 425 l 1
 312.5 456.25 l 1
 312.5 487.5 l 1
 281.25 487.5 l 1
 250 487.5 l 1
 250 518.75 l 1
 250 550 l 1
 218.75 550 l 1
 187.5 550 l 1
 187.5 518.75 l 1
 187.5 487.5 l 1
 125 487.5 l 1
 62.5 487.5 l 1
 62.5 518.75 l 1
 62.5 550 l 1
 125 550 l 1
 187.5 550 l 1
 187.5 581.25 l 1
 187.5 612.5 l 1
 156.25 612.5 l 1
 125 612.5 l 1
 125 643.75 l 1
 125 675 l 1
 93.75 675 l 1
 62.5 675 l 1
 62.5 706.25 l 1
375 237.5 m 1
 375 362.5 l 1
 250 362.5 l 1
 125 362.5 l 1
 125 237.5 l 1
 125 112.5 l 1
 250 112.5 l 1
 375 112.5 l 1
 375 237.5 l 1
EndSplineSet
Validated: 524805
EndChar

StartChar: U+00f1
Encoding: 241 241 241
Width: 480
VWidth: 0
Flags: HW
LayerCount: 2
Back
Fore
SplineSet
62.5 268.75 m 1
 62.5 487.5 l 1
 93.75 487.5 l 1
 125 487.5 l 1
 125 456.25 l 1
 125 425 l 1
 156.25 425 l 1
 187.5 425 l 1
 187.5 456.25 l 1
 187.5 487.5 l 1
 281.25 487.5 l 1
 375 487.5 l 1
 375 456.25 l 1
 375 425 l 1
 406.25 425 l 1
 437.5 425 l 1
 437.5 237.5 l 1
 437.5 50 l 1
 406.25 50 l 1
 375 50 l 1
 375 237.5 l 1
 375 425 l 1
 281.25 425 l 1
 187.5 425 l 1
 187.5 393.75 l 1
 187.5 362.5 l 1
 156.25 362.5 l 1
 125 362.5 l 1
 125 206.25 l 1
 125 50 l 1
 93.75 50 l 1
 62.5 50 l 1
 62.5 268.75 l 1
125 643.75 m 1
 125 675 l 1
 187.5 675 l 1
 250 675 l 1
 250 643.75 l 1
 250 612.5 l 1
 312.5 612.5 l 1
 375 612.5 l 1
 375 643.75 l 1
 375 675 l 1
 406.25 675 l 1
 437.5 675 l 1
 437.5 643.75 l 1
 437.5 612.5 l 1
 406.25 612.5 l 1
 375 612.5 l 1
 375 581.25 l 1
 375 550 l 1
 312.5 550 l 1
 250 550 l 1
 250 581.25 l 1
 250 612.5 l 1
 187.5 612.5 l 1
 125 612.5 l 1
 125 581.25 l 1
 125 550 l 1
 93.75 550 l 1
 62.5 550 l 1
 62.5 581.25 l 1
 62.5 612.5 l 1
 93.75 612.5 l 1
 125 612.5 l 1
 125 643.75 l 1
EndSplineSet
Validated: 524805
EndChar

StartChar: U+00f2
Encoding: 242 242 242
Width: 480
VWidth: 0
Flags: HW
LayerCount: 2
Back
Fore
SplineSet
125 456.25 m 1
 125 487.5 l 1
 250 487.5 l 1
 375 487.5 l 1
 375 456.25 l 1
 375 425 l 1
 406.25 425 l 1
 437.5 425 l 1
 437.5 268.75 l 1
 437.5 112.5 l 1
 406.25 112.5 l 1
 375 112.5 l 1
 375 81.25 l 1
 375 50 l 1
 250 50 l 1
 125 50 l 1
 125 81.25 l 1
 125 112.5 l 1
 93.75 112.5 l 1
 62.5 112.5 l 1
 62.5 268.75 l 1
 62.5 425 l 1
 93.75 425 l 1
 125 425 l 1
 125 456.25 l 1
375 268.75 m 1
 375 425 l 1
 250 425 l 1
 125 425 l 1
 125 268.75 l 1
 125 112.5 l 1
 250 112.5 l 1
 375 112.5 l 1
 375 268.75 l 1
125 643.75 m 1
 125 675 l 1
 187.5 675 l 1
 250 675 l 1
 250 643.75 l 1
 250 612.5 l 1
 312.5 612.5 l 1
 375 612.5 l 1
 375 581.25 l 1
 375 550 l 1
 312.5 550 l 1
 250 550 l 1
 250 581.25 l 1
 250 612.5 l 1
 187.5 612.5 l 1
 125 612.5 l 1
 125 643.75 l 1
EndSplineSet
Validated: 524805
EndChar

StartChar: U+00f3
Encoding: 243 243 243
Width: 480
VWidth: 0
Flags: HW
LayerCount: 2
Back
Fore
SplineSet
125 456.25 m 1
 125 487.5 l 1
 250 487.5 l 1
 375 487.5 l 1
 375 456.25 l 1
 375 425 l 1
 406.25 425 l 1
 437.5 425 l 1
 437.5 268.75 l 1
 437.5 112.5 l 1
 406.25 112.5 l 1
 375 112.5 l 1
 375 81.25 l 1
 375 50 l 1
 250 50 l 1
 125 50 l 1
 125 81.25 l 1
 125 112.5 l 1
 93.75 112.5 l 1
 62.5 112.5 l 1
 62.5 268.75 l 1
 62.5 425 l 1
 93.75 425 l 1
 125 425 l 1
 125 456.25 l 1
375 268.75 m 1
 375 425 l 1
 250 425 l 1
 125 425 l 1
 125 268.75 l 1
 125 112.5 l 1
 250 112.5 l 1
 375 112.5 l 1
 375 268.75 l 1
250 643.75 m 1
 250 675 l 1
 312.5 675 l 1
 375 675 l 1
 375 643.75 l 1
 375 612.5 l 1
 312.5 612.5 l 1
 250 612.5 l 1
 250 581.25 l 1
 250 550 l 1
 187.5 550 l 1
 125 550 l 1
 125 581.25 l 1
 125 612.5 l 1
 187.5 612.5 l 1
 250 612.5 l 1
 250 643.75 l 1
EndSplineSet
Validated: 524805
EndChar

StartChar: U+00f4
Encoding: 244 244 244
Width: 480
VWidth: 0
Flags: HW
LayerCount: 2
Back
Fore
SplineSet
125 456.25 m 1
 125 487.5 l 1
 250 487.5 l 1
 375 487.5 l 1
 375 456.25 l 1
 375 425 l 1
 406.25 425 l 1
 437.5 425 l 1
 437.5 268.75 l 1
 437.5 112.5 l 1
 406.25 112.5 l 1
 375 112.5 l 1
 375 81.25 l 1
 375 50 l 1
 250 50 l 1
 125 50 l 1
 125 81.25 l 1
 125 112.5 l 1
 93.75 112.5 l 1
 62.5 112.5 l 1
 62.5 268.75 l 1
 62.5 425 l 1
 93.75 425 l 1
 125 425 l 1
 125 456.25 l 1
375 268.75 m 1
 375 425 l 1
 250 425 l 1
 125 425 l 1
 125 268.75 l 1
 125 112.5 l 1
 250 112.5 l 1
 375 112.5 l 1
 375 268.75 l 1
187.5 643.75 m 1
 187.5 675 l 1
 250 675 l 1
 312.5 675 l 1
 312.5 643.75 l 1
 312.5 612.5 l 1
 343.75 612.5 l 1
 375 612.5 l 1
 375 581.25 l 1
 375 550 l 1
 343.75 550 l 1
 312.5 550 l 1
 312.5 581.25 l 1
 312.5 612.5 l 1
 250 612.5 l 1
 187.5 612.5 l 1
 187.5 581.25 l 1
 187.5 550 l 1
 156.25 550 l 1
 125 550 l 1
 125 581.25 l 1
 125 612.5 l 1
 156.25 612.5 l 1
 187.5 612.5 l 1
 187.5 643.75 l 1
EndSplineSet
Validated: 524805
EndChar

